G04 #@! TF.GenerationSoftware,KiCad,Pcbnew,5.1.12-84ad8e8a86~92~ubuntu18.04.1*
G04 #@! TF.CreationDate,2023-05-05T16:39:47+03:00*
G04 #@! TF.ProjectId,RP2040-PICO30_Rev_A,52503230-3430-42d5-9049-434f33305f52,A*
G04 #@! TF.SameCoordinates,Original*
G04 #@! TF.FileFunction,Legend,Top*
G04 #@! TF.FilePolarity,Positive*
%FSLAX46Y46*%
G04 Gerber Fmt 4.6, Leading zero omitted, Abs format (unit mm)*
G04 Created by KiCad (PCBNEW 5.1.12-84ad8e8a86~92~ubuntu18.04.1) date 2023-05-05 16:39:47*
%MOMM*%
%LPD*%
G01*
G04 APERTURE LIST*
%ADD10C,0.127000*%
%ADD11C,0.254000*%
%ADD12C,0.139700*%
%ADD13C,0.050000*%
%ADD14C,0.100000*%
%ADD15C,0.200000*%
%ADD16C,0.150000*%
%ADD17C,0.152400*%
%ADD18C,0.222250*%
%ADD19C,0.190500*%
%ADD20C,0.158750*%
%ADD21C,0.177800*%
%ADD22C,0.203200*%
G04 APERTURE END LIST*
D10*
X158580666Y-66879409D02*
X158750000Y-67387409D01*
X158919333Y-66879409D01*
X159258000Y-67121314D02*
X159330571Y-67145504D01*
X159354761Y-67169695D01*
X159378952Y-67218076D01*
X159378952Y-67290647D01*
X159354761Y-67339028D01*
X159330571Y-67363219D01*
X159282190Y-67387409D01*
X159088666Y-67387409D01*
X159088666Y-66879409D01*
X159258000Y-66879409D01*
X159306380Y-66903600D01*
X159330571Y-66927790D01*
X159354761Y-66976171D01*
X159354761Y-67024552D01*
X159330571Y-67072933D01*
X159306380Y-67097123D01*
X159258000Y-67121314D01*
X159088666Y-67121314D01*
X159596666Y-66879409D02*
X159596666Y-67290647D01*
X159620857Y-67339028D01*
X159645047Y-67363219D01*
X159693428Y-67387409D01*
X159790190Y-67387409D01*
X159838571Y-67363219D01*
X159862761Y-67339028D01*
X159886952Y-67290647D01*
X159886952Y-66879409D01*
X160104666Y-67363219D02*
X160177238Y-67387409D01*
X160298190Y-67387409D01*
X160346571Y-67363219D01*
X160370761Y-67339028D01*
X160394952Y-67290647D01*
X160394952Y-67242266D01*
X160370761Y-67193885D01*
X160346571Y-67169695D01*
X160298190Y-67145504D01*
X160201428Y-67121314D01*
X160153047Y-67097123D01*
X160128857Y-67072933D01*
X160104666Y-67024552D01*
X160104666Y-66976171D01*
X160128857Y-66927790D01*
X160153047Y-66903600D01*
X160201428Y-66879409D01*
X160322380Y-66879409D01*
X160394952Y-66903600D01*
X158641142Y-69419409D02*
X158810476Y-69927409D01*
X158979809Y-69419409D01*
X159124952Y-69903219D02*
X159197523Y-69927409D01*
X159318476Y-69927409D01*
X159366857Y-69903219D01*
X159391047Y-69879028D01*
X159415238Y-69830647D01*
X159415238Y-69782266D01*
X159391047Y-69733885D01*
X159366857Y-69709695D01*
X159318476Y-69685504D01*
X159221714Y-69661314D01*
X159173333Y-69637123D01*
X159149142Y-69612933D01*
X159124952Y-69564552D01*
X159124952Y-69516171D01*
X159149142Y-69467790D01*
X159173333Y-69443600D01*
X159221714Y-69419409D01*
X159342666Y-69419409D01*
X159415238Y-69443600D01*
X159729714Y-69685504D02*
X159729714Y-69927409D01*
X159560380Y-69419409D02*
X159729714Y-69685504D01*
X159899047Y-69419409D01*
X160044190Y-69903219D02*
X160116761Y-69927409D01*
X160237714Y-69927409D01*
X160286095Y-69903219D01*
X160310285Y-69879028D01*
X160334476Y-69830647D01*
X160334476Y-69782266D01*
X160310285Y-69733885D01*
X160286095Y-69709695D01*
X160237714Y-69685504D01*
X160140952Y-69661314D01*
X160092571Y-69637123D01*
X160068380Y-69612933D01*
X160044190Y-69564552D01*
X160044190Y-69516171D01*
X160068380Y-69467790D01*
X160092571Y-69443600D01*
X160140952Y-69419409D01*
X160261904Y-69419409D01*
X160334476Y-69443600D01*
X159124952Y-71983600D02*
X159076571Y-71959409D01*
X159004000Y-71959409D01*
X158931428Y-71983600D01*
X158883047Y-72031980D01*
X158858857Y-72080361D01*
X158834666Y-72177123D01*
X158834666Y-72249695D01*
X158858857Y-72346457D01*
X158883047Y-72394838D01*
X158931428Y-72443219D01*
X159004000Y-72467409D01*
X159052380Y-72467409D01*
X159124952Y-72443219D01*
X159149142Y-72419028D01*
X159149142Y-72249695D01*
X159052380Y-72249695D01*
X159366857Y-72467409D02*
X159366857Y-71959409D01*
X159657142Y-72467409D01*
X159657142Y-71959409D01*
X159899047Y-72467409D02*
X159899047Y-71959409D01*
X160020000Y-71959409D01*
X160092571Y-71983600D01*
X160140952Y-72031980D01*
X160165142Y-72080361D01*
X160189333Y-72177123D01*
X160189333Y-72249695D01*
X160165142Y-72346457D01*
X160140952Y-72394838D01*
X160092571Y-72443219D01*
X160020000Y-72467409D01*
X159899047Y-72467409D01*
X159137047Y-74741314D02*
X159306380Y-74741314D01*
X159378952Y-75007409D02*
X159137047Y-75007409D01*
X159137047Y-74499409D01*
X159378952Y-74499409D01*
X159596666Y-75007409D02*
X159596666Y-74499409D01*
X159886952Y-75007409D01*
X159886952Y-74499409D01*
X158762095Y-77039409D02*
X159076571Y-77039409D01*
X158907238Y-77232933D01*
X158979809Y-77232933D01*
X159028190Y-77257123D01*
X159052380Y-77281314D01*
X159076571Y-77329695D01*
X159076571Y-77450647D01*
X159052380Y-77499028D01*
X159028190Y-77523219D01*
X158979809Y-77547409D01*
X158834666Y-77547409D01*
X158786285Y-77523219D01*
X158762095Y-77499028D01*
X159294285Y-77499028D02*
X159318476Y-77523219D01*
X159294285Y-77547409D01*
X159270095Y-77523219D01*
X159294285Y-77499028D01*
X159294285Y-77547409D01*
X159487809Y-77039409D02*
X159802285Y-77039409D01*
X159632952Y-77232933D01*
X159705523Y-77232933D01*
X159753904Y-77257123D01*
X159778095Y-77281314D01*
X159802285Y-77329695D01*
X159802285Y-77450647D01*
X159778095Y-77499028D01*
X159753904Y-77523219D01*
X159705523Y-77547409D01*
X159560380Y-77547409D01*
X159512000Y-77523219D01*
X159487809Y-77499028D01*
X159947428Y-77039409D02*
X160116761Y-77547409D01*
X160286095Y-77039409D01*
X158641142Y-79579409D02*
X158810476Y-80087409D01*
X158979809Y-79579409D01*
X159439428Y-80087409D02*
X159270095Y-79845504D01*
X159149142Y-80087409D02*
X159149142Y-79579409D01*
X159342666Y-79579409D01*
X159391047Y-79603600D01*
X159415238Y-79627790D01*
X159439428Y-79676171D01*
X159439428Y-79748742D01*
X159415238Y-79797123D01*
X159391047Y-79821314D01*
X159342666Y-79845504D01*
X159149142Y-79845504D01*
X159657142Y-79821314D02*
X159826476Y-79821314D01*
X159899047Y-80087409D02*
X159657142Y-80087409D01*
X159657142Y-79579409D01*
X159899047Y-79579409D01*
X160286095Y-79821314D02*
X160116761Y-79821314D01*
X160116761Y-80087409D02*
X160116761Y-79579409D01*
X160358666Y-79579409D01*
X158762095Y-82627409D02*
X158762095Y-82119409D01*
X159100761Y-82119409D02*
X159197523Y-82119409D01*
X159245904Y-82143600D01*
X159294285Y-82191980D01*
X159318476Y-82288742D01*
X159318476Y-82458076D01*
X159294285Y-82554838D01*
X159245904Y-82603219D01*
X159197523Y-82627409D01*
X159100761Y-82627409D01*
X159052380Y-82603219D01*
X159004000Y-82554838D01*
X158979809Y-82458076D01*
X158979809Y-82288742D01*
X159004000Y-82191980D01*
X159052380Y-82143600D01*
X159100761Y-82119409D01*
X159512000Y-82167790D02*
X159536190Y-82143600D01*
X159584571Y-82119409D01*
X159705523Y-82119409D01*
X159753904Y-82143600D01*
X159778095Y-82167790D01*
X159802285Y-82216171D01*
X159802285Y-82264552D01*
X159778095Y-82337123D01*
X159487809Y-82627409D01*
X159802285Y-82627409D01*
X160092571Y-82337123D02*
X160044190Y-82312933D01*
X160020000Y-82288742D01*
X159995809Y-82240361D01*
X159995809Y-82216171D01*
X160020000Y-82167790D01*
X160044190Y-82143600D01*
X160092571Y-82119409D01*
X160189333Y-82119409D01*
X160237714Y-82143600D01*
X160261904Y-82167790D01*
X160286095Y-82216171D01*
X160286095Y-82240361D01*
X160261904Y-82288742D01*
X160237714Y-82312933D01*
X160189333Y-82337123D01*
X160092571Y-82337123D01*
X160044190Y-82361314D01*
X160020000Y-82385504D01*
X159995809Y-82433885D01*
X159995809Y-82530647D01*
X160020000Y-82579028D01*
X160044190Y-82603219D01*
X160092571Y-82627409D01*
X160189333Y-82627409D01*
X160237714Y-82603219D01*
X160261904Y-82579028D01*
X160286095Y-82530647D01*
X160286095Y-82433885D01*
X160261904Y-82385504D01*
X160237714Y-82361314D01*
X160189333Y-82337123D01*
X159124952Y-84683600D02*
X159076571Y-84659409D01*
X159004000Y-84659409D01*
X158931428Y-84683600D01*
X158883047Y-84731980D01*
X158858857Y-84780361D01*
X158834666Y-84877123D01*
X158834666Y-84949695D01*
X158858857Y-85046457D01*
X158883047Y-85094838D01*
X158931428Y-85143219D01*
X159004000Y-85167409D01*
X159052380Y-85167409D01*
X159124952Y-85143219D01*
X159149142Y-85119028D01*
X159149142Y-84949695D01*
X159052380Y-84949695D01*
X159366857Y-85167409D02*
X159366857Y-84659409D01*
X159657142Y-85167409D01*
X159657142Y-84659409D01*
X159899047Y-85167409D02*
X159899047Y-84659409D01*
X160020000Y-84659409D01*
X160092571Y-84683600D01*
X160140952Y-84731980D01*
X160165142Y-84780361D01*
X160189333Y-84877123D01*
X160189333Y-84949695D01*
X160165142Y-85046457D01*
X160140952Y-85094838D01*
X160092571Y-85143219D01*
X160020000Y-85167409D01*
X159899047Y-85167409D01*
X158762095Y-87707409D02*
X158762095Y-87199409D01*
X159100761Y-87199409D02*
X159197523Y-87199409D01*
X159245904Y-87223600D01*
X159294285Y-87271980D01*
X159318476Y-87368742D01*
X159318476Y-87538076D01*
X159294285Y-87634838D01*
X159245904Y-87683219D01*
X159197523Y-87707409D01*
X159100761Y-87707409D01*
X159052380Y-87683219D01*
X159004000Y-87634838D01*
X158979809Y-87538076D01*
X158979809Y-87368742D01*
X159004000Y-87271980D01*
X159052380Y-87223600D01*
X159100761Y-87199409D01*
X159512000Y-87247790D02*
X159536190Y-87223600D01*
X159584571Y-87199409D01*
X159705523Y-87199409D01*
X159753904Y-87223600D01*
X159778095Y-87247790D01*
X159802285Y-87296171D01*
X159802285Y-87344552D01*
X159778095Y-87417123D01*
X159487809Y-87707409D01*
X159802285Y-87707409D01*
X159971619Y-87199409D02*
X160310285Y-87199409D01*
X160092571Y-87707409D01*
X158762095Y-90247409D02*
X158762095Y-89739409D01*
X159100761Y-89739409D02*
X159197523Y-89739409D01*
X159245904Y-89763600D01*
X159294285Y-89811980D01*
X159318476Y-89908742D01*
X159318476Y-90078076D01*
X159294285Y-90174838D01*
X159245904Y-90223219D01*
X159197523Y-90247409D01*
X159100761Y-90247409D01*
X159052380Y-90223219D01*
X159004000Y-90174838D01*
X158979809Y-90078076D01*
X158979809Y-89908742D01*
X159004000Y-89811980D01*
X159052380Y-89763600D01*
X159100761Y-89739409D01*
X159512000Y-89787790D02*
X159536190Y-89763600D01*
X159584571Y-89739409D01*
X159705523Y-89739409D01*
X159753904Y-89763600D01*
X159778095Y-89787790D01*
X159802285Y-89836171D01*
X159802285Y-89884552D01*
X159778095Y-89957123D01*
X159487809Y-90247409D01*
X159802285Y-90247409D01*
X160237714Y-89739409D02*
X160140952Y-89739409D01*
X160092571Y-89763600D01*
X160068380Y-89787790D01*
X160020000Y-89860361D01*
X159995809Y-89957123D01*
X159995809Y-90150647D01*
X160020000Y-90199028D01*
X160044190Y-90223219D01*
X160092571Y-90247409D01*
X160189333Y-90247409D01*
X160237714Y-90223219D01*
X160261904Y-90199028D01*
X160286095Y-90150647D01*
X160286095Y-90029695D01*
X160261904Y-89981314D01*
X160237714Y-89957123D01*
X160189333Y-89932933D01*
X160092571Y-89932933D01*
X160044190Y-89957123D01*
X160020000Y-89981314D01*
X159995809Y-90029695D01*
X159391047Y-92787409D02*
X159221714Y-92545504D01*
X159100761Y-92787409D02*
X159100761Y-92279409D01*
X159294285Y-92279409D01*
X159342666Y-92303600D01*
X159366857Y-92327790D01*
X159391047Y-92376171D01*
X159391047Y-92448742D01*
X159366857Y-92497123D01*
X159342666Y-92521314D01*
X159294285Y-92545504D01*
X159100761Y-92545504D01*
X159608761Y-92279409D02*
X159608761Y-92690647D01*
X159632952Y-92739028D01*
X159657142Y-92763219D01*
X159705523Y-92787409D01*
X159802285Y-92787409D01*
X159850666Y-92763219D01*
X159874857Y-92739028D01*
X159899047Y-92690647D01*
X159899047Y-92279409D01*
X160140952Y-92787409D02*
X160140952Y-92279409D01*
X160431238Y-92787409D01*
X160431238Y-92279409D01*
X159016095Y-95327409D02*
X159016095Y-94819409D01*
X159354761Y-94819409D02*
X159451523Y-94819409D01*
X159499904Y-94843600D01*
X159548285Y-94891980D01*
X159572476Y-94988742D01*
X159572476Y-95158076D01*
X159548285Y-95254838D01*
X159499904Y-95303219D01*
X159451523Y-95327409D01*
X159354761Y-95327409D01*
X159306380Y-95303219D01*
X159258000Y-95254838D01*
X159233809Y-95158076D01*
X159233809Y-94988742D01*
X159258000Y-94891980D01*
X159306380Y-94843600D01*
X159354761Y-94819409D01*
X159766000Y-94867790D02*
X159790190Y-94843600D01*
X159838571Y-94819409D01*
X159959523Y-94819409D01*
X160007904Y-94843600D01*
X160032095Y-94867790D01*
X160056285Y-94916171D01*
X160056285Y-94964552D01*
X160032095Y-95037123D01*
X159741809Y-95327409D01*
X160056285Y-95327409D01*
X160249809Y-94867790D02*
X160274000Y-94843600D01*
X160322380Y-94819409D01*
X160443333Y-94819409D01*
X160491714Y-94843600D01*
X160515904Y-94867790D01*
X160540095Y-94916171D01*
X160540095Y-94964552D01*
X160515904Y-95037123D01*
X160225619Y-95327409D01*
X160540095Y-95327409D01*
X158762095Y-97867409D02*
X158762095Y-97359409D01*
X159100761Y-97359409D02*
X159197523Y-97359409D01*
X159245904Y-97383600D01*
X159294285Y-97431980D01*
X159318476Y-97528742D01*
X159318476Y-97698076D01*
X159294285Y-97794838D01*
X159245904Y-97843219D01*
X159197523Y-97867409D01*
X159100761Y-97867409D01*
X159052380Y-97843219D01*
X159004000Y-97794838D01*
X158979809Y-97698076D01*
X158979809Y-97528742D01*
X159004000Y-97431980D01*
X159052380Y-97383600D01*
X159100761Y-97359409D01*
X159512000Y-97407790D02*
X159536190Y-97383600D01*
X159584571Y-97359409D01*
X159705523Y-97359409D01*
X159753904Y-97383600D01*
X159778095Y-97407790D01*
X159802285Y-97456171D01*
X159802285Y-97504552D01*
X159778095Y-97577123D01*
X159487809Y-97867409D01*
X159802285Y-97867409D01*
X159971619Y-97359409D02*
X160286095Y-97359409D01*
X160116761Y-97552933D01*
X160189333Y-97552933D01*
X160237714Y-97577123D01*
X160261904Y-97601314D01*
X160286095Y-97649695D01*
X160286095Y-97770647D01*
X160261904Y-97819028D01*
X160237714Y-97843219D01*
X160189333Y-97867409D01*
X160044190Y-97867409D01*
X159995809Y-97843219D01*
X159971619Y-97819028D01*
X158762095Y-100407409D02*
X158762095Y-99899409D01*
X159100761Y-99899409D02*
X159197523Y-99899409D01*
X159245904Y-99923600D01*
X159294285Y-99971980D01*
X159318476Y-100068742D01*
X159318476Y-100238076D01*
X159294285Y-100334838D01*
X159245904Y-100383219D01*
X159197523Y-100407409D01*
X159100761Y-100407409D01*
X159052380Y-100383219D01*
X159004000Y-100334838D01*
X158979809Y-100238076D01*
X158979809Y-100068742D01*
X159004000Y-99971980D01*
X159052380Y-99923600D01*
X159100761Y-99899409D01*
X159512000Y-99947790D02*
X159536190Y-99923600D01*
X159584571Y-99899409D01*
X159705523Y-99899409D01*
X159753904Y-99923600D01*
X159778095Y-99947790D01*
X159802285Y-99996171D01*
X159802285Y-100044552D01*
X159778095Y-100117123D01*
X159487809Y-100407409D01*
X159802285Y-100407409D01*
X160286095Y-100407409D02*
X159995809Y-100407409D01*
X160140952Y-100407409D02*
X160140952Y-99899409D01*
X160092571Y-99971980D01*
X160044190Y-100020361D01*
X159995809Y-100044552D01*
X158762095Y-102947409D02*
X158762095Y-102439409D01*
X159100761Y-102439409D02*
X159197523Y-102439409D01*
X159245904Y-102463600D01*
X159294285Y-102511980D01*
X159318476Y-102608742D01*
X159318476Y-102778076D01*
X159294285Y-102874838D01*
X159245904Y-102923219D01*
X159197523Y-102947409D01*
X159100761Y-102947409D01*
X159052380Y-102923219D01*
X159004000Y-102874838D01*
X158979809Y-102778076D01*
X158979809Y-102608742D01*
X159004000Y-102511980D01*
X159052380Y-102463600D01*
X159100761Y-102439409D01*
X159512000Y-102487790D02*
X159536190Y-102463600D01*
X159584571Y-102439409D01*
X159705523Y-102439409D01*
X159753904Y-102463600D01*
X159778095Y-102487790D01*
X159802285Y-102536171D01*
X159802285Y-102584552D01*
X159778095Y-102657123D01*
X159487809Y-102947409D01*
X159802285Y-102947409D01*
X160116761Y-102439409D02*
X160165142Y-102439409D01*
X160213523Y-102463600D01*
X160237714Y-102487790D01*
X160261904Y-102536171D01*
X160286095Y-102632933D01*
X160286095Y-102753885D01*
X160261904Y-102850647D01*
X160237714Y-102899028D01*
X160213523Y-102923219D01*
X160165142Y-102947409D01*
X160116761Y-102947409D01*
X160068380Y-102923219D01*
X160044190Y-102899028D01*
X160020000Y-102850647D01*
X159995809Y-102753885D01*
X159995809Y-102632933D01*
X160020000Y-102536171D01*
X160044190Y-102487790D01*
X160068380Y-102463600D01*
X160116761Y-102439409D01*
X158762095Y-105487409D02*
X158762095Y-104979409D01*
X159100761Y-104979409D02*
X159197523Y-104979409D01*
X159245904Y-105003600D01*
X159294285Y-105051980D01*
X159318476Y-105148742D01*
X159318476Y-105318076D01*
X159294285Y-105414838D01*
X159245904Y-105463219D01*
X159197523Y-105487409D01*
X159100761Y-105487409D01*
X159052380Y-105463219D01*
X159004000Y-105414838D01*
X158979809Y-105318076D01*
X158979809Y-105148742D01*
X159004000Y-105051980D01*
X159052380Y-105003600D01*
X159100761Y-104979409D01*
X159802285Y-105487409D02*
X159512000Y-105487409D01*
X159657142Y-105487409D02*
X159657142Y-104979409D01*
X159608761Y-105051980D01*
X159560380Y-105100361D01*
X159512000Y-105124552D01*
X160044190Y-105487409D02*
X160140952Y-105487409D01*
X160189333Y-105463219D01*
X160213523Y-105439028D01*
X160261904Y-105366457D01*
X160286095Y-105269695D01*
X160286095Y-105076171D01*
X160261904Y-105027790D01*
X160237714Y-105003600D01*
X160189333Y-104979409D01*
X160092571Y-104979409D01*
X160044190Y-105003600D01*
X160020000Y-105027790D01*
X159995809Y-105076171D01*
X159995809Y-105197123D01*
X160020000Y-105245504D01*
X160044190Y-105269695D01*
X160092571Y-105293885D01*
X160189333Y-105293885D01*
X160237714Y-105269695D01*
X160261904Y-105245504D01*
X160286095Y-105197123D01*
X158762095Y-108027409D02*
X158762095Y-107519409D01*
X159100761Y-107519409D02*
X159197523Y-107519409D01*
X159245904Y-107543600D01*
X159294285Y-107591980D01*
X159318476Y-107688742D01*
X159318476Y-107858076D01*
X159294285Y-107954838D01*
X159245904Y-108003219D01*
X159197523Y-108027409D01*
X159100761Y-108027409D01*
X159052380Y-108003219D01*
X159004000Y-107954838D01*
X158979809Y-107858076D01*
X158979809Y-107688742D01*
X159004000Y-107591980D01*
X159052380Y-107543600D01*
X159100761Y-107519409D01*
X159802285Y-108027409D02*
X159512000Y-108027409D01*
X159657142Y-108027409D02*
X159657142Y-107519409D01*
X159608761Y-107591980D01*
X159560380Y-107640361D01*
X159512000Y-107664552D01*
X160092571Y-107737123D02*
X160044190Y-107712933D01*
X160020000Y-107688742D01*
X159995809Y-107640361D01*
X159995809Y-107616171D01*
X160020000Y-107567790D01*
X160044190Y-107543600D01*
X160092571Y-107519409D01*
X160189333Y-107519409D01*
X160237714Y-107543600D01*
X160261904Y-107567790D01*
X160286095Y-107616171D01*
X160286095Y-107640361D01*
X160261904Y-107688742D01*
X160237714Y-107712933D01*
X160189333Y-107737123D01*
X160092571Y-107737123D01*
X160044190Y-107761314D01*
X160020000Y-107785504D01*
X159995809Y-107833885D01*
X159995809Y-107930647D01*
X160020000Y-107979028D01*
X160044190Y-108003219D01*
X160092571Y-108027409D01*
X160189333Y-108027409D01*
X160237714Y-108003219D01*
X160261904Y-107979028D01*
X160286095Y-107930647D01*
X160286095Y-107833885D01*
X160261904Y-107785504D01*
X160237714Y-107761314D01*
X160189333Y-107737123D01*
X158762095Y-110567409D02*
X158762095Y-110059409D01*
X159100761Y-110059409D02*
X159197523Y-110059409D01*
X159245904Y-110083600D01*
X159294285Y-110131980D01*
X159318476Y-110228742D01*
X159318476Y-110398076D01*
X159294285Y-110494838D01*
X159245904Y-110543219D01*
X159197523Y-110567409D01*
X159100761Y-110567409D01*
X159052380Y-110543219D01*
X159004000Y-110494838D01*
X158979809Y-110398076D01*
X158979809Y-110228742D01*
X159004000Y-110131980D01*
X159052380Y-110083600D01*
X159100761Y-110059409D01*
X159512000Y-110107790D02*
X159536190Y-110083600D01*
X159584571Y-110059409D01*
X159705523Y-110059409D01*
X159753904Y-110083600D01*
X159778095Y-110107790D01*
X159802285Y-110156171D01*
X159802285Y-110204552D01*
X159778095Y-110277123D01*
X159487809Y-110567409D01*
X159802285Y-110567409D01*
X160237714Y-110228742D02*
X160237714Y-110567409D01*
X160116761Y-110035219D02*
X159995809Y-110398076D01*
X160310285Y-110398076D01*
X158762095Y-113107409D02*
X158762095Y-112599409D01*
X159100761Y-112599409D02*
X159197523Y-112599409D01*
X159245904Y-112623600D01*
X159294285Y-112671980D01*
X159318476Y-112768742D01*
X159318476Y-112938076D01*
X159294285Y-113034838D01*
X159245904Y-113083219D01*
X159197523Y-113107409D01*
X159100761Y-113107409D01*
X159052380Y-113083219D01*
X159004000Y-113034838D01*
X158979809Y-112938076D01*
X158979809Y-112768742D01*
X159004000Y-112671980D01*
X159052380Y-112623600D01*
X159100761Y-112599409D01*
X159802285Y-113107409D02*
X159512000Y-113107409D01*
X159657142Y-113107409D02*
X159657142Y-112599409D01*
X159608761Y-112671980D01*
X159560380Y-112720361D01*
X159512000Y-112744552D01*
X159971619Y-112599409D02*
X160310285Y-112599409D01*
X160092571Y-113107409D01*
X158344809Y-115049904D02*
X157836809Y-115049904D01*
X157836809Y-114711238D02*
X157836809Y-114614476D01*
X157861000Y-114566095D01*
X157909380Y-114517714D01*
X158006142Y-114493523D01*
X158175476Y-114493523D01*
X158272238Y-114517714D01*
X158320619Y-114566095D01*
X158344809Y-114614476D01*
X158344809Y-114711238D01*
X158320619Y-114759619D01*
X158272238Y-114808000D01*
X158175476Y-114832190D01*
X158006142Y-114832190D01*
X157909380Y-114808000D01*
X157861000Y-114759619D01*
X157836809Y-114711238D01*
X158344809Y-114009714D02*
X158344809Y-114300000D01*
X158344809Y-114154857D02*
X157836809Y-114154857D01*
X157909380Y-114203238D01*
X157957761Y-114251619D01*
X157981952Y-114300000D01*
X157836809Y-113574285D02*
X157836809Y-113671047D01*
X157861000Y-113719428D01*
X157885190Y-113743619D01*
X157957761Y-113792000D01*
X158054523Y-113816190D01*
X158248047Y-113816190D01*
X158296428Y-113792000D01*
X158320619Y-113767809D01*
X158344809Y-113719428D01*
X158344809Y-113622666D01*
X158320619Y-113574285D01*
X158296428Y-113550095D01*
X158248047Y-113525904D01*
X158127095Y-113525904D01*
X158078714Y-113550095D01*
X158054523Y-113574285D01*
X158030333Y-113622666D01*
X158030333Y-113719428D01*
X158054523Y-113767809D01*
X158078714Y-113792000D01*
X158127095Y-113816190D01*
X154536019Y-114989428D02*
X154560209Y-114916857D01*
X154560209Y-114795904D01*
X154536019Y-114747523D01*
X154511828Y-114723333D01*
X154463447Y-114699142D01*
X154415066Y-114699142D01*
X154366685Y-114723333D01*
X154342495Y-114747523D01*
X154318304Y-114795904D01*
X154294114Y-114892666D01*
X154269923Y-114941047D01*
X154245733Y-114965238D01*
X154197352Y-114989428D01*
X154148971Y-114989428D01*
X154100590Y-114965238D01*
X154076400Y-114941047D01*
X154052209Y-114892666D01*
X154052209Y-114771714D01*
X154076400Y-114699142D01*
X154052209Y-114529809D02*
X154560209Y-114408857D01*
X154197352Y-114312095D01*
X154560209Y-114215333D01*
X154052209Y-114094380D01*
X154560209Y-113900857D02*
X154052209Y-113900857D01*
X154052209Y-113779904D01*
X154076400Y-113707333D01*
X154124780Y-113658952D01*
X154173161Y-113634761D01*
X154269923Y-113610571D01*
X154342495Y-113610571D01*
X154439257Y-113634761D01*
X154487638Y-113658952D01*
X154536019Y-113707333D01*
X154560209Y-113779904D01*
X154560209Y-113900857D01*
X151536400Y-114687047D02*
X151512209Y-114735428D01*
X151512209Y-114808000D01*
X151536400Y-114880571D01*
X151584780Y-114928952D01*
X151633161Y-114953142D01*
X151729923Y-114977333D01*
X151802495Y-114977333D01*
X151899257Y-114953142D01*
X151947638Y-114928952D01*
X151996019Y-114880571D01*
X152020209Y-114808000D01*
X152020209Y-114759619D01*
X151996019Y-114687047D01*
X151971828Y-114662857D01*
X151802495Y-114662857D01*
X151802495Y-114759619D01*
X152020209Y-114445142D02*
X151512209Y-114445142D01*
X152020209Y-114154857D01*
X151512209Y-114154857D01*
X152020209Y-113912952D02*
X151512209Y-113912952D01*
X151512209Y-113792000D01*
X151536400Y-113719428D01*
X151584780Y-113671047D01*
X151633161Y-113646857D01*
X151729923Y-113622666D01*
X151802495Y-113622666D01*
X151899257Y-113646857D01*
X151947638Y-113671047D01*
X151996019Y-113719428D01*
X152020209Y-113792000D01*
X152020209Y-113912952D01*
X149456019Y-114989428D02*
X149480209Y-114916857D01*
X149480209Y-114795904D01*
X149456019Y-114747523D01*
X149431828Y-114723333D01*
X149383447Y-114699142D01*
X149335066Y-114699142D01*
X149286685Y-114723333D01*
X149262495Y-114747523D01*
X149238304Y-114795904D01*
X149214114Y-114892666D01*
X149189923Y-114941047D01*
X149165733Y-114965238D01*
X149117352Y-114989428D01*
X149068971Y-114989428D01*
X149020590Y-114965238D01*
X148996400Y-114941047D01*
X148972209Y-114892666D01*
X148972209Y-114771714D01*
X148996400Y-114699142D01*
X148972209Y-114529809D02*
X149480209Y-114408857D01*
X149117352Y-114312095D01*
X149480209Y-114215333D01*
X148972209Y-114094380D01*
X149431828Y-113610571D02*
X149456019Y-113634761D01*
X149480209Y-113707333D01*
X149480209Y-113755714D01*
X149456019Y-113828285D01*
X149407638Y-113876666D01*
X149359257Y-113900857D01*
X149262495Y-113925047D01*
X149189923Y-113925047D01*
X149093161Y-113900857D01*
X149044780Y-113876666D01*
X148996400Y-113828285D01*
X148972209Y-113755714D01*
X148972209Y-113707333D01*
X148996400Y-113634761D01*
X149020590Y-113610571D01*
X143231809Y-115049904D02*
X142723809Y-115049904D01*
X142723809Y-114711238D02*
X142723809Y-114614476D01*
X142748000Y-114566095D01*
X142796380Y-114517714D01*
X142893142Y-114493523D01*
X143062476Y-114493523D01*
X143159238Y-114517714D01*
X143207619Y-114566095D01*
X143231809Y-114614476D01*
X143231809Y-114711238D01*
X143207619Y-114759619D01*
X143159238Y-114808000D01*
X143062476Y-114832190D01*
X142893142Y-114832190D01*
X142796380Y-114808000D01*
X142748000Y-114759619D01*
X142723809Y-114711238D01*
X143231809Y-114009714D02*
X143231809Y-114300000D01*
X143231809Y-114154857D02*
X142723809Y-114154857D01*
X142796380Y-114203238D01*
X142844761Y-114251619D01*
X142868952Y-114300000D01*
X142723809Y-113550095D02*
X142723809Y-113792000D01*
X142965714Y-113816190D01*
X142941523Y-113792000D01*
X142917333Y-113743619D01*
X142917333Y-113622666D01*
X142941523Y-113574285D01*
X142965714Y-113550095D01*
X143014095Y-113525904D01*
X143135047Y-113525904D01*
X143183428Y-113550095D01*
X143207619Y-113574285D01*
X143231809Y-113622666D01*
X143231809Y-113743619D01*
X143207619Y-113792000D01*
X143183428Y-113816190D01*
X140601095Y-113107409D02*
X140601095Y-112599409D01*
X140939761Y-112599409D02*
X141036523Y-112599409D01*
X141084904Y-112623600D01*
X141133285Y-112671980D01*
X141157476Y-112768742D01*
X141157476Y-112938076D01*
X141133285Y-113034838D01*
X141084904Y-113083219D01*
X141036523Y-113107409D01*
X140939761Y-113107409D01*
X140891380Y-113083219D01*
X140843000Y-113034838D01*
X140818809Y-112938076D01*
X140818809Y-112768742D01*
X140843000Y-112671980D01*
X140891380Y-112623600D01*
X140939761Y-112599409D01*
X141641285Y-113107409D02*
X141351000Y-113107409D01*
X141496142Y-113107409D02*
X141496142Y-112599409D01*
X141447761Y-112671980D01*
X141399380Y-112720361D01*
X141351000Y-112744552D01*
X142076714Y-112768742D02*
X142076714Y-113107409D01*
X141955761Y-112575219D02*
X141834809Y-112938076D01*
X142149285Y-112938076D01*
X140601095Y-110567409D02*
X140601095Y-110059409D01*
X140939761Y-110059409D02*
X141036523Y-110059409D01*
X141084904Y-110083600D01*
X141133285Y-110131980D01*
X141157476Y-110228742D01*
X141157476Y-110398076D01*
X141133285Y-110494838D01*
X141084904Y-110543219D01*
X141036523Y-110567409D01*
X140939761Y-110567409D01*
X140891380Y-110543219D01*
X140843000Y-110494838D01*
X140818809Y-110398076D01*
X140818809Y-110228742D01*
X140843000Y-110131980D01*
X140891380Y-110083600D01*
X140939761Y-110059409D01*
X141351000Y-110107790D02*
X141375190Y-110083600D01*
X141423571Y-110059409D01*
X141544523Y-110059409D01*
X141592904Y-110083600D01*
X141617095Y-110107790D01*
X141641285Y-110156171D01*
X141641285Y-110204552D01*
X141617095Y-110277123D01*
X141326809Y-110567409D01*
X141641285Y-110567409D01*
X142100904Y-110059409D02*
X141859000Y-110059409D01*
X141834809Y-110301314D01*
X141859000Y-110277123D01*
X141907380Y-110252933D01*
X142028333Y-110252933D01*
X142076714Y-110277123D01*
X142100904Y-110301314D01*
X142125095Y-110349695D01*
X142125095Y-110470647D01*
X142100904Y-110519028D01*
X142076714Y-110543219D01*
X142028333Y-110567409D01*
X141907380Y-110567409D01*
X141859000Y-110543219D01*
X141834809Y-110519028D01*
X140601095Y-108027409D02*
X140601095Y-107519409D01*
X140939761Y-107519409D02*
X141036523Y-107519409D01*
X141084904Y-107543600D01*
X141133285Y-107591980D01*
X141157476Y-107688742D01*
X141157476Y-107858076D01*
X141133285Y-107954838D01*
X141084904Y-108003219D01*
X141036523Y-108027409D01*
X140939761Y-108027409D01*
X140891380Y-108003219D01*
X140843000Y-107954838D01*
X140818809Y-107858076D01*
X140818809Y-107688742D01*
X140843000Y-107591980D01*
X140891380Y-107543600D01*
X140939761Y-107519409D01*
X141641285Y-108027409D02*
X141351000Y-108027409D01*
X141496142Y-108027409D02*
X141496142Y-107519409D01*
X141447761Y-107591980D01*
X141399380Y-107640361D01*
X141351000Y-107664552D01*
X141810619Y-107519409D02*
X142125095Y-107519409D01*
X141955761Y-107712933D01*
X142028333Y-107712933D01*
X142076714Y-107737123D01*
X142100904Y-107761314D01*
X142125095Y-107809695D01*
X142125095Y-107930647D01*
X142100904Y-107979028D01*
X142076714Y-108003219D01*
X142028333Y-108027409D01*
X141883190Y-108027409D01*
X141834809Y-108003219D01*
X141810619Y-107979028D01*
X140601095Y-105487409D02*
X140601095Y-104979409D01*
X140939761Y-104979409D02*
X141036523Y-104979409D01*
X141084904Y-105003600D01*
X141133285Y-105051980D01*
X141157476Y-105148742D01*
X141157476Y-105318076D01*
X141133285Y-105414838D01*
X141084904Y-105463219D01*
X141036523Y-105487409D01*
X140939761Y-105487409D01*
X140891380Y-105463219D01*
X140843000Y-105414838D01*
X140818809Y-105318076D01*
X140818809Y-105148742D01*
X140843000Y-105051980D01*
X140891380Y-105003600D01*
X140939761Y-104979409D01*
X141641285Y-105487409D02*
X141351000Y-105487409D01*
X141496142Y-105487409D02*
X141496142Y-104979409D01*
X141447761Y-105051980D01*
X141399380Y-105100361D01*
X141351000Y-105124552D01*
X141834809Y-105027790D02*
X141859000Y-105003600D01*
X141907380Y-104979409D01*
X142028333Y-104979409D01*
X142076714Y-105003600D01*
X142100904Y-105027790D01*
X142125095Y-105076171D01*
X142125095Y-105124552D01*
X142100904Y-105197123D01*
X141810619Y-105487409D01*
X142125095Y-105487409D01*
X140601095Y-102947409D02*
X140601095Y-102439409D01*
X140939761Y-102439409D02*
X141036523Y-102439409D01*
X141084904Y-102463600D01*
X141133285Y-102511980D01*
X141157476Y-102608742D01*
X141157476Y-102778076D01*
X141133285Y-102874838D01*
X141084904Y-102923219D01*
X141036523Y-102947409D01*
X140939761Y-102947409D01*
X140891380Y-102923219D01*
X140843000Y-102874838D01*
X140818809Y-102778076D01*
X140818809Y-102608742D01*
X140843000Y-102511980D01*
X140891380Y-102463600D01*
X140939761Y-102439409D01*
X141641285Y-102947409D02*
X141351000Y-102947409D01*
X141496142Y-102947409D02*
X141496142Y-102439409D01*
X141447761Y-102511980D01*
X141399380Y-102560361D01*
X141351000Y-102584552D01*
X142125095Y-102947409D02*
X141834809Y-102947409D01*
X141979952Y-102947409D02*
X141979952Y-102439409D01*
X141931571Y-102511980D01*
X141883190Y-102560361D01*
X141834809Y-102584552D01*
X140601095Y-100407409D02*
X140601095Y-99899409D01*
X140939761Y-99899409D02*
X141036523Y-99899409D01*
X141084904Y-99923600D01*
X141133285Y-99971980D01*
X141157476Y-100068742D01*
X141157476Y-100238076D01*
X141133285Y-100334838D01*
X141084904Y-100383219D01*
X141036523Y-100407409D01*
X140939761Y-100407409D01*
X140891380Y-100383219D01*
X140843000Y-100334838D01*
X140818809Y-100238076D01*
X140818809Y-100068742D01*
X140843000Y-99971980D01*
X140891380Y-99923600D01*
X140939761Y-99899409D01*
X141641285Y-100407409D02*
X141351000Y-100407409D01*
X141496142Y-100407409D02*
X141496142Y-99899409D01*
X141447761Y-99971980D01*
X141399380Y-100020361D01*
X141351000Y-100044552D01*
X141955761Y-99899409D02*
X142004142Y-99899409D01*
X142052523Y-99923600D01*
X142076714Y-99947790D01*
X142100904Y-99996171D01*
X142125095Y-100092933D01*
X142125095Y-100213885D01*
X142100904Y-100310647D01*
X142076714Y-100359028D01*
X142052523Y-100383219D01*
X142004142Y-100407409D01*
X141955761Y-100407409D01*
X141907380Y-100383219D01*
X141883190Y-100359028D01*
X141859000Y-100310647D01*
X141834809Y-100213885D01*
X141834809Y-100092933D01*
X141859000Y-99996171D01*
X141883190Y-99947790D01*
X141907380Y-99923600D01*
X141955761Y-99899409D01*
X140601095Y-97867409D02*
X140601095Y-97359409D01*
X140939761Y-97359409D02*
X141036523Y-97359409D01*
X141084904Y-97383600D01*
X141133285Y-97431980D01*
X141157476Y-97528742D01*
X141157476Y-97698076D01*
X141133285Y-97794838D01*
X141084904Y-97843219D01*
X141036523Y-97867409D01*
X140939761Y-97867409D01*
X140891380Y-97843219D01*
X140843000Y-97794838D01*
X140818809Y-97698076D01*
X140818809Y-97528742D01*
X140843000Y-97431980D01*
X140891380Y-97383600D01*
X140939761Y-97359409D01*
X141351000Y-97407790D02*
X141375190Y-97383600D01*
X141423571Y-97359409D01*
X141544523Y-97359409D01*
X141592904Y-97383600D01*
X141617095Y-97407790D01*
X141641285Y-97456171D01*
X141641285Y-97504552D01*
X141617095Y-97577123D01*
X141326809Y-97867409D01*
X141641285Y-97867409D01*
X141883190Y-97867409D02*
X141979952Y-97867409D01*
X142028333Y-97843219D01*
X142052523Y-97819028D01*
X142100904Y-97746457D01*
X142125095Y-97649695D01*
X142125095Y-97456171D01*
X142100904Y-97407790D01*
X142076714Y-97383600D01*
X142028333Y-97359409D01*
X141931571Y-97359409D01*
X141883190Y-97383600D01*
X141859000Y-97407790D01*
X141834809Y-97456171D01*
X141834809Y-97577123D01*
X141859000Y-97625504D01*
X141883190Y-97649695D01*
X141931571Y-97673885D01*
X142028333Y-97673885D01*
X142076714Y-97649695D01*
X142100904Y-97625504D01*
X142125095Y-97577123D01*
X140843000Y-95327409D02*
X140843000Y-94819409D01*
X141181666Y-94819409D02*
X141278428Y-94819409D01*
X141326809Y-94843600D01*
X141375190Y-94891980D01*
X141399380Y-94988742D01*
X141399380Y-95158076D01*
X141375190Y-95254838D01*
X141326809Y-95303219D01*
X141278428Y-95327409D01*
X141181666Y-95327409D01*
X141133285Y-95303219D01*
X141084904Y-95254838D01*
X141060714Y-95158076D01*
X141060714Y-94988742D01*
X141084904Y-94891980D01*
X141133285Y-94843600D01*
X141181666Y-94819409D01*
X141641285Y-95327409D02*
X141738047Y-95327409D01*
X141786428Y-95303219D01*
X141810619Y-95279028D01*
X141859000Y-95206457D01*
X141883190Y-95109695D01*
X141883190Y-94916171D01*
X141859000Y-94867790D01*
X141834809Y-94843600D01*
X141786428Y-94819409D01*
X141689666Y-94819409D01*
X141641285Y-94843600D01*
X141617095Y-94867790D01*
X141592904Y-94916171D01*
X141592904Y-95037123D01*
X141617095Y-95085504D01*
X141641285Y-95109695D01*
X141689666Y-95133885D01*
X141786428Y-95133885D01*
X141834809Y-95109695D01*
X141859000Y-95085504D01*
X141883190Y-95037123D01*
X140843000Y-92787409D02*
X140843000Y-92279409D01*
X141181666Y-92279409D02*
X141278428Y-92279409D01*
X141326809Y-92303600D01*
X141375190Y-92351980D01*
X141399380Y-92448742D01*
X141399380Y-92618076D01*
X141375190Y-92714838D01*
X141326809Y-92763219D01*
X141278428Y-92787409D01*
X141181666Y-92787409D01*
X141133285Y-92763219D01*
X141084904Y-92714838D01*
X141060714Y-92618076D01*
X141060714Y-92448742D01*
X141084904Y-92351980D01*
X141133285Y-92303600D01*
X141181666Y-92279409D01*
X141689666Y-92497123D02*
X141641285Y-92472933D01*
X141617095Y-92448742D01*
X141592904Y-92400361D01*
X141592904Y-92376171D01*
X141617095Y-92327790D01*
X141641285Y-92303600D01*
X141689666Y-92279409D01*
X141786428Y-92279409D01*
X141834809Y-92303600D01*
X141859000Y-92327790D01*
X141883190Y-92376171D01*
X141883190Y-92400361D01*
X141859000Y-92448742D01*
X141834809Y-92472933D01*
X141786428Y-92497123D01*
X141689666Y-92497123D01*
X141641285Y-92521314D01*
X141617095Y-92545504D01*
X141592904Y-92593885D01*
X141592904Y-92690647D01*
X141617095Y-92739028D01*
X141641285Y-92763219D01*
X141689666Y-92787409D01*
X141786428Y-92787409D01*
X141834809Y-92763219D01*
X141859000Y-92739028D01*
X141883190Y-92690647D01*
X141883190Y-92593885D01*
X141859000Y-92545504D01*
X141834809Y-92521314D01*
X141786428Y-92497123D01*
X140843000Y-90247409D02*
X140843000Y-89739409D01*
X141181666Y-89739409D02*
X141278428Y-89739409D01*
X141326809Y-89763600D01*
X141375190Y-89811980D01*
X141399380Y-89908742D01*
X141399380Y-90078076D01*
X141375190Y-90174838D01*
X141326809Y-90223219D01*
X141278428Y-90247409D01*
X141181666Y-90247409D01*
X141133285Y-90223219D01*
X141084904Y-90174838D01*
X141060714Y-90078076D01*
X141060714Y-89908742D01*
X141084904Y-89811980D01*
X141133285Y-89763600D01*
X141181666Y-89739409D01*
X141568714Y-89739409D02*
X141907380Y-89739409D01*
X141689666Y-90247409D01*
X140843000Y-87707409D02*
X140843000Y-87199409D01*
X141181666Y-87199409D02*
X141278428Y-87199409D01*
X141326809Y-87223600D01*
X141375190Y-87271980D01*
X141399380Y-87368742D01*
X141399380Y-87538076D01*
X141375190Y-87634838D01*
X141326809Y-87683219D01*
X141278428Y-87707409D01*
X141181666Y-87707409D01*
X141133285Y-87683219D01*
X141084904Y-87634838D01*
X141060714Y-87538076D01*
X141060714Y-87368742D01*
X141084904Y-87271980D01*
X141133285Y-87223600D01*
X141181666Y-87199409D01*
X141834809Y-87199409D02*
X141738047Y-87199409D01*
X141689666Y-87223600D01*
X141665476Y-87247790D01*
X141617095Y-87320361D01*
X141592904Y-87417123D01*
X141592904Y-87610647D01*
X141617095Y-87659028D01*
X141641285Y-87683219D01*
X141689666Y-87707409D01*
X141786428Y-87707409D01*
X141834809Y-87683219D01*
X141859000Y-87659028D01*
X141883190Y-87610647D01*
X141883190Y-87489695D01*
X141859000Y-87441314D01*
X141834809Y-87417123D01*
X141786428Y-87392933D01*
X141689666Y-87392933D01*
X141641285Y-87417123D01*
X141617095Y-87441314D01*
X141592904Y-87489695D01*
X140963952Y-84683600D02*
X140915571Y-84659409D01*
X140843000Y-84659409D01*
X140770428Y-84683600D01*
X140722047Y-84731980D01*
X140697857Y-84780361D01*
X140673666Y-84877123D01*
X140673666Y-84949695D01*
X140697857Y-85046457D01*
X140722047Y-85094838D01*
X140770428Y-85143219D01*
X140843000Y-85167409D01*
X140891380Y-85167409D01*
X140963952Y-85143219D01*
X140988142Y-85119028D01*
X140988142Y-84949695D01*
X140891380Y-84949695D01*
X141205857Y-85167409D02*
X141205857Y-84659409D01*
X141496142Y-85167409D01*
X141496142Y-84659409D01*
X141738047Y-85167409D02*
X141738047Y-84659409D01*
X141859000Y-84659409D01*
X141931571Y-84683600D01*
X141979952Y-84731980D01*
X142004142Y-84780361D01*
X142028333Y-84877123D01*
X142028333Y-84949695D01*
X142004142Y-85046457D01*
X141979952Y-85094838D01*
X141931571Y-85143219D01*
X141859000Y-85167409D01*
X141738047Y-85167409D01*
X140843000Y-80087409D02*
X140843000Y-79579409D01*
X141181666Y-79579409D02*
X141278428Y-79579409D01*
X141326809Y-79603600D01*
X141375190Y-79651980D01*
X141399380Y-79748742D01*
X141399380Y-79918076D01*
X141375190Y-80014838D01*
X141326809Y-80063219D01*
X141278428Y-80087409D01*
X141181666Y-80087409D01*
X141133285Y-80063219D01*
X141084904Y-80014838D01*
X141060714Y-79918076D01*
X141060714Y-79748742D01*
X141084904Y-79651980D01*
X141133285Y-79603600D01*
X141181666Y-79579409D01*
X141834809Y-79748742D02*
X141834809Y-80087409D01*
X141713857Y-79555219D02*
X141592904Y-79918076D01*
X141907380Y-79918076D01*
X140843000Y-82627409D02*
X140843000Y-82119409D01*
X141181666Y-82119409D02*
X141278428Y-82119409D01*
X141326809Y-82143600D01*
X141375190Y-82191980D01*
X141399380Y-82288742D01*
X141399380Y-82458076D01*
X141375190Y-82554838D01*
X141326809Y-82603219D01*
X141278428Y-82627409D01*
X141181666Y-82627409D01*
X141133285Y-82603219D01*
X141084904Y-82554838D01*
X141060714Y-82458076D01*
X141060714Y-82288742D01*
X141084904Y-82191980D01*
X141133285Y-82143600D01*
X141181666Y-82119409D01*
X141859000Y-82119409D02*
X141617095Y-82119409D01*
X141592904Y-82361314D01*
X141617095Y-82337123D01*
X141665476Y-82312933D01*
X141786428Y-82312933D01*
X141834809Y-82337123D01*
X141859000Y-82361314D01*
X141883190Y-82409695D01*
X141883190Y-82530647D01*
X141859000Y-82579028D01*
X141834809Y-82603219D01*
X141786428Y-82627409D01*
X141665476Y-82627409D01*
X141617095Y-82603219D01*
X141592904Y-82579028D01*
X140843000Y-77547409D02*
X140843000Y-77039409D01*
X141181666Y-77039409D02*
X141278428Y-77039409D01*
X141326809Y-77063600D01*
X141375190Y-77111980D01*
X141399380Y-77208742D01*
X141399380Y-77378076D01*
X141375190Y-77474838D01*
X141326809Y-77523219D01*
X141278428Y-77547409D01*
X141181666Y-77547409D01*
X141133285Y-77523219D01*
X141084904Y-77474838D01*
X141060714Y-77378076D01*
X141060714Y-77208742D01*
X141084904Y-77111980D01*
X141133285Y-77063600D01*
X141181666Y-77039409D01*
X141568714Y-77039409D02*
X141883190Y-77039409D01*
X141713857Y-77232933D01*
X141786428Y-77232933D01*
X141834809Y-77257123D01*
X141859000Y-77281314D01*
X141883190Y-77329695D01*
X141883190Y-77450647D01*
X141859000Y-77499028D01*
X141834809Y-77523219D01*
X141786428Y-77547409D01*
X141641285Y-77547409D01*
X141592904Y-77523219D01*
X141568714Y-77499028D01*
X140843000Y-75007409D02*
X140843000Y-74499409D01*
X141181666Y-74499409D02*
X141278428Y-74499409D01*
X141326809Y-74523600D01*
X141375190Y-74571980D01*
X141399380Y-74668742D01*
X141399380Y-74838076D01*
X141375190Y-74934838D01*
X141326809Y-74983219D01*
X141278428Y-75007409D01*
X141181666Y-75007409D01*
X141133285Y-74983219D01*
X141084904Y-74934838D01*
X141060714Y-74838076D01*
X141060714Y-74668742D01*
X141084904Y-74571980D01*
X141133285Y-74523600D01*
X141181666Y-74499409D01*
X141592904Y-74547790D02*
X141617095Y-74523600D01*
X141665476Y-74499409D01*
X141786428Y-74499409D01*
X141834809Y-74523600D01*
X141859000Y-74547790D01*
X141883190Y-74596171D01*
X141883190Y-74644552D01*
X141859000Y-74717123D01*
X141568714Y-75007409D01*
X141883190Y-75007409D01*
X140963952Y-71983600D02*
X140915571Y-71959409D01*
X140843000Y-71959409D01*
X140770428Y-71983600D01*
X140722047Y-72031980D01*
X140697857Y-72080361D01*
X140673666Y-72177123D01*
X140673666Y-72249695D01*
X140697857Y-72346457D01*
X140722047Y-72394838D01*
X140770428Y-72443219D01*
X140843000Y-72467409D01*
X140891380Y-72467409D01*
X140963952Y-72443219D01*
X140988142Y-72419028D01*
X140988142Y-72249695D01*
X140891380Y-72249695D01*
X141205857Y-72467409D02*
X141205857Y-71959409D01*
X141496142Y-72467409D01*
X141496142Y-71959409D01*
X141738047Y-72467409D02*
X141738047Y-71959409D01*
X141859000Y-71959409D01*
X141931571Y-71983600D01*
X141979952Y-72031980D01*
X142004142Y-72080361D01*
X142028333Y-72177123D01*
X142028333Y-72249695D01*
X142004142Y-72346457D01*
X141979952Y-72394838D01*
X141931571Y-72443219D01*
X141859000Y-72467409D01*
X141738047Y-72467409D01*
X140843000Y-69927409D02*
X140843000Y-69419409D01*
X141181666Y-69419409D02*
X141278428Y-69419409D01*
X141326809Y-69443600D01*
X141375190Y-69491980D01*
X141399380Y-69588742D01*
X141399380Y-69758076D01*
X141375190Y-69854838D01*
X141326809Y-69903219D01*
X141278428Y-69927409D01*
X141181666Y-69927409D01*
X141133285Y-69903219D01*
X141084904Y-69854838D01*
X141060714Y-69758076D01*
X141060714Y-69588742D01*
X141084904Y-69491980D01*
X141133285Y-69443600D01*
X141181666Y-69419409D01*
X141883190Y-69927409D02*
X141592904Y-69927409D01*
X141738047Y-69927409D02*
X141738047Y-69419409D01*
X141689666Y-69491980D01*
X141641285Y-69540361D01*
X141592904Y-69564552D01*
X140843000Y-67387409D02*
X140843000Y-66879409D01*
X141181666Y-66879409D02*
X141278428Y-66879409D01*
X141326809Y-66903600D01*
X141375190Y-66951980D01*
X141399380Y-67048742D01*
X141399380Y-67218076D01*
X141375190Y-67314838D01*
X141326809Y-67363219D01*
X141278428Y-67387409D01*
X141181666Y-67387409D01*
X141133285Y-67363219D01*
X141084904Y-67314838D01*
X141060714Y-67218076D01*
X141060714Y-67048742D01*
X141084904Y-66951980D01*
X141133285Y-66903600D01*
X141181666Y-66879409D01*
X141713857Y-66879409D02*
X141762238Y-66879409D01*
X141810619Y-66903600D01*
X141834809Y-66927790D01*
X141859000Y-66976171D01*
X141883190Y-67072933D01*
X141883190Y-67193885D01*
X141859000Y-67290647D01*
X141834809Y-67339028D01*
X141810619Y-67363219D01*
X141762238Y-67387409D01*
X141713857Y-67387409D01*
X141665476Y-67363219D01*
X141641285Y-67339028D01*
X141617095Y-67290647D01*
X141592904Y-67193885D01*
X141592904Y-67072933D01*
X141617095Y-66976171D01*
X141641285Y-66927790D01*
X141665476Y-66903600D01*
X141713857Y-66879409D01*
D11*
X157177619Y-73139904D02*
X157177619Y-72946380D01*
X157226000Y-72849619D01*
X157322761Y-72752857D01*
X157516285Y-72704476D01*
X157854952Y-72704476D01*
X158048476Y-72752857D01*
X158145238Y-72849619D01*
X158193619Y-72946380D01*
X158193619Y-73139904D01*
X158145238Y-73236666D01*
X158048476Y-73333428D01*
X157854952Y-73381809D01*
X157516285Y-73381809D01*
X157322761Y-73333428D01*
X157226000Y-73236666D01*
X157177619Y-73139904D01*
X158193619Y-71785238D02*
X158193619Y-72269047D01*
X157177619Y-72269047D01*
X158193619Y-71446571D02*
X157177619Y-71446571D01*
X158193619Y-70962761D02*
X157177619Y-70962761D01*
X157903333Y-70624095D01*
X157177619Y-70285428D01*
X158193619Y-70285428D01*
X157661428Y-69801619D02*
X157661428Y-69462952D01*
X158193619Y-69317809D02*
X158193619Y-69801619D01*
X157177619Y-69801619D01*
X157177619Y-69317809D01*
X157177619Y-68979142D02*
X158193619Y-68301809D01*
X157177619Y-68301809D02*
X158193619Y-68979142D01*
X154051000Y-101727000D02*
X154051000Y-101473000D01*
X154305000Y-101727000D02*
X154051000Y-101727000D01*
X154305000Y-101473000D02*
X154051000Y-101727000D01*
X154305000Y-99822000D02*
X154305000Y-101473000D01*
X150495000Y-104648000D02*
X149987000Y-104902000D01*
X150495000Y-104648000D02*
X149987000Y-104394000D01*
X146812000Y-104648000D02*
X150495000Y-104648000D01*
D12*
X156929666Y-70384609D02*
X156903057Y-70411219D01*
X156823228Y-70464438D01*
X156770009Y-70491047D01*
X156690180Y-70517657D01*
X156557133Y-70544266D01*
X156450695Y-70544266D01*
X156317647Y-70517657D01*
X156237819Y-70491047D01*
X156184600Y-70464438D01*
X156104771Y-70411219D01*
X156078161Y-70384609D01*
X156663571Y-69852419D02*
X156690180Y-69879028D01*
X156716790Y-69958857D01*
X156716790Y-70012076D01*
X156690180Y-70091904D01*
X156636961Y-70145123D01*
X156583742Y-70171733D01*
X156477304Y-70198342D01*
X156397476Y-70198342D01*
X156291038Y-70171733D01*
X156237819Y-70145123D01*
X156184600Y-70091904D01*
X156157990Y-70012076D01*
X156157990Y-69958857D01*
X156184600Y-69879028D01*
X156211209Y-69852419D01*
X156929666Y-69666152D02*
X156903057Y-69639542D01*
X156823228Y-69586323D01*
X156770009Y-69559714D01*
X156690180Y-69533104D01*
X156557133Y-69506495D01*
X156450695Y-69506495D01*
X156317647Y-69533104D01*
X156237819Y-69559714D01*
X156184600Y-69586323D01*
X156104771Y-69639542D01*
X156078161Y-69666152D01*
X156211209Y-69267009D02*
X156184600Y-69240400D01*
X156157990Y-69187180D01*
X156157990Y-69054133D01*
X156184600Y-69000914D01*
X156211209Y-68974304D01*
X156264428Y-68947695D01*
X156317647Y-68947695D01*
X156397476Y-68974304D01*
X156716790Y-69293619D01*
X156716790Y-68947695D01*
X156157990Y-68601771D02*
X156157990Y-68548552D01*
X156184600Y-68495333D01*
X156211209Y-68468723D01*
X156264428Y-68442114D01*
X156370866Y-68415504D01*
X156503914Y-68415504D01*
X156610352Y-68442114D01*
X156663571Y-68468723D01*
X156690180Y-68495333D01*
X156716790Y-68548552D01*
X156716790Y-68601771D01*
X156690180Y-68654990D01*
X156663571Y-68681600D01*
X156610352Y-68708209D01*
X156503914Y-68734819D01*
X156370866Y-68734819D01*
X156264428Y-68708209D01*
X156211209Y-68681600D01*
X156184600Y-68654990D01*
X156157990Y-68601771D01*
X156211209Y-68202628D02*
X156184600Y-68176019D01*
X156157990Y-68122800D01*
X156157990Y-67989752D01*
X156184600Y-67936533D01*
X156211209Y-67909923D01*
X156264428Y-67883314D01*
X156317647Y-67883314D01*
X156397476Y-67909923D01*
X156716790Y-68229238D01*
X156716790Y-67883314D01*
X156157990Y-67697047D02*
X156157990Y-67351123D01*
X156370866Y-67537390D01*
X156370866Y-67457561D01*
X156397476Y-67404342D01*
X156424085Y-67377733D01*
X156477304Y-67351123D01*
X156610352Y-67351123D01*
X156663571Y-67377733D01*
X156690180Y-67404342D01*
X156716790Y-67457561D01*
X156716790Y-67617219D01*
X156690180Y-67670438D01*
X156663571Y-67697047D01*
D11*
X143842619Y-91101333D02*
X143358809Y-91440000D01*
X143842619Y-91681904D02*
X142826619Y-91681904D01*
X142826619Y-91294857D01*
X142875000Y-91198095D01*
X142923380Y-91149714D01*
X143020142Y-91101333D01*
X143165285Y-91101333D01*
X143262047Y-91149714D01*
X143310428Y-91198095D01*
X143358809Y-91294857D01*
X143358809Y-91681904D01*
X143794238Y-90278857D02*
X143842619Y-90375619D01*
X143842619Y-90569142D01*
X143794238Y-90665904D01*
X143697476Y-90714285D01*
X143310428Y-90714285D01*
X143213666Y-90665904D01*
X143165285Y-90569142D01*
X143165285Y-90375619D01*
X143213666Y-90278857D01*
X143310428Y-90230476D01*
X143407190Y-90230476D01*
X143503952Y-90714285D01*
X143165285Y-89891809D02*
X143842619Y-89649904D01*
X143165285Y-89408000D01*
X143745857Y-89020952D02*
X143794238Y-88972571D01*
X143842619Y-89020952D01*
X143794238Y-89069333D01*
X143745857Y-89020952D01*
X143842619Y-89020952D01*
X143552333Y-88585523D02*
X143552333Y-88101714D01*
X143842619Y-88682285D02*
X142826619Y-88343619D01*
X143842619Y-88004952D01*
X143842619Y-108639428D02*
X143358809Y-108978095D01*
X143842619Y-109220000D02*
X142826619Y-109220000D01*
X142826619Y-108832952D01*
X142875000Y-108736190D01*
X142923380Y-108687809D01*
X143020142Y-108639428D01*
X143165285Y-108639428D01*
X143262047Y-108687809D01*
X143310428Y-108736190D01*
X143358809Y-108832952D01*
X143358809Y-109220000D01*
X143842619Y-108204000D02*
X142826619Y-108204000D01*
X142826619Y-107816952D01*
X142875000Y-107720190D01*
X142923380Y-107671809D01*
X143020142Y-107623428D01*
X143165285Y-107623428D01*
X143262047Y-107671809D01*
X143310428Y-107720190D01*
X143358809Y-107816952D01*
X143358809Y-108204000D01*
X142923380Y-107236380D02*
X142875000Y-107188000D01*
X142826619Y-107091238D01*
X142826619Y-106849333D01*
X142875000Y-106752571D01*
X142923380Y-106704190D01*
X143020142Y-106655809D01*
X143116904Y-106655809D01*
X143262047Y-106704190D01*
X143842619Y-107284761D01*
X143842619Y-106655809D01*
X142826619Y-106026857D02*
X142826619Y-105930095D01*
X142875000Y-105833333D01*
X142923380Y-105784952D01*
X143020142Y-105736571D01*
X143213666Y-105688190D01*
X143455571Y-105688190D01*
X143649095Y-105736571D01*
X143745857Y-105784952D01*
X143794238Y-105833333D01*
X143842619Y-105930095D01*
X143842619Y-106026857D01*
X143794238Y-106123619D01*
X143745857Y-106172000D01*
X143649095Y-106220380D01*
X143455571Y-106268761D01*
X143213666Y-106268761D01*
X143020142Y-106220380D01*
X142923380Y-106172000D01*
X142875000Y-106123619D01*
X142826619Y-106026857D01*
X143165285Y-104817333D02*
X143842619Y-104817333D01*
X142778238Y-105059238D02*
X143503952Y-105301142D01*
X143503952Y-104672190D01*
X142826619Y-104091619D02*
X142826619Y-103994857D01*
X142875000Y-103898095D01*
X142923380Y-103849714D01*
X143020142Y-103801333D01*
X143213666Y-103752952D01*
X143455571Y-103752952D01*
X143649095Y-103801333D01*
X143745857Y-103849714D01*
X143794238Y-103898095D01*
X143842619Y-103994857D01*
X143842619Y-104091619D01*
X143794238Y-104188380D01*
X143745857Y-104236761D01*
X143649095Y-104285142D01*
X143455571Y-104333523D01*
X143213666Y-104333523D01*
X143020142Y-104285142D01*
X142923380Y-104236761D01*
X142875000Y-104188380D01*
X142826619Y-104091619D01*
X143455571Y-103317523D02*
X143455571Y-102543428D01*
X143842619Y-102059619D02*
X142826619Y-102059619D01*
X142826619Y-101672571D01*
X142875000Y-101575809D01*
X142923380Y-101527428D01*
X143020142Y-101479047D01*
X143165285Y-101479047D01*
X143262047Y-101527428D01*
X143310428Y-101575809D01*
X143358809Y-101672571D01*
X143358809Y-102059619D01*
X143842619Y-101043619D02*
X142826619Y-101043619D01*
X143745857Y-99979238D02*
X143794238Y-100027619D01*
X143842619Y-100172761D01*
X143842619Y-100269523D01*
X143794238Y-100414666D01*
X143697476Y-100511428D01*
X143600714Y-100559809D01*
X143407190Y-100608190D01*
X143262047Y-100608190D01*
X143068523Y-100559809D01*
X142971761Y-100511428D01*
X142875000Y-100414666D01*
X142826619Y-100269523D01*
X142826619Y-100172761D01*
X142875000Y-100027619D01*
X142923380Y-99979238D01*
X142826619Y-99350285D02*
X142826619Y-99156761D01*
X142875000Y-99060000D01*
X142971761Y-98963238D01*
X143165285Y-98914857D01*
X143503952Y-98914857D01*
X143697476Y-98963238D01*
X143794238Y-99060000D01*
X143842619Y-99156761D01*
X143842619Y-99350285D01*
X143794238Y-99447047D01*
X143697476Y-99543809D01*
X143503952Y-99592190D01*
X143165285Y-99592190D01*
X142971761Y-99543809D01*
X142875000Y-99447047D01*
X142826619Y-99350285D01*
X142826619Y-98576190D02*
X142826619Y-97947238D01*
X143213666Y-98285904D01*
X143213666Y-98140761D01*
X143262047Y-98044000D01*
X143310428Y-97995619D01*
X143407190Y-97947238D01*
X143649095Y-97947238D01*
X143745857Y-97995619D01*
X143794238Y-98044000D01*
X143842619Y-98140761D01*
X143842619Y-98431047D01*
X143794238Y-98527809D01*
X143745857Y-98576190D01*
X142826619Y-97318285D02*
X142826619Y-97221523D01*
X142875000Y-97124761D01*
X142923380Y-97076380D01*
X143020142Y-97028000D01*
X143213666Y-96979619D01*
X143455571Y-96979619D01*
X143649095Y-97028000D01*
X143745857Y-97076380D01*
X143794238Y-97124761D01*
X143842619Y-97221523D01*
X143842619Y-97318285D01*
X143794238Y-97415047D01*
X143745857Y-97463428D01*
X143649095Y-97511809D01*
X143455571Y-97560190D01*
X143213666Y-97560190D01*
X143020142Y-97511809D01*
X142923380Y-97463428D01*
X142875000Y-97415047D01*
X142826619Y-97318285D01*
X146812000Y-89408000D02*
X147247000Y-88973000D01*
X146229605Y-89408000D02*
G75*
G03*
X146229605Y-89408000I-179605J0D01*
G01*
X153543000Y-89100000D02*
X154105000Y-89100000D01*
X154105000Y-89100000D02*
X154105000Y-89662000D01*
X147447000Y-96320000D02*
X146885000Y-96320000D01*
X146885000Y-96320000D02*
X146885000Y-95758000D01*
X153543000Y-96320000D02*
X154105000Y-96320000D01*
X154105000Y-96320000D02*
X154105000Y-95758000D01*
X145801000Y-107200000D02*
X155199000Y-107200000D01*
G36*
X145801000Y-107200000D02*
G01*
X145801000Y-109254000D01*
X155199000Y-109254000D01*
X155199000Y-107200000D01*
X145801000Y-107200000D01*
G37*
X145801000Y-107200000D02*
X145801000Y-109254000D01*
X155199000Y-109254000D01*
X155199000Y-107200000D01*
X145801000Y-107200000D01*
X154970000Y-69550000D02*
X154970000Y-68250000D01*
X146030000Y-69550000D02*
X146030000Y-68250000D01*
X154970000Y-63682000D02*
X146030000Y-63682000D01*
X146030000Y-63682000D02*
X146030000Y-65550000D01*
X154970000Y-65550000D02*
X154970000Y-63682000D01*
D10*
X148750000Y-70000000D02*
X148750000Y-70750000D01*
X148100000Y-70750000D02*
X148100000Y-70000000D01*
X148750000Y-70750000D02*
X148650000Y-70500000D01*
X148750000Y-70750000D02*
X148850000Y-70500000D01*
X148100000Y-70750000D02*
X148200000Y-70500000D01*
X148100000Y-70750000D02*
X148000000Y-70500000D01*
X147150000Y-70750000D02*
X147250000Y-70500000D01*
X147150000Y-70000000D02*
X147150000Y-70750000D01*
X147150000Y-70750000D02*
X147050000Y-70500000D01*
X149250000Y-70750000D02*
X149350000Y-70500000D01*
X149250000Y-68250000D02*
X149250000Y-70750000D01*
X149250000Y-70750000D02*
X149150000Y-70500000D01*
X149750000Y-70750000D02*
X149850000Y-70500000D01*
X149750000Y-70000000D02*
X149750000Y-70750000D01*
X149750000Y-70750000D02*
X149650000Y-70500000D01*
X150250000Y-70750000D02*
X150350000Y-70500000D01*
X150250000Y-70750000D02*
X150150000Y-70500000D01*
X150250000Y-68250000D02*
X150250000Y-70750000D01*
X150750000Y-70750000D02*
X150650000Y-70500000D01*
X150750000Y-70750000D02*
X150850000Y-70500000D01*
X150750000Y-70000000D02*
X150750000Y-70750000D01*
X151750000Y-70750000D02*
X151850000Y-70500000D01*
X151250000Y-70750000D02*
X151150000Y-70500000D01*
X151750000Y-70750000D02*
X151650000Y-70500000D01*
X151250000Y-70750000D02*
X151350000Y-70500000D01*
X151250000Y-68250000D02*
X151250000Y-70750000D01*
X151750000Y-70000000D02*
X151750000Y-70750000D01*
X152250000Y-70750000D02*
X152350000Y-70500000D01*
X152250000Y-68250000D02*
X152250000Y-70750000D01*
X152900000Y-70000000D02*
X152900000Y-70750000D01*
X152250000Y-70750000D02*
X152150000Y-70500000D01*
X152900000Y-70750000D02*
X153000000Y-70500000D01*
X152900000Y-70750000D02*
X152800000Y-70500000D01*
X153850000Y-70000000D02*
X153850000Y-70750000D01*
X153850000Y-70750000D02*
X153950000Y-70500000D01*
X153850000Y-70750000D02*
X153750000Y-70500000D01*
D11*
X144482600Y-66103000D02*
X143441200Y-66103000D01*
X143555500Y-65937900D02*
X144381000Y-65937900D01*
X144520700Y-66090300D02*
X144393700Y-65950600D01*
X143428500Y-66090300D02*
X143555500Y-65937900D01*
D13*
X144224600Y-67529200D02*
X144334600Y-67659200D01*
X144354600Y-67669200D02*
X144344600Y-67589200D01*
X144354600Y-67669200D02*
X144274600Y-67669200D01*
X144354600Y-67453800D02*
X144274600Y-67453800D01*
X144354600Y-67453800D02*
X144344600Y-67373800D01*
X144245600Y-67322200D02*
X144355600Y-67452200D01*
D14*
X143890000Y-67400000D02*
X144110000Y-67400000D01*
X144110000Y-67590000D02*
X144010000Y-67490000D01*
X143890000Y-67590000D02*
X143990000Y-67480000D01*
X143890000Y-67590000D02*
X144110000Y-67590000D01*
X144000000Y-67760000D02*
X144000000Y-67240000D01*
D10*
X143365000Y-67119000D02*
X143365000Y-66103000D01*
X144584200Y-66103000D02*
X144584200Y-67119000D01*
D11*
X156083000Y-97917000D02*
X155067000Y-97917000D01*
X156083000Y-96393000D02*
X155067000Y-96393000D01*
X152781000Y-105767000D02*
X152781000Y-104751000D01*
X154305000Y-105767000D02*
X154305000Y-104751000D01*
X151257000Y-105767000D02*
X151257000Y-104751000D01*
X152781000Y-105767000D02*
X152781000Y-104751000D01*
X154710000Y-104448000D02*
X154710000Y-104848000D01*
X157710000Y-104448000D02*
X157710000Y-104848000D01*
D15*
X156960000Y-104498000D02*
X157310000Y-104498000D01*
X155460000Y-104498000D02*
X155110000Y-104498000D01*
X156460000Y-104548000D02*
G75*
G02*
X155960000Y-104548000I-250000J0D01*
G01*
X156960000Y-104548000D02*
G75*
G02*
X156460000Y-104548000I-250000J0D01*
G01*
X155960000Y-104548000D02*
G75*
G02*
X155460000Y-104548000I-250000J0D01*
G01*
D11*
X151828500Y-102465000D02*
X151828500Y-102211000D01*
X151828500Y-102465000D02*
X151828500Y-102719000D01*
X152717500Y-102465000D02*
X152717500Y-102719000D01*
X152717500Y-102465000D02*
X152717500Y-102211000D01*
X153987500Y-100433000D02*
X153987500Y-100687000D01*
X153987500Y-100433000D02*
X153987500Y-100179000D01*
X153098500Y-100433000D02*
X153098500Y-100179000D01*
X153098500Y-100433000D02*
X153098500Y-100687000D01*
X148653500Y-105918000D02*
X148653500Y-105664000D01*
X148653500Y-105918000D02*
X148653500Y-106172000D01*
X149542500Y-105918000D02*
X149542500Y-106172000D01*
X149542500Y-105918000D02*
X149542500Y-105664000D01*
X149923500Y-105918000D02*
X149923500Y-105664000D01*
X149923500Y-105918000D02*
X149923500Y-106172000D01*
X150812500Y-105918000D02*
X150812500Y-106172000D01*
X150812500Y-105918000D02*
X150812500Y-105664000D01*
X157480000Y-99771200D02*
X157480000Y-100901500D01*
X154673300Y-99771200D02*
X154673300Y-100901500D01*
X151511000Y-74104500D02*
X151765000Y-74104500D01*
X151511000Y-74104500D02*
X151257000Y-74104500D01*
X151511000Y-74993500D02*
X151257000Y-74993500D01*
X151511000Y-74993500D02*
X151765000Y-74993500D01*
X150431500Y-100457000D02*
X150431500Y-100203000D01*
X150431500Y-100457000D02*
X150431500Y-100711000D01*
X151320500Y-100457000D02*
X151320500Y-100711000D01*
X151320500Y-100457000D02*
X151320500Y-100203000D01*
X145986500Y-88392000D02*
X145986500Y-88646000D01*
X145986500Y-88392000D02*
X145986500Y-88138000D01*
X145097500Y-88392000D02*
X145097500Y-88138000D01*
X145097500Y-88392000D02*
X145097500Y-88646000D01*
X144526000Y-93459300D02*
X144780000Y-93459300D01*
X144526000Y-93459300D02*
X144272000Y-93459300D01*
X144526000Y-94348300D02*
X144272000Y-94348300D01*
X144526000Y-94348300D02*
X144780000Y-94348300D01*
X148399500Y-101092000D02*
X148399500Y-100838000D01*
X148399500Y-101092000D02*
X148399500Y-101346000D01*
X149288500Y-101092000D02*
X149288500Y-101346000D01*
X149288500Y-101092000D02*
X149288500Y-100838000D01*
X156972000Y-93662500D02*
X156718000Y-93662500D01*
X156972000Y-93662500D02*
X157226000Y-93662500D01*
X156972000Y-92773500D02*
X157226000Y-92773500D01*
X156972000Y-92773500D02*
X156718000Y-92773500D01*
X155575000Y-90233500D02*
X155321000Y-90233500D01*
X155575000Y-90233500D02*
X155829000Y-90233500D01*
X155575000Y-89344500D02*
X155829000Y-89344500D01*
X155575000Y-89344500D02*
X155321000Y-89344500D01*
X150812500Y-86106000D02*
X150812500Y-86360000D01*
X150812500Y-86106000D02*
X150812500Y-85852000D01*
X149923500Y-86106000D02*
X149923500Y-85852000D01*
X149923500Y-86106000D02*
X149923500Y-86360000D01*
X149669500Y-86106000D02*
X149669500Y-86360000D01*
X149669500Y-86106000D02*
X149669500Y-85852000D01*
X148780500Y-86106000D02*
X148780500Y-85852000D01*
X148780500Y-86106000D02*
X148780500Y-86360000D01*
X155575000Y-88963500D02*
X155321000Y-88963500D01*
X155575000Y-88963500D02*
X155829000Y-88963500D01*
X155575000Y-88074500D02*
X155829000Y-88074500D01*
X155575000Y-88074500D02*
X155321000Y-88074500D01*
X154559000Y-86233000D02*
X155575000Y-86233000D01*
X154559000Y-87757000D02*
X155575000Y-87757000D01*
X154559000Y-84455000D02*
X155575000Y-84455000D01*
X154559000Y-85979000D02*
X155575000Y-85979000D01*
X149415500Y-101092000D02*
X149415500Y-100838000D01*
X149415500Y-101092000D02*
X149415500Y-101346000D01*
X150304500Y-101092000D02*
X150304500Y-101346000D01*
X150304500Y-101092000D02*
X150304500Y-100838000D01*
X148780500Y-86106000D02*
X148780500Y-86360000D01*
X148780500Y-86106000D02*
X148780500Y-85852000D01*
X147891500Y-86106000D02*
X147891500Y-85852000D01*
X147891500Y-86106000D02*
X147891500Y-86360000D01*
X145796000Y-103695500D02*
X146050000Y-103695500D01*
X145796000Y-103695500D02*
X145542000Y-103695500D01*
X145796000Y-104584500D02*
X145542000Y-104584500D01*
X145796000Y-104584500D02*
X146050000Y-104584500D01*
X145796000Y-98488500D02*
X146050000Y-98488500D01*
X145796000Y-98488500D02*
X145542000Y-98488500D01*
X145796000Y-99377500D02*
X145542000Y-99377500D01*
X145796000Y-99377500D02*
X146050000Y-99377500D01*
X157941000Y-79716000D02*
X157941000Y-74716000D01*
X155241000Y-78346000D02*
X157941000Y-78346000D01*
X155241000Y-74716000D02*
X155241000Y-79716000D01*
X155241000Y-77906000D02*
X157941000Y-77906000D01*
X144526000Y-101219000D02*
X144526000Y-101727000D01*
X147066000Y-101219000D02*
X147066000Y-101727000D01*
X148526500Y-82169000D02*
X148526500Y-82423000D01*
X148526500Y-82169000D02*
X148526500Y-81915000D01*
X147637500Y-82169000D02*
X147637500Y-81915000D01*
X147637500Y-82169000D02*
X147637500Y-82423000D01*
X152717500Y-100457000D02*
X152717500Y-100711000D01*
X152717500Y-100457000D02*
X152717500Y-100203000D01*
X151828500Y-100457000D02*
X151828500Y-100203000D01*
X151828500Y-100457000D02*
X151828500Y-100711000D01*
X148272500Y-101092000D02*
X148272500Y-101346000D01*
X148272500Y-101092000D02*
X148272500Y-100838000D01*
X147383500Y-101092000D02*
X147383500Y-100838000D01*
X147383500Y-101092000D02*
X147383500Y-101346000D01*
X148526500Y-78994000D02*
X148526500Y-79248000D01*
X148526500Y-78994000D02*
X148526500Y-78740000D01*
X147637500Y-78994000D02*
X147637500Y-78740000D01*
X147637500Y-78994000D02*
X147637500Y-79248000D01*
X152209500Y-86106000D02*
X152209500Y-85852000D01*
X152209500Y-86106000D02*
X152209500Y-86360000D01*
X153098500Y-86106000D02*
X153098500Y-86360000D01*
X153098500Y-86106000D02*
X153098500Y-85852000D01*
X151066500Y-86106000D02*
X151066500Y-85852000D01*
X151066500Y-86106000D02*
X151066500Y-86360000D01*
X151955500Y-86106000D02*
X151955500Y-86360000D01*
X151955500Y-86106000D02*
X151955500Y-85852000D01*
X143764000Y-70469500D02*
X143510000Y-70469500D01*
X143764000Y-70469500D02*
X144018000Y-70469500D01*
X143764000Y-69580500D02*
X144018000Y-69580500D01*
X143764000Y-69580500D02*
X143510000Y-69580500D01*
X149875240Y-77602080D02*
X154670760Y-77602080D01*
X150139400Y-81401920D02*
X149875240Y-81135220D01*
X154670760Y-81401920D02*
X150139400Y-81401920D01*
X149860000Y-77597000D02*
X149860000Y-81153000D01*
X154686000Y-77597000D02*
X154686000Y-81407000D01*
X149635981Y-82804000D02*
G75*
G03*
X149635981Y-82804000I-283981J0D01*
G01*
X150778981Y-80772000D02*
G75*
G03*
X150778981Y-80772000I-283981J0D01*
G01*
X153987500Y-102489000D02*
X153987500Y-102235000D01*
X153987500Y-102489000D02*
X153987500Y-102743000D01*
X153098500Y-102489000D02*
X153098500Y-102743000D01*
X153098500Y-102489000D02*
X153098500Y-102235000D01*
X155511500Y-82931000D02*
X155511500Y-83185000D01*
X155511500Y-82931000D02*
X155511500Y-82677000D01*
X156400500Y-82931000D02*
X156400500Y-82677000D01*
X156400500Y-82931000D02*
X156400500Y-83185000D01*
X156527500Y-82931000D02*
X156527500Y-82677000D01*
X156527500Y-82931000D02*
X156527500Y-83185000D01*
X157416500Y-82931000D02*
X157416500Y-83185000D01*
X157416500Y-82931000D02*
X157416500Y-82677000D01*
X147200000Y-75495000D02*
X147200000Y-79695000D01*
X147200000Y-79695000D02*
X147100000Y-79695000D01*
X147200000Y-75495000D02*
X147100000Y-75495000D01*
X143900000Y-75495000D02*
X143800000Y-75495000D01*
X143800000Y-75495000D02*
X143800000Y-79695000D01*
X143800000Y-79695000D02*
X143900000Y-79695000D01*
X145000000Y-79695000D02*
X146000000Y-79695000D01*
X145000000Y-75495000D02*
X146000000Y-75495000D01*
X147200000Y-82400000D02*
X147200000Y-86600000D01*
X147200000Y-86600000D02*
X147100000Y-86600000D01*
X147200000Y-82400000D02*
X147100000Y-82400000D01*
X143900000Y-82400000D02*
X143800000Y-82400000D01*
X143800000Y-82400000D02*
X143800000Y-86600000D01*
X143800000Y-86600000D02*
X143900000Y-86600000D01*
X145000000Y-86600000D02*
X146000000Y-86600000D01*
X145000000Y-82400000D02*
X146000000Y-82400000D01*
D16*
X144254000Y-71238000D02*
X143746000Y-71238000D01*
X143492000Y-71492000D02*
X143492000Y-72508000D01*
X143746000Y-72762000D02*
X144254000Y-72762000D01*
X144508000Y-72508000D02*
X144508000Y-71492000D01*
D17*
X143746000Y-71238000D02*
G75*
G03*
X143492000Y-71492000I0J-254000D01*
G01*
X143492000Y-72508000D02*
G75*
G03*
X143746000Y-72762000I254000J0D01*
G01*
X144254000Y-72762000D02*
G75*
G03*
X144508000Y-72508000I0J254000D01*
G01*
X144508000Y-71492000D02*
G75*
G03*
X144254000Y-71238000I-254000J0D01*
G01*
D11*
X148526500Y-75946000D02*
X148526500Y-76200000D01*
X148526500Y-75946000D02*
X148526500Y-75692000D01*
X147637500Y-75946000D02*
X147637500Y-75692000D01*
X147637500Y-75946000D02*
X147637500Y-76200000D01*
X154305000Y-74993500D02*
X154559000Y-74993500D01*
X154305000Y-74993500D02*
X154051000Y-74993500D01*
X154305000Y-74104500D02*
X154051000Y-74104500D01*
X154305000Y-74104500D02*
X154559000Y-74104500D01*
X146571304Y-87454619D02*
X146571304Y-88277095D01*
X146619685Y-88373857D01*
X146668066Y-88422238D01*
X146764828Y-88470619D01*
X146958352Y-88470619D01*
X147055114Y-88422238D01*
X147103495Y-88373857D01*
X147151876Y-88277095D01*
X147151876Y-87454619D01*
X147587304Y-87551380D02*
X147635685Y-87503000D01*
X147732447Y-87454619D01*
X147974352Y-87454619D01*
X148071114Y-87503000D01*
X148119495Y-87551380D01*
X148167876Y-87648142D01*
X148167876Y-87744904D01*
X148119495Y-87890047D01*
X147538923Y-88470619D01*
X148167876Y-88470619D01*
D18*
X148251333Y-111823500D02*
X148251333Y-112712500D01*
X148251333Y-111865833D02*
X148336000Y-111823500D01*
X148505333Y-111823500D01*
X148590000Y-111865833D01*
X148632333Y-111908166D01*
X148674666Y-111992833D01*
X148674666Y-112246833D01*
X148632333Y-112331500D01*
X148590000Y-112373833D01*
X148505333Y-112416166D01*
X148336000Y-112416166D01*
X148251333Y-112373833D01*
X149055666Y-111527166D02*
X149055666Y-112246833D01*
X149098000Y-112331500D01*
X149140333Y-112373833D01*
X149225000Y-112416166D01*
X149394333Y-112416166D01*
X149479000Y-112373833D01*
X149521333Y-112331500D01*
X149563666Y-112246833D01*
X149563666Y-111527166D01*
X149987000Y-111950500D02*
X150283333Y-111950500D01*
X150410333Y-112416166D02*
X149987000Y-112416166D01*
X149987000Y-111527166D01*
X150410333Y-111527166D01*
X150706666Y-111527166D02*
X151299333Y-112416166D01*
X151299333Y-111527166D02*
X150706666Y-112416166D01*
X151511000Y-111527166D02*
X152019000Y-111527166D01*
X151765000Y-112416166D02*
X151765000Y-111527166D01*
X152781000Y-112416166D02*
X152273000Y-112416166D01*
X152527000Y-112416166D02*
X152527000Y-111527166D01*
X152442333Y-111654166D01*
X152357666Y-111738833D01*
X152273000Y-111781166D01*
D11*
X146594285Y-112481619D02*
X146013714Y-112481619D01*
X146304000Y-112481619D02*
X146304000Y-111465619D01*
X146207238Y-111610761D01*
X146110476Y-111707523D01*
X146013714Y-111755904D01*
X147973142Y-72722619D02*
X147973142Y-73545095D01*
X148021523Y-73641857D01*
X148069904Y-73690238D01*
X148166666Y-73738619D01*
X148360190Y-73738619D01*
X148456952Y-73690238D01*
X148505333Y-73641857D01*
X148553714Y-73545095D01*
X148553714Y-72722619D01*
X148989142Y-73690238D02*
X149134285Y-73738619D01*
X149376190Y-73738619D01*
X149472952Y-73690238D01*
X149521333Y-73641857D01*
X149569714Y-73545095D01*
X149569714Y-73448333D01*
X149521333Y-73351571D01*
X149472952Y-73303190D01*
X149376190Y-73254809D01*
X149182666Y-73206428D01*
X149085904Y-73158047D01*
X149037523Y-73109666D01*
X148989142Y-73012904D01*
X148989142Y-72916142D01*
X149037523Y-72819380D01*
X149085904Y-72771000D01*
X149182666Y-72722619D01*
X149424571Y-72722619D01*
X149569714Y-72771000D01*
X150343809Y-73206428D02*
X150488952Y-73254809D01*
X150537333Y-73303190D01*
X150585714Y-73399952D01*
X150585714Y-73545095D01*
X150537333Y-73641857D01*
X150488952Y-73690238D01*
X150392190Y-73738619D01*
X150005142Y-73738619D01*
X150005142Y-72722619D01*
X150343809Y-72722619D01*
X150440571Y-72771000D01*
X150488952Y-72819380D01*
X150537333Y-72916142D01*
X150537333Y-73012904D01*
X150488952Y-73109666D01*
X150440571Y-73158047D01*
X150343809Y-73206428D01*
X150005142Y-73206428D01*
X151021142Y-73351571D02*
X151795238Y-73351571D01*
X152859619Y-73641857D02*
X152811238Y-73690238D01*
X152666095Y-73738619D01*
X152569333Y-73738619D01*
X152424190Y-73690238D01*
X152327428Y-73593476D01*
X152279047Y-73496714D01*
X152230666Y-73303190D01*
X152230666Y-73158047D01*
X152279047Y-72964523D01*
X152327428Y-72867761D01*
X152424190Y-72771000D01*
X152569333Y-72722619D01*
X152666095Y-72722619D01*
X152811238Y-72771000D01*
X152859619Y-72819380D01*
X153827238Y-73738619D02*
X153246666Y-73738619D01*
X153536952Y-73738619D02*
X153536952Y-72722619D01*
X153440190Y-72867761D01*
X153343428Y-72964523D01*
X153246666Y-73012904D01*
D10*
X153496000Y-69387047D02*
X153471809Y-69435428D01*
X153471809Y-69508000D01*
X153496000Y-69580571D01*
X153544380Y-69628952D01*
X153592761Y-69653142D01*
X153689523Y-69677333D01*
X153762095Y-69677333D01*
X153858857Y-69653142D01*
X153907238Y-69628952D01*
X153955619Y-69580571D01*
X153979809Y-69508000D01*
X153979809Y-69459619D01*
X153955619Y-69387047D01*
X153931428Y-69362857D01*
X153762095Y-69362857D01*
X153762095Y-69459619D01*
X153979809Y-69145142D02*
X153471809Y-69145142D01*
X153979809Y-68854857D01*
X153471809Y-68854857D01*
X153979809Y-68612952D02*
X153471809Y-68612952D01*
X153471809Y-68492000D01*
X153496000Y-68419428D01*
X153544380Y-68371047D01*
X153592761Y-68346857D01*
X153689523Y-68322666D01*
X153762095Y-68322666D01*
X153858857Y-68346857D01*
X153907238Y-68371047D01*
X153955619Y-68419428D01*
X153979809Y-68492000D01*
X153979809Y-68612952D01*
X152721809Y-69681333D02*
X153229809Y-69512000D01*
X152721809Y-69342666D01*
X152963714Y-69004000D02*
X152987904Y-68931428D01*
X153012095Y-68907238D01*
X153060476Y-68883047D01*
X153133047Y-68883047D01*
X153181428Y-68907238D01*
X153205619Y-68931428D01*
X153229809Y-68979809D01*
X153229809Y-69173333D01*
X152721809Y-69173333D01*
X152721809Y-69004000D01*
X152746000Y-68955619D01*
X152770190Y-68931428D01*
X152818571Y-68907238D01*
X152866952Y-68907238D01*
X152915333Y-68931428D01*
X152939523Y-68955619D01*
X152963714Y-69004000D01*
X152963714Y-69173333D01*
X152721809Y-68665333D02*
X153133047Y-68665333D01*
X153181428Y-68641142D01*
X153205619Y-68616952D01*
X153229809Y-68568571D01*
X153229809Y-68471809D01*
X153205619Y-68423428D01*
X153181428Y-68399238D01*
X153133047Y-68375047D01*
X152721809Y-68375047D01*
X153205619Y-68157333D02*
X153229809Y-68084761D01*
X153229809Y-67963809D01*
X153205619Y-67915428D01*
X153181428Y-67891238D01*
X153133047Y-67867047D01*
X153084666Y-67867047D01*
X153036285Y-67891238D01*
X153012095Y-67915428D01*
X152987904Y-67963809D01*
X152963714Y-68060571D01*
X152939523Y-68108952D01*
X152915333Y-68133142D01*
X152866952Y-68157333D01*
X152818571Y-68157333D01*
X152770190Y-68133142D01*
X152746000Y-68108952D01*
X152721809Y-68060571D01*
X152721809Y-67939619D01*
X152746000Y-67867047D01*
X152455619Y-67907142D02*
X152479809Y-67834571D01*
X152479809Y-67713619D01*
X152455619Y-67665238D01*
X152431428Y-67641047D01*
X152383047Y-67616857D01*
X152334666Y-67616857D01*
X152286285Y-67641047D01*
X152262095Y-67665238D01*
X152237904Y-67713619D01*
X152213714Y-67810380D01*
X152189523Y-67858761D01*
X152165333Y-67882952D01*
X152116952Y-67907142D01*
X152068571Y-67907142D01*
X152020190Y-67882952D01*
X151996000Y-67858761D01*
X151971809Y-67810380D01*
X151971809Y-67689428D01*
X151996000Y-67616857D01*
X152213714Y-67229809D02*
X152237904Y-67157238D01*
X152262095Y-67133047D01*
X152310476Y-67108857D01*
X152383047Y-67108857D01*
X152431428Y-67133047D01*
X152455619Y-67157238D01*
X152479809Y-67205619D01*
X152479809Y-67399142D01*
X151971809Y-67399142D01*
X151971809Y-67229809D01*
X151996000Y-67181428D01*
X152020190Y-67157238D01*
X152068571Y-67133047D01*
X152116952Y-67133047D01*
X152165333Y-67157238D01*
X152189523Y-67181428D01*
X152213714Y-67229809D01*
X152213714Y-67399142D01*
X151971809Y-66891142D02*
X152383047Y-66891142D01*
X152431428Y-66866952D01*
X152455619Y-66842761D01*
X152479809Y-66794380D01*
X152479809Y-66697619D01*
X152455619Y-66649238D01*
X152431428Y-66625047D01*
X152383047Y-66600857D01*
X151971809Y-66600857D01*
X152020190Y-66383142D02*
X151996000Y-66358952D01*
X151971809Y-66310571D01*
X151971809Y-66189619D01*
X151996000Y-66141238D01*
X152020190Y-66117047D01*
X152068571Y-66092857D01*
X152116952Y-66092857D01*
X152189523Y-66117047D01*
X152479809Y-66407333D01*
X152479809Y-66092857D01*
X151931428Y-69338666D02*
X151955619Y-69362857D01*
X151979809Y-69435428D01*
X151979809Y-69483809D01*
X151955619Y-69556380D01*
X151907238Y-69604761D01*
X151858857Y-69628952D01*
X151762095Y-69653142D01*
X151689523Y-69653142D01*
X151592761Y-69628952D01*
X151544380Y-69604761D01*
X151496000Y-69556380D01*
X151471809Y-69483809D01*
X151471809Y-69435428D01*
X151496000Y-69362857D01*
X151520190Y-69338666D01*
X151931428Y-68830666D02*
X151955619Y-68854857D01*
X151979809Y-68927428D01*
X151979809Y-68975809D01*
X151955619Y-69048380D01*
X151907238Y-69096761D01*
X151858857Y-69120952D01*
X151762095Y-69145142D01*
X151689523Y-69145142D01*
X151592761Y-69120952D01*
X151544380Y-69096761D01*
X151496000Y-69048380D01*
X151471809Y-68975809D01*
X151471809Y-68927428D01*
X151496000Y-68854857D01*
X151520190Y-68830666D01*
X151979809Y-68346857D02*
X151979809Y-68637142D01*
X151979809Y-68492000D02*
X151471809Y-68492000D01*
X151544380Y-68540380D01*
X151592761Y-68588761D01*
X151616952Y-68637142D01*
X151479809Y-67891047D02*
X150971809Y-67891047D01*
X150971809Y-67770095D01*
X150996000Y-67697523D01*
X151044380Y-67649142D01*
X151092761Y-67624952D01*
X151189523Y-67600761D01*
X151262095Y-67600761D01*
X151358857Y-67624952D01*
X151407238Y-67649142D01*
X151455619Y-67697523D01*
X151479809Y-67770095D01*
X151479809Y-67891047D01*
X151479809Y-67383047D02*
X150971809Y-67383047D01*
X151479809Y-67092761D01*
X150971809Y-67092761D01*
X151020190Y-66875047D02*
X150996000Y-66850857D01*
X150971809Y-66802476D01*
X150971809Y-66681523D01*
X150996000Y-66633142D01*
X151020190Y-66608952D01*
X151068571Y-66584761D01*
X151116952Y-66584761D01*
X151189523Y-66608952D01*
X151479809Y-66899238D01*
X151479809Y-66584761D01*
X150979809Y-69628952D02*
X150471809Y-69628952D01*
X150471809Y-69508000D01*
X150496000Y-69435428D01*
X150544380Y-69387047D01*
X150592761Y-69362857D01*
X150689523Y-69338666D01*
X150762095Y-69338666D01*
X150858857Y-69362857D01*
X150907238Y-69387047D01*
X150955619Y-69435428D01*
X150979809Y-69508000D01*
X150979809Y-69628952D01*
X150979809Y-69120952D02*
X150471809Y-69120952D01*
X150471809Y-68927428D01*
X150496000Y-68879047D01*
X150520190Y-68854857D01*
X150568571Y-68830666D01*
X150641142Y-68830666D01*
X150689523Y-68854857D01*
X150713714Y-68879047D01*
X150737904Y-68927428D01*
X150737904Y-69120952D01*
X150979809Y-68346857D02*
X150979809Y-68637142D01*
X150979809Y-68492000D02*
X150471809Y-68492000D01*
X150544380Y-68540380D01*
X150592761Y-68588761D01*
X150616952Y-68637142D01*
X150479809Y-67891047D02*
X149971809Y-67891047D01*
X149971809Y-67770095D01*
X149996000Y-67697523D01*
X150044380Y-67649142D01*
X150092761Y-67624952D01*
X150189523Y-67600761D01*
X150262095Y-67600761D01*
X150358857Y-67624952D01*
X150407238Y-67649142D01*
X150455619Y-67697523D01*
X150479809Y-67770095D01*
X150479809Y-67891047D01*
X150479809Y-67383047D02*
X149971809Y-67383047D01*
X150479809Y-67092761D01*
X149971809Y-67092761D01*
X150479809Y-66584761D02*
X150479809Y-66875047D01*
X150479809Y-66729904D02*
X149971809Y-66729904D01*
X150044380Y-66778285D01*
X150092761Y-66826666D01*
X150116952Y-66875047D01*
X149979809Y-69628952D02*
X149471809Y-69628952D01*
X149471809Y-69508000D01*
X149496000Y-69435428D01*
X149544380Y-69387047D01*
X149592761Y-69362857D01*
X149689523Y-69338666D01*
X149762095Y-69338666D01*
X149858857Y-69362857D01*
X149907238Y-69387047D01*
X149955619Y-69435428D01*
X149979809Y-69508000D01*
X149979809Y-69628952D01*
X149979809Y-69120952D02*
X149471809Y-69120952D01*
X149471809Y-68927428D01*
X149496000Y-68879047D01*
X149520190Y-68854857D01*
X149568571Y-68830666D01*
X149641142Y-68830666D01*
X149689523Y-68854857D01*
X149713714Y-68879047D01*
X149737904Y-68927428D01*
X149737904Y-69120952D01*
X149520190Y-68637142D02*
X149496000Y-68612952D01*
X149471809Y-68564571D01*
X149471809Y-68443619D01*
X149496000Y-68395238D01*
X149520190Y-68371047D01*
X149568571Y-68346857D01*
X149616952Y-68346857D01*
X149689523Y-68371047D01*
X149979809Y-68661333D01*
X149979809Y-68346857D01*
X149455619Y-67907142D02*
X149479809Y-67834571D01*
X149479809Y-67713619D01*
X149455619Y-67665238D01*
X149431428Y-67641047D01*
X149383047Y-67616857D01*
X149334666Y-67616857D01*
X149286285Y-67641047D01*
X149262095Y-67665238D01*
X149237904Y-67713619D01*
X149213714Y-67810380D01*
X149189523Y-67858761D01*
X149165333Y-67882952D01*
X149116952Y-67907142D01*
X149068571Y-67907142D01*
X149020190Y-67882952D01*
X148996000Y-67858761D01*
X148971809Y-67810380D01*
X148971809Y-67689428D01*
X148996000Y-67616857D01*
X149213714Y-67229809D02*
X149237904Y-67157238D01*
X149262095Y-67133047D01*
X149310476Y-67108857D01*
X149383047Y-67108857D01*
X149431428Y-67133047D01*
X149455619Y-67157238D01*
X149479809Y-67205619D01*
X149479809Y-67399142D01*
X148971809Y-67399142D01*
X148971809Y-67229809D01*
X148996000Y-67181428D01*
X149020190Y-67157238D01*
X149068571Y-67133047D01*
X149116952Y-67133047D01*
X149165333Y-67157238D01*
X149189523Y-67181428D01*
X149213714Y-67229809D01*
X149213714Y-67399142D01*
X148971809Y-66891142D02*
X149383047Y-66891142D01*
X149431428Y-66866952D01*
X149455619Y-66842761D01*
X149479809Y-66794380D01*
X149479809Y-66697619D01*
X149455619Y-66649238D01*
X149431428Y-66625047D01*
X149383047Y-66600857D01*
X148971809Y-66600857D01*
X149479809Y-66092857D02*
X149479809Y-66383142D01*
X149479809Y-66238000D02*
X148971809Y-66238000D01*
X149044380Y-66286380D01*
X149092761Y-66334761D01*
X149116952Y-66383142D01*
X148931428Y-69338666D02*
X148955619Y-69362857D01*
X148979809Y-69435428D01*
X148979809Y-69483809D01*
X148955619Y-69556380D01*
X148907238Y-69604761D01*
X148858857Y-69628952D01*
X148762095Y-69653142D01*
X148689523Y-69653142D01*
X148592761Y-69628952D01*
X148544380Y-69604761D01*
X148496000Y-69556380D01*
X148471809Y-69483809D01*
X148471809Y-69435428D01*
X148496000Y-69362857D01*
X148520190Y-69338666D01*
X148931428Y-68830666D02*
X148955619Y-68854857D01*
X148979809Y-68927428D01*
X148979809Y-68975809D01*
X148955619Y-69048380D01*
X148907238Y-69096761D01*
X148858857Y-69120952D01*
X148762095Y-69145142D01*
X148689523Y-69145142D01*
X148592761Y-69120952D01*
X148544380Y-69096761D01*
X148496000Y-69048380D01*
X148471809Y-68975809D01*
X148471809Y-68927428D01*
X148496000Y-68854857D01*
X148520190Y-68830666D01*
X148520190Y-68637142D02*
X148496000Y-68612952D01*
X148471809Y-68564571D01*
X148471809Y-68443619D01*
X148496000Y-68395238D01*
X148520190Y-68371047D01*
X148568571Y-68346857D01*
X148616952Y-68346857D01*
X148689523Y-68371047D01*
X148979809Y-68661333D01*
X148979809Y-68346857D01*
X147721809Y-69681333D02*
X148229809Y-69512000D01*
X147721809Y-69342666D01*
X147963714Y-69004000D02*
X147987904Y-68931428D01*
X148012095Y-68907238D01*
X148060476Y-68883047D01*
X148133047Y-68883047D01*
X148181428Y-68907238D01*
X148205619Y-68931428D01*
X148229809Y-68979809D01*
X148229809Y-69173333D01*
X147721809Y-69173333D01*
X147721809Y-69004000D01*
X147746000Y-68955619D01*
X147770190Y-68931428D01*
X147818571Y-68907238D01*
X147866952Y-68907238D01*
X147915333Y-68931428D01*
X147939523Y-68955619D01*
X147963714Y-69004000D01*
X147963714Y-69173333D01*
X147721809Y-68665333D02*
X148133047Y-68665333D01*
X148181428Y-68641142D01*
X148205619Y-68616952D01*
X148229809Y-68568571D01*
X148229809Y-68471809D01*
X148205619Y-68423428D01*
X148181428Y-68399238D01*
X148133047Y-68375047D01*
X147721809Y-68375047D01*
X148205619Y-68157333D02*
X148229809Y-68084761D01*
X148229809Y-67963809D01*
X148205619Y-67915428D01*
X148181428Y-67891238D01*
X148133047Y-67867047D01*
X148084666Y-67867047D01*
X148036285Y-67891238D01*
X148012095Y-67915428D01*
X147987904Y-67963809D01*
X147963714Y-68060571D01*
X147939523Y-68108952D01*
X147915333Y-68133142D01*
X147866952Y-68157333D01*
X147818571Y-68157333D01*
X147770190Y-68133142D01*
X147746000Y-68108952D01*
X147721809Y-68060571D01*
X147721809Y-67939619D01*
X147746000Y-67867047D01*
X146996000Y-69387047D02*
X146971809Y-69435428D01*
X146971809Y-69508000D01*
X146996000Y-69580571D01*
X147044380Y-69628952D01*
X147092761Y-69653142D01*
X147189523Y-69677333D01*
X147262095Y-69677333D01*
X147358857Y-69653142D01*
X147407238Y-69628952D01*
X147455619Y-69580571D01*
X147479809Y-69508000D01*
X147479809Y-69459619D01*
X147455619Y-69387047D01*
X147431428Y-69362857D01*
X147262095Y-69362857D01*
X147262095Y-69459619D01*
X147479809Y-69145142D02*
X146971809Y-69145142D01*
X147479809Y-68854857D01*
X146971809Y-68854857D01*
X147479809Y-68612952D02*
X146971809Y-68612952D01*
X146971809Y-68492000D01*
X146996000Y-68419428D01*
X147044380Y-68371047D01*
X147092761Y-68346857D01*
X147189523Y-68322666D01*
X147262095Y-68322666D01*
X147358857Y-68346857D01*
X147407238Y-68371047D01*
X147455619Y-68419428D01*
X147479809Y-68492000D01*
X147479809Y-68612952D01*
D18*
X143277166Y-65680166D02*
X142853833Y-65680166D01*
X142853833Y-64791166D01*
X143573500Y-65214500D02*
X143869833Y-65214500D01*
X143996833Y-65680166D02*
X143573500Y-65680166D01*
X143573500Y-64791166D01*
X143996833Y-64791166D01*
X144377833Y-65680166D02*
X144377833Y-64791166D01*
X144589500Y-64791166D01*
X144716500Y-64833500D01*
X144801166Y-64918166D01*
X144843500Y-65002833D01*
X144885833Y-65172166D01*
X144885833Y-65299166D01*
X144843500Y-65468500D01*
X144801166Y-65553166D01*
X144716500Y-65637833D01*
X144589500Y-65680166D01*
X144377833Y-65680166D01*
X145732500Y-65680166D02*
X145224500Y-65680166D01*
X145478500Y-65680166D02*
X145478500Y-64791166D01*
X145393833Y-64918166D01*
X145309166Y-65002833D01*
X145224500Y-65045166D01*
D19*
X158006142Y-97644857D02*
X158042428Y-97681142D01*
X158078714Y-97790000D01*
X158078714Y-97862571D01*
X158042428Y-97971428D01*
X157969857Y-98044000D01*
X157897285Y-98080285D01*
X157752142Y-98116571D01*
X157643285Y-98116571D01*
X157498142Y-98080285D01*
X157425571Y-98044000D01*
X157353000Y-97971428D01*
X157316714Y-97862571D01*
X157316714Y-97790000D01*
X157353000Y-97681142D01*
X157389285Y-97644857D01*
X158078714Y-96919142D02*
X158078714Y-97354571D01*
X158078714Y-97136857D02*
X157316714Y-97136857D01*
X157425571Y-97209428D01*
X157498142Y-97282000D01*
X157534428Y-97354571D01*
X157316714Y-96665142D02*
X157316714Y-96157142D01*
X158078714Y-96483714D01*
X148290642Y-106407857D02*
X148326928Y-106444142D01*
X148363214Y-106553000D01*
X148363214Y-106625571D01*
X148326928Y-106734428D01*
X148254357Y-106807000D01*
X148181785Y-106843285D01*
X148036642Y-106879571D01*
X147927785Y-106879571D01*
X147782642Y-106843285D01*
X147710071Y-106807000D01*
X147637500Y-106734428D01*
X147601214Y-106625571D01*
X147601214Y-106553000D01*
X147637500Y-106444142D01*
X147673785Y-106407857D01*
X148363214Y-105682142D02*
X148363214Y-106117571D01*
X148363214Y-105899857D02*
X147601214Y-105899857D01*
X147710071Y-105972428D01*
X147782642Y-106045000D01*
X147818928Y-106117571D01*
X147927785Y-105246714D02*
X147891500Y-105319285D01*
X147855214Y-105355571D01*
X147782642Y-105391857D01*
X147746357Y-105391857D01*
X147673785Y-105355571D01*
X147637500Y-105319285D01*
X147601214Y-105246714D01*
X147601214Y-105101571D01*
X147637500Y-105029000D01*
X147673785Y-104992714D01*
X147746357Y-104956428D01*
X147782642Y-104956428D01*
X147855214Y-104992714D01*
X147891500Y-105029000D01*
X147927785Y-105101571D01*
X147927785Y-105246714D01*
X147964071Y-105319285D01*
X148000357Y-105355571D01*
X148072928Y-105391857D01*
X148218071Y-105391857D01*
X148290642Y-105355571D01*
X148326928Y-105319285D01*
X148363214Y-105246714D01*
X148363214Y-105101571D01*
X148326928Y-105029000D01*
X148290642Y-104992714D01*
X148218071Y-104956428D01*
X148072928Y-104956428D01*
X148000357Y-104992714D01*
X147964071Y-105029000D01*
X147927785Y-105101571D01*
X147211142Y-106407857D02*
X147247428Y-106444142D01*
X147283714Y-106553000D01*
X147283714Y-106625571D01*
X147247428Y-106734428D01*
X147174857Y-106807000D01*
X147102285Y-106843285D01*
X146957142Y-106879571D01*
X146848285Y-106879571D01*
X146703142Y-106843285D01*
X146630571Y-106807000D01*
X146558000Y-106734428D01*
X146521714Y-106625571D01*
X146521714Y-106553000D01*
X146558000Y-106444142D01*
X146594285Y-106407857D01*
X147283714Y-105682142D02*
X147283714Y-106117571D01*
X147283714Y-105899857D02*
X146521714Y-105899857D01*
X146630571Y-105972428D01*
X146703142Y-106045000D01*
X146739428Y-106117571D01*
X147283714Y-105319285D02*
X147283714Y-105174142D01*
X147247428Y-105101571D01*
X147211142Y-105065285D01*
X147102285Y-104992714D01*
X146957142Y-104956428D01*
X146666857Y-104956428D01*
X146594285Y-104992714D01*
X146558000Y-105029000D01*
X146521714Y-105101571D01*
X146521714Y-105246714D01*
X146558000Y-105319285D01*
X146594285Y-105355571D01*
X146666857Y-105391857D01*
X146848285Y-105391857D01*
X146920857Y-105355571D01*
X146957142Y-105319285D01*
X146993428Y-105246714D01*
X146993428Y-105101571D01*
X146957142Y-105029000D01*
X146920857Y-104992714D01*
X146848285Y-104956428D01*
X158269214Y-107442000D02*
X158269214Y-107804857D01*
X157507214Y-107804857D01*
X158269214Y-106788857D02*
X158269214Y-107224285D01*
X158269214Y-107006571D02*
X157507214Y-107006571D01*
X157616071Y-107079142D01*
X157688642Y-107151714D01*
X157724928Y-107224285D01*
X151220714Y-103359857D02*
X150857857Y-103613857D01*
X151220714Y-103795285D02*
X150458714Y-103795285D01*
X150458714Y-103505000D01*
X150495000Y-103432428D01*
X150531285Y-103396142D01*
X150603857Y-103359857D01*
X150712714Y-103359857D01*
X150785285Y-103396142D01*
X150821571Y-103432428D01*
X150857857Y-103505000D01*
X150857857Y-103795285D01*
X151220714Y-102634142D02*
X151220714Y-103069571D01*
X151220714Y-102851857D02*
X150458714Y-102851857D01*
X150567571Y-102924428D01*
X150640142Y-102997000D01*
X150676428Y-103069571D01*
X150531285Y-102343857D02*
X150495000Y-102307571D01*
X150458714Y-102235000D01*
X150458714Y-102053571D01*
X150495000Y-101981000D01*
X150531285Y-101944714D01*
X150603857Y-101908428D01*
X150676428Y-101908428D01*
X150785285Y-101944714D01*
X151220714Y-102380142D01*
X151220714Y-101908428D01*
D20*
X153525461Y-98376014D02*
X153223080Y-98587680D01*
X153525461Y-98738871D02*
X152890461Y-98738871D01*
X152890461Y-98496966D01*
X152920700Y-98436490D01*
X152950938Y-98406252D01*
X153011414Y-98376014D01*
X153102128Y-98376014D01*
X153162604Y-98406252D01*
X153192842Y-98436490D01*
X153223080Y-98496966D01*
X153223080Y-98738871D01*
X153525461Y-97771252D02*
X153525461Y-98134109D01*
X153525461Y-97952680D02*
X152890461Y-97952680D01*
X152981176Y-98013157D01*
X153041652Y-98073633D01*
X153071890Y-98134109D01*
X152890461Y-97559585D02*
X152890461Y-97166490D01*
X153132366Y-97378157D01*
X153132366Y-97287442D01*
X153162604Y-97226966D01*
X153192842Y-97196728D01*
X153253319Y-97166490D01*
X153404509Y-97166490D01*
X153464985Y-97196728D01*
X153495223Y-97226966D01*
X153525461Y-97287442D01*
X153525461Y-97468871D01*
X153495223Y-97529347D01*
X153464985Y-97559585D01*
D19*
X145124714Y-106407857D02*
X144761857Y-106661857D01*
X145124714Y-106843285D02*
X144362714Y-106843285D01*
X144362714Y-106553000D01*
X144399000Y-106480428D01*
X144435285Y-106444142D01*
X144507857Y-106407857D01*
X144616714Y-106407857D01*
X144689285Y-106444142D01*
X144725571Y-106480428D01*
X144761857Y-106553000D01*
X144761857Y-106843285D01*
X145124714Y-105682142D02*
X145124714Y-106117571D01*
X145124714Y-105899857D02*
X144362714Y-105899857D01*
X144471571Y-105972428D01*
X144544142Y-106045000D01*
X144580428Y-106117571D01*
X144362714Y-104992714D02*
X144362714Y-105355571D01*
X144725571Y-105391857D01*
X144689285Y-105355571D01*
X144653000Y-105283000D01*
X144653000Y-105101571D01*
X144689285Y-105029000D01*
X144725571Y-104992714D01*
X144798142Y-104956428D01*
X144979571Y-104956428D01*
X145052142Y-104992714D01*
X145088428Y-105029000D01*
X145124714Y-105101571D01*
X145124714Y-105283000D01*
X145088428Y-105355571D01*
X145052142Y-105391857D01*
X146204214Y-106407857D02*
X145841357Y-106661857D01*
X146204214Y-106843285D02*
X145442214Y-106843285D01*
X145442214Y-106553000D01*
X145478500Y-106480428D01*
X145514785Y-106444142D01*
X145587357Y-106407857D01*
X145696214Y-106407857D01*
X145768785Y-106444142D01*
X145805071Y-106480428D01*
X145841357Y-106553000D01*
X145841357Y-106843285D01*
X146204214Y-105682142D02*
X146204214Y-106117571D01*
X146204214Y-105899857D02*
X145442214Y-105899857D01*
X145551071Y-105972428D01*
X145623642Y-106045000D01*
X145659928Y-106117571D01*
X145442214Y-105029000D02*
X145442214Y-105174142D01*
X145478500Y-105246714D01*
X145514785Y-105283000D01*
X145623642Y-105355571D01*
X145768785Y-105391857D01*
X146059071Y-105391857D01*
X146131642Y-105355571D01*
X146167928Y-105319285D01*
X146204214Y-105246714D01*
X146204214Y-105101571D01*
X146167928Y-105029000D01*
X146131642Y-104992714D01*
X146059071Y-104956428D01*
X145877642Y-104956428D01*
X145805071Y-104992714D01*
X145768785Y-105029000D01*
X145732500Y-105101571D01*
X145732500Y-105246714D01*
X145768785Y-105319285D01*
X145805071Y-105355571D01*
X145877642Y-105391857D01*
X157507214Y-102434571D02*
X158124071Y-102434571D01*
X158196642Y-102398285D01*
X158232928Y-102362000D01*
X158269214Y-102289428D01*
X158269214Y-102144285D01*
X158232928Y-102071714D01*
X158196642Y-102035428D01*
X158124071Y-101999142D01*
X157507214Y-101999142D01*
X157507214Y-101708857D02*
X157507214Y-101237142D01*
X157797500Y-101491142D01*
X157797500Y-101382285D01*
X157833785Y-101309714D01*
X157870071Y-101273428D01*
X157942642Y-101237142D01*
X158124071Y-101237142D01*
X158196642Y-101273428D01*
X158232928Y-101309714D01*
X158269214Y-101382285D01*
X158269214Y-101600000D01*
X158232928Y-101672571D01*
X158196642Y-101708857D01*
X149479000Y-74821142D02*
X149442714Y-74857428D01*
X149333857Y-74893714D01*
X149261285Y-74893714D01*
X149152428Y-74857428D01*
X149079857Y-74784857D01*
X149043571Y-74712285D01*
X149007285Y-74567142D01*
X149007285Y-74458285D01*
X149043571Y-74313142D01*
X149079857Y-74240571D01*
X149152428Y-74168000D01*
X149261285Y-74131714D01*
X149333857Y-74131714D01*
X149442714Y-74168000D01*
X149479000Y-74204285D01*
X150204714Y-74893714D02*
X149769285Y-74893714D01*
X149987000Y-74893714D02*
X149987000Y-74131714D01*
X149914428Y-74240571D01*
X149841857Y-74313142D01*
X149769285Y-74349428D01*
X151148142Y-97917000D02*
X151184428Y-97953285D01*
X151220714Y-98062142D01*
X151220714Y-98134714D01*
X151184428Y-98243571D01*
X151111857Y-98316142D01*
X151039285Y-98352428D01*
X150894142Y-98388714D01*
X150785285Y-98388714D01*
X150640142Y-98352428D01*
X150567571Y-98316142D01*
X150495000Y-98243571D01*
X150458714Y-98134714D01*
X150458714Y-98062142D01*
X150495000Y-97953285D01*
X150531285Y-97917000D01*
X150531285Y-97626714D02*
X150495000Y-97590428D01*
X150458714Y-97517857D01*
X150458714Y-97336428D01*
X150495000Y-97263857D01*
X150531285Y-97227571D01*
X150603857Y-97191285D01*
X150676428Y-97191285D01*
X150785285Y-97227571D01*
X151220714Y-97663000D01*
X151220714Y-97191285D01*
X145179142Y-90297000D02*
X145215428Y-90333285D01*
X145251714Y-90442142D01*
X145251714Y-90514714D01*
X145215428Y-90623571D01*
X145142857Y-90696142D01*
X145070285Y-90732428D01*
X144925142Y-90768714D01*
X144816285Y-90768714D01*
X144671142Y-90732428D01*
X144598571Y-90696142D01*
X144526000Y-90623571D01*
X144489714Y-90514714D01*
X144489714Y-90442142D01*
X144526000Y-90333285D01*
X144562285Y-90297000D01*
X144489714Y-90043000D02*
X144489714Y-89571285D01*
X144780000Y-89825285D01*
X144780000Y-89716428D01*
X144816285Y-89643857D01*
X144852571Y-89607571D01*
X144925142Y-89571285D01*
X145106571Y-89571285D01*
X145179142Y-89607571D01*
X145215428Y-89643857D01*
X145251714Y-89716428D01*
X145251714Y-89934142D01*
X145215428Y-90006714D01*
X145179142Y-90043000D01*
X144399000Y-95522142D02*
X144362714Y-95558428D01*
X144253857Y-95594714D01*
X144181285Y-95594714D01*
X144072428Y-95558428D01*
X143999857Y-95485857D01*
X143963571Y-95413285D01*
X143927285Y-95268142D01*
X143927285Y-95159285D01*
X143963571Y-95014142D01*
X143999857Y-94941571D01*
X144072428Y-94869000D01*
X144181285Y-94832714D01*
X144253857Y-94832714D01*
X144362714Y-94869000D01*
X144399000Y-94905285D01*
X145052142Y-95086714D02*
X145052142Y-95594714D01*
X144870714Y-94796428D02*
X144689285Y-95340714D01*
X145161000Y-95340714D01*
X149116142Y-98425000D02*
X149152428Y-98461285D01*
X149188714Y-98570142D01*
X149188714Y-98642714D01*
X149152428Y-98751571D01*
X149079857Y-98824142D01*
X149007285Y-98860428D01*
X148862142Y-98896714D01*
X148753285Y-98896714D01*
X148608142Y-98860428D01*
X148535571Y-98824142D01*
X148463000Y-98751571D01*
X148426714Y-98642714D01*
X148426714Y-98570142D01*
X148463000Y-98461285D01*
X148499285Y-98425000D01*
X148426714Y-97735571D02*
X148426714Y-98098428D01*
X148789571Y-98134714D01*
X148753285Y-98098428D01*
X148717000Y-98025857D01*
X148717000Y-97844428D01*
X148753285Y-97771857D01*
X148789571Y-97735571D01*
X148862142Y-97699285D01*
X149043571Y-97699285D01*
X149116142Y-97735571D01*
X149152428Y-97771857D01*
X149188714Y-97844428D01*
X149188714Y-98025857D01*
X149152428Y-98098428D01*
X149116142Y-98134714D01*
X156845000Y-94633142D02*
X156808714Y-94669428D01*
X156699857Y-94705714D01*
X156627285Y-94705714D01*
X156518428Y-94669428D01*
X156445857Y-94596857D01*
X156409571Y-94524285D01*
X156373285Y-94379142D01*
X156373285Y-94270285D01*
X156409571Y-94125142D01*
X156445857Y-94052571D01*
X156518428Y-93980000D01*
X156627285Y-93943714D01*
X156699857Y-93943714D01*
X156808714Y-93980000D01*
X156845000Y-94016285D01*
X157498142Y-93943714D02*
X157353000Y-93943714D01*
X157280428Y-93980000D01*
X157244142Y-94016285D01*
X157171571Y-94125142D01*
X157135285Y-94270285D01*
X157135285Y-94560571D01*
X157171571Y-94633142D01*
X157207857Y-94669428D01*
X157280428Y-94705714D01*
X157425571Y-94705714D01*
X157498142Y-94669428D01*
X157534428Y-94633142D01*
X157570714Y-94560571D01*
X157570714Y-94379142D01*
X157534428Y-94306571D01*
X157498142Y-94270285D01*
X157425571Y-94234000D01*
X157280428Y-94234000D01*
X157207857Y-94270285D01*
X157171571Y-94306571D01*
X157135285Y-94379142D01*
X155448000Y-91204142D02*
X155411714Y-91240428D01*
X155302857Y-91276714D01*
X155230285Y-91276714D01*
X155121428Y-91240428D01*
X155048857Y-91167857D01*
X155012571Y-91095285D01*
X154976285Y-90950142D01*
X154976285Y-90841285D01*
X155012571Y-90696142D01*
X155048857Y-90623571D01*
X155121428Y-90551000D01*
X155230285Y-90514714D01*
X155302857Y-90514714D01*
X155411714Y-90551000D01*
X155448000Y-90587285D01*
X155702000Y-90514714D02*
X156210000Y-90514714D01*
X155883428Y-91276714D01*
X150640142Y-87884000D02*
X150676428Y-87920285D01*
X150712714Y-88029142D01*
X150712714Y-88101714D01*
X150676428Y-88210571D01*
X150603857Y-88283142D01*
X150531285Y-88319428D01*
X150386142Y-88355714D01*
X150277285Y-88355714D01*
X150132142Y-88319428D01*
X150059571Y-88283142D01*
X149987000Y-88210571D01*
X149950714Y-88101714D01*
X149950714Y-88029142D01*
X149987000Y-87920285D01*
X150023285Y-87884000D01*
X150277285Y-87448571D02*
X150241000Y-87521142D01*
X150204714Y-87557428D01*
X150132142Y-87593714D01*
X150095857Y-87593714D01*
X150023285Y-87557428D01*
X149987000Y-87521142D01*
X149950714Y-87448571D01*
X149950714Y-87303428D01*
X149987000Y-87230857D01*
X150023285Y-87194571D01*
X150095857Y-87158285D01*
X150132142Y-87158285D01*
X150204714Y-87194571D01*
X150241000Y-87230857D01*
X150277285Y-87303428D01*
X150277285Y-87448571D01*
X150313571Y-87521142D01*
X150349857Y-87557428D01*
X150422428Y-87593714D01*
X150567571Y-87593714D01*
X150640142Y-87557428D01*
X150676428Y-87521142D01*
X150712714Y-87448571D01*
X150712714Y-87303428D01*
X150676428Y-87230857D01*
X150640142Y-87194571D01*
X150567571Y-87158285D01*
X150422428Y-87158285D01*
X150349857Y-87194571D01*
X150313571Y-87230857D01*
X150277285Y-87303428D01*
X149497142Y-87884000D02*
X149533428Y-87920285D01*
X149569714Y-88029142D01*
X149569714Y-88101714D01*
X149533428Y-88210571D01*
X149460857Y-88283142D01*
X149388285Y-88319428D01*
X149243142Y-88355714D01*
X149134285Y-88355714D01*
X148989142Y-88319428D01*
X148916571Y-88283142D01*
X148844000Y-88210571D01*
X148807714Y-88101714D01*
X148807714Y-88029142D01*
X148844000Y-87920285D01*
X148880285Y-87884000D01*
X149569714Y-87521142D02*
X149569714Y-87376000D01*
X149533428Y-87303428D01*
X149497142Y-87267142D01*
X149388285Y-87194571D01*
X149243142Y-87158285D01*
X148952857Y-87158285D01*
X148880285Y-87194571D01*
X148844000Y-87230857D01*
X148807714Y-87303428D01*
X148807714Y-87448571D01*
X148844000Y-87521142D01*
X148880285Y-87557428D01*
X148952857Y-87593714D01*
X149134285Y-87593714D01*
X149206857Y-87557428D01*
X149243142Y-87521142D01*
X149279428Y-87448571D01*
X149279428Y-87303428D01*
X149243142Y-87230857D01*
X149206857Y-87194571D01*
X149134285Y-87158285D01*
X156814184Y-88365052D02*
X156762868Y-88365052D01*
X156660237Y-88313737D01*
X156608921Y-88262421D01*
X156557605Y-88159789D01*
X156557605Y-88057158D01*
X156583263Y-87980184D01*
X156660237Y-87851895D01*
X156737211Y-87774921D01*
X156865500Y-87697948D01*
X156942474Y-87672290D01*
X157045105Y-87672290D01*
X157147737Y-87723605D01*
X157199052Y-87774921D01*
X157250368Y-87877553D01*
X157250368Y-87928868D01*
X157276026Y-88929525D02*
X156968131Y-88621631D01*
X157122079Y-88775578D02*
X157660894Y-88236763D01*
X157532605Y-88262421D01*
X157429973Y-88262421D01*
X157353000Y-88236763D01*
X158148394Y-88724262D02*
X158199709Y-88775578D01*
X158225367Y-88852552D01*
X158225367Y-88903868D01*
X158199709Y-88980841D01*
X158122736Y-89109131D01*
X157994446Y-89237420D01*
X157866157Y-89314394D01*
X157789183Y-89340051D01*
X157737868Y-89340051D01*
X157660894Y-89314394D01*
X157609578Y-89263078D01*
X157583920Y-89186104D01*
X157583920Y-89134788D01*
X157609578Y-89057815D01*
X157686552Y-88929525D01*
X157814841Y-88801236D01*
X157943131Y-88724262D01*
X158020104Y-88698605D01*
X158071420Y-88698605D01*
X158148394Y-88724262D01*
X156941184Y-86841052D02*
X156889868Y-86841052D01*
X156787237Y-86789737D01*
X156735921Y-86738421D01*
X156684605Y-86635789D01*
X156684605Y-86533158D01*
X156710263Y-86456184D01*
X156787237Y-86327895D01*
X156864211Y-86250921D01*
X156992500Y-86173948D01*
X157069474Y-86148290D01*
X157172105Y-86148290D01*
X157274737Y-86199605D01*
X157326052Y-86250921D01*
X157377368Y-86353553D01*
X157377368Y-86404868D01*
X157403026Y-87405525D02*
X157095131Y-87097631D01*
X157249079Y-87251578D02*
X157787894Y-86712763D01*
X157659605Y-86738421D01*
X157556973Y-86738421D01*
X157480000Y-86712763D01*
X157916183Y-87918683D02*
X157608289Y-87610788D01*
X157762236Y-87764736D02*
X158301051Y-87225920D01*
X158172762Y-87251578D01*
X158070131Y-87251578D01*
X157993157Y-87225920D01*
X156941184Y-85063052D02*
X156889868Y-85063052D01*
X156787237Y-85011737D01*
X156735921Y-84960421D01*
X156684605Y-84857789D01*
X156684605Y-84755158D01*
X156710263Y-84678184D01*
X156787237Y-84549895D01*
X156864211Y-84472921D01*
X156992500Y-84395948D01*
X157069474Y-84370290D01*
X157172105Y-84370290D01*
X157274737Y-84421605D01*
X157326052Y-84472921D01*
X157377368Y-84575553D01*
X157377368Y-84626868D01*
X157403026Y-85627525D02*
X157095131Y-85319631D01*
X157249079Y-85473578D02*
X157787894Y-84934763D01*
X157659605Y-84960421D01*
X157556973Y-84960421D01*
X157480000Y-84934763D01*
X158095788Y-85345289D02*
X158147104Y-85345289D01*
X158224078Y-85370947D01*
X158352367Y-85499236D01*
X158378025Y-85576210D01*
X158378025Y-85627525D01*
X158352367Y-85704499D01*
X158301051Y-85755815D01*
X158198420Y-85807131D01*
X157582631Y-85807131D01*
X157916183Y-86140683D01*
X150132142Y-99143457D02*
X150168428Y-99179742D01*
X150204714Y-99288600D01*
X150204714Y-99361171D01*
X150168428Y-99470028D01*
X150095857Y-99542600D01*
X150023285Y-99578885D01*
X149878142Y-99615171D01*
X149769285Y-99615171D01*
X149624142Y-99578885D01*
X149551571Y-99542600D01*
X149479000Y-99470028D01*
X149442714Y-99361171D01*
X149442714Y-99288600D01*
X149479000Y-99179742D01*
X149515285Y-99143457D01*
X150204714Y-98417742D02*
X150204714Y-98853171D01*
X150204714Y-98635457D02*
X149442714Y-98635457D01*
X149551571Y-98708028D01*
X149624142Y-98780600D01*
X149660428Y-98853171D01*
X149442714Y-98163742D02*
X149442714Y-97692028D01*
X149733000Y-97946028D01*
X149733000Y-97837171D01*
X149769285Y-97764600D01*
X149805571Y-97728314D01*
X149878142Y-97692028D01*
X150059571Y-97692028D01*
X150132142Y-97728314D01*
X150168428Y-97764600D01*
X150204714Y-97837171D01*
X150204714Y-98054885D01*
X150168428Y-98127457D01*
X150132142Y-98163742D01*
X148309052Y-84866815D02*
X148309052Y-84918131D01*
X148257737Y-85020762D01*
X148206421Y-85072078D01*
X148103789Y-85123394D01*
X148001158Y-85123394D01*
X147924184Y-85097736D01*
X147795895Y-85020762D01*
X147718921Y-84943788D01*
X147641948Y-84815499D01*
X147616290Y-84738525D01*
X147616290Y-84635894D01*
X147667605Y-84533262D01*
X147718921Y-84481947D01*
X147821553Y-84430631D01*
X147872868Y-84430631D01*
X148873525Y-84404973D02*
X148565631Y-84712868D01*
X148719578Y-84558920D02*
X148180763Y-84020105D01*
X148206421Y-84148394D01*
X148206421Y-84251026D01*
X148180763Y-84328000D01*
X148976157Y-83583921D02*
X149335367Y-83943131D01*
X148642605Y-83506948D02*
X148899183Y-84020105D01*
X149232736Y-83686553D01*
X147274642Y-104221642D02*
X147238357Y-104257928D01*
X147129500Y-104294214D01*
X147056928Y-104294214D01*
X146948071Y-104257928D01*
X146875500Y-104185357D01*
X146839214Y-104112785D01*
X146802928Y-103967642D01*
X146802928Y-103858785D01*
X146839214Y-103713642D01*
X146875500Y-103641071D01*
X146948071Y-103568500D01*
X147056928Y-103532214D01*
X147129500Y-103532214D01*
X147238357Y-103568500D01*
X147274642Y-103604785D01*
X148000357Y-104294214D02*
X147564928Y-104294214D01*
X147782642Y-104294214D02*
X147782642Y-103532214D01*
X147710071Y-103641071D01*
X147637500Y-103713642D01*
X147564928Y-103749928D01*
X148689785Y-103532214D02*
X148326928Y-103532214D01*
X148290642Y-103895071D01*
X148326928Y-103858785D01*
X148399500Y-103822500D01*
X148580928Y-103822500D01*
X148653500Y-103858785D01*
X148689785Y-103895071D01*
X148726071Y-103967642D01*
X148726071Y-104149071D01*
X148689785Y-104221642D01*
X148653500Y-104257928D01*
X148580928Y-104294214D01*
X148399500Y-104294214D01*
X148326928Y-104257928D01*
X148290642Y-104221642D01*
X145306142Y-98062142D02*
X145269857Y-98098428D01*
X145161000Y-98134714D01*
X145088428Y-98134714D01*
X144979571Y-98098428D01*
X144907000Y-98025857D01*
X144870714Y-97953285D01*
X144834428Y-97808142D01*
X144834428Y-97699285D01*
X144870714Y-97554142D01*
X144907000Y-97481571D01*
X144979571Y-97409000D01*
X145088428Y-97372714D01*
X145161000Y-97372714D01*
X145269857Y-97409000D01*
X145306142Y-97445285D01*
X146031857Y-98134714D02*
X145596428Y-98134714D01*
X145814142Y-98134714D02*
X145814142Y-97372714D01*
X145741571Y-97481571D01*
X145669000Y-97554142D01*
X145596428Y-97590428D01*
X146685000Y-97372714D02*
X146539857Y-97372714D01*
X146467285Y-97409000D01*
X146431000Y-97445285D01*
X146358428Y-97554142D01*
X146322142Y-97699285D01*
X146322142Y-97989571D01*
X146358428Y-98062142D01*
X146394714Y-98098428D01*
X146467285Y-98134714D01*
X146612428Y-98134714D01*
X146685000Y-98098428D01*
X146721285Y-98062142D01*
X146757571Y-97989571D01*
X146757571Y-97808142D01*
X146721285Y-97735571D01*
X146685000Y-97699285D01*
X146612428Y-97663000D01*
X146467285Y-97663000D01*
X146394714Y-97699285D01*
X146358428Y-97735571D01*
X146322142Y-97808142D01*
X156427714Y-73460428D02*
X155665714Y-73460428D01*
X155665714Y-73279000D01*
X155702000Y-73170142D01*
X155774571Y-73097571D01*
X155847142Y-73061285D01*
X155992285Y-73025000D01*
X156101142Y-73025000D01*
X156246285Y-73061285D01*
X156318857Y-73097571D01*
X156391428Y-73170142D01*
X156427714Y-73279000D01*
X156427714Y-73460428D01*
X156427714Y-72299285D02*
X156427714Y-72734714D01*
X156427714Y-72517000D02*
X155665714Y-72517000D01*
X155774571Y-72589571D01*
X155847142Y-72662142D01*
X155883428Y-72734714D01*
X148771428Y-103287285D02*
X148698857Y-103251000D01*
X148626285Y-103178428D01*
X148517428Y-103069571D01*
X148444857Y-103033285D01*
X148372285Y-103033285D01*
X148408571Y-103214714D02*
X148336000Y-103178428D01*
X148263428Y-103105857D01*
X148227142Y-102960714D01*
X148227142Y-102706714D01*
X148263428Y-102561571D01*
X148336000Y-102489000D01*
X148408571Y-102452714D01*
X148553714Y-102452714D01*
X148626285Y-102489000D01*
X148698857Y-102561571D01*
X148735142Y-102706714D01*
X148735142Y-102960714D01*
X148698857Y-103105857D01*
X148626285Y-103178428D01*
X148553714Y-103214714D01*
X148408571Y-103214714D01*
X149460857Y-103214714D02*
X149025428Y-103214714D01*
X149243142Y-103214714D02*
X149243142Y-102452714D01*
X149170571Y-102561571D01*
X149098000Y-102634142D01*
X149025428Y-102670428D01*
D15*
X147643857Y-103104904D02*
X147567666Y-103066809D01*
X147529571Y-103028714D01*
X147491476Y-102952523D01*
X147491476Y-102723952D01*
X147529571Y-102647761D01*
X147567666Y-102609666D01*
X147643857Y-102571571D01*
X147758142Y-102571571D01*
X147834333Y-102609666D01*
X147872428Y-102647761D01*
X147910523Y-102723952D01*
X147910523Y-102952523D01*
X147872428Y-103028714D01*
X147834333Y-103066809D01*
X147758142Y-103104904D01*
X147643857Y-103104904D01*
D19*
X149442714Y-81026000D02*
X149079857Y-81280000D01*
X149442714Y-81461428D02*
X148680714Y-81461428D01*
X148680714Y-81171142D01*
X148717000Y-81098571D01*
X148753285Y-81062285D01*
X148825857Y-81026000D01*
X148934714Y-81026000D01*
X149007285Y-81062285D01*
X149043571Y-81098571D01*
X149079857Y-81171142D01*
X149079857Y-81461428D01*
X149442714Y-80300285D02*
X149442714Y-80735714D01*
X149442714Y-80518000D02*
X148680714Y-80518000D01*
X148789571Y-80590571D01*
X148862142Y-80663142D01*
X148898428Y-80735714D01*
X152236714Y-97917000D02*
X151873857Y-98171000D01*
X152236714Y-98352428D02*
X151474714Y-98352428D01*
X151474714Y-98062142D01*
X151511000Y-97989571D01*
X151547285Y-97953285D01*
X151619857Y-97917000D01*
X151728714Y-97917000D01*
X151801285Y-97953285D01*
X151837571Y-97989571D01*
X151873857Y-98062142D01*
X151873857Y-98352428D01*
X151547285Y-97626714D02*
X151511000Y-97590428D01*
X151474714Y-97517857D01*
X151474714Y-97336428D01*
X151511000Y-97263857D01*
X151547285Y-97227571D01*
X151619857Y-97191285D01*
X151692428Y-97191285D01*
X151801285Y-97227571D01*
X152236714Y-97663000D01*
X152236714Y-97191285D01*
X148172714Y-98425000D02*
X147809857Y-98679000D01*
X148172714Y-98860428D02*
X147410714Y-98860428D01*
X147410714Y-98570142D01*
X147447000Y-98497571D01*
X147483285Y-98461285D01*
X147555857Y-98425000D01*
X147664714Y-98425000D01*
X147737285Y-98461285D01*
X147773571Y-98497571D01*
X147809857Y-98570142D01*
X147809857Y-98860428D01*
X147410714Y-98171000D02*
X147410714Y-97699285D01*
X147701000Y-97953285D01*
X147701000Y-97844428D01*
X147737285Y-97771857D01*
X147773571Y-97735571D01*
X147846142Y-97699285D01*
X148027571Y-97699285D01*
X148100142Y-97735571D01*
X148136428Y-97771857D01*
X148172714Y-97844428D01*
X148172714Y-98062142D01*
X148136428Y-98134714D01*
X148100142Y-98171000D01*
X149442714Y-78105000D02*
X149079857Y-78359000D01*
X149442714Y-78540428D02*
X148680714Y-78540428D01*
X148680714Y-78250142D01*
X148717000Y-78177571D01*
X148753285Y-78141285D01*
X148825857Y-78105000D01*
X148934714Y-78105000D01*
X149007285Y-78141285D01*
X149043571Y-78177571D01*
X149079857Y-78250142D01*
X149079857Y-78540428D01*
X149007285Y-77669571D02*
X148971000Y-77742142D01*
X148934714Y-77778428D01*
X148862142Y-77814714D01*
X148825857Y-77814714D01*
X148753285Y-77778428D01*
X148717000Y-77742142D01*
X148680714Y-77669571D01*
X148680714Y-77524428D01*
X148717000Y-77451857D01*
X148753285Y-77415571D01*
X148825857Y-77379285D01*
X148862142Y-77379285D01*
X148934714Y-77415571D01*
X148971000Y-77451857D01*
X149007285Y-77524428D01*
X149007285Y-77669571D01*
X149043571Y-77742142D01*
X149079857Y-77778428D01*
X149152428Y-77814714D01*
X149297571Y-77814714D01*
X149370142Y-77778428D01*
X149406428Y-77742142D01*
X149442714Y-77669571D01*
X149442714Y-77524428D01*
X149406428Y-77451857D01*
X149370142Y-77415571D01*
X149297571Y-77379285D01*
X149152428Y-77379285D01*
X149079857Y-77415571D01*
X149043571Y-77451857D01*
X149007285Y-77524428D01*
X152998714Y-87884000D02*
X152635857Y-88138000D01*
X152998714Y-88319428D02*
X152236714Y-88319428D01*
X152236714Y-88029142D01*
X152273000Y-87956571D01*
X152309285Y-87920285D01*
X152381857Y-87884000D01*
X152490714Y-87884000D01*
X152563285Y-87920285D01*
X152599571Y-87956571D01*
X152635857Y-88029142D01*
X152635857Y-88319428D01*
X152490714Y-87230857D02*
X152998714Y-87230857D01*
X152200428Y-87412285D02*
X152744714Y-87593714D01*
X152744714Y-87122000D01*
X151855714Y-87884000D02*
X151492857Y-88138000D01*
X151855714Y-88319428D02*
X151093714Y-88319428D01*
X151093714Y-88029142D01*
X151130000Y-87956571D01*
X151166285Y-87920285D01*
X151238857Y-87884000D01*
X151347714Y-87884000D01*
X151420285Y-87920285D01*
X151456571Y-87956571D01*
X151492857Y-88029142D01*
X151492857Y-88319428D01*
X151093714Y-87194571D02*
X151093714Y-87557428D01*
X151456571Y-87593714D01*
X151420285Y-87557428D01*
X151384000Y-87484857D01*
X151384000Y-87303428D01*
X151420285Y-87230857D01*
X151456571Y-87194571D01*
X151529142Y-87158285D01*
X151710571Y-87158285D01*
X151783142Y-87194571D01*
X151819428Y-87230857D01*
X151855714Y-87303428D01*
X151855714Y-87484857D01*
X151819428Y-87557428D01*
X151783142Y-87593714D01*
D21*
X145609733Y-69367400D02*
X145271066Y-69604466D01*
X145609733Y-69773800D02*
X144898533Y-69773800D01*
X144898533Y-69502866D01*
X144932400Y-69435133D01*
X144966266Y-69401266D01*
X145034000Y-69367400D01*
X145135600Y-69367400D01*
X145203333Y-69401266D01*
X145237200Y-69435133D01*
X145271066Y-69502866D01*
X145271066Y-69773800D01*
X145609733Y-68690066D02*
X145609733Y-69096466D01*
X145609733Y-68893266D02*
X144898533Y-68893266D01*
X145000133Y-68961000D01*
X145067866Y-69028733D01*
X145101733Y-69096466D01*
X144898533Y-68249800D02*
X144898533Y-68182066D01*
X144932400Y-68114333D01*
X144966266Y-68080466D01*
X145034000Y-68046600D01*
X145169466Y-68012733D01*
X145338800Y-68012733D01*
X145474266Y-68046600D01*
X145542000Y-68080466D01*
X145575866Y-68114333D01*
X145609733Y-68182066D01*
X145609733Y-68249800D01*
X145575866Y-68317533D01*
X145542000Y-68351400D01*
X145474266Y-68385266D01*
X145338800Y-68419133D01*
X145169466Y-68419133D01*
X145034000Y-68385266D01*
X144966266Y-68351400D01*
X144932400Y-68317533D01*
X144898533Y-68249800D01*
D11*
X150228904Y-84089119D02*
X150228904Y-84911595D01*
X150277285Y-85008357D01*
X150325666Y-85056738D01*
X150422428Y-85105119D01*
X150615952Y-85105119D01*
X150712714Y-85056738D01*
X150761095Y-85008357D01*
X150809476Y-84911595D01*
X150809476Y-84089119D01*
X151825476Y-85105119D02*
X151244904Y-85105119D01*
X151535190Y-85105119D02*
X151535190Y-84089119D01*
X151438428Y-84234261D01*
X151341666Y-84331023D01*
X151244904Y-84379404D01*
D22*
X150337761Y-79024238D02*
X150482904Y-79072619D01*
X150724809Y-79072619D01*
X150821571Y-79024238D01*
X150869952Y-78975857D01*
X150918333Y-78879095D01*
X150918333Y-78782333D01*
X150869952Y-78685571D01*
X150821571Y-78637190D01*
X150724809Y-78588809D01*
X150531285Y-78540428D01*
X150434523Y-78492047D01*
X150386142Y-78443666D01*
X150337761Y-78346904D01*
X150337761Y-78250142D01*
X150386142Y-78153380D01*
X150434523Y-78105000D01*
X150531285Y-78056619D01*
X150773190Y-78056619D01*
X150918333Y-78105000D01*
X151547285Y-78056619D02*
X151740809Y-78056619D01*
X151837571Y-78105000D01*
X151934333Y-78201761D01*
X151982714Y-78395285D01*
X151982714Y-78733952D01*
X151934333Y-78927476D01*
X151837571Y-79024238D01*
X151740809Y-79072619D01*
X151547285Y-79072619D01*
X151450523Y-79024238D01*
X151353761Y-78927476D01*
X151305380Y-78733952D01*
X151305380Y-78395285D01*
X151353761Y-78201761D01*
X151450523Y-78105000D01*
X151547285Y-78056619D01*
X152418142Y-78685571D02*
X153192238Y-78685571D01*
X153821190Y-78492047D02*
X153724428Y-78443666D01*
X153676047Y-78395285D01*
X153627666Y-78298523D01*
X153627666Y-78250142D01*
X153676047Y-78153380D01*
X153724428Y-78105000D01*
X153821190Y-78056619D01*
X154014714Y-78056619D01*
X154111476Y-78105000D01*
X154159857Y-78153380D01*
X154208238Y-78250142D01*
X154208238Y-78298523D01*
X154159857Y-78395285D01*
X154111476Y-78443666D01*
X154014714Y-78492047D01*
X153821190Y-78492047D01*
X153724428Y-78540428D01*
X153676047Y-78588809D01*
X153627666Y-78685571D01*
X153627666Y-78879095D01*
X153676047Y-78975857D01*
X153724428Y-79024238D01*
X153821190Y-79072619D01*
X154014714Y-79072619D01*
X154111476Y-79024238D01*
X154159857Y-78975857D01*
X154208238Y-78879095D01*
X154208238Y-78685571D01*
X154159857Y-78588809D01*
X154111476Y-78540428D01*
X154014714Y-78492047D01*
D19*
X150440571Y-79538285D02*
X150476857Y-79502000D01*
X150549428Y-79465714D01*
X150730857Y-79465714D01*
X150803428Y-79502000D01*
X150839714Y-79538285D01*
X150876000Y-79610857D01*
X150876000Y-79683428D01*
X150839714Y-79792285D01*
X150404285Y-80227714D01*
X150876000Y-80227714D01*
X151347714Y-79465714D02*
X151420285Y-79465714D01*
X151492857Y-79502000D01*
X151529142Y-79538285D01*
X151565428Y-79610857D01*
X151601714Y-79756000D01*
X151601714Y-79937428D01*
X151565428Y-80082571D01*
X151529142Y-80155142D01*
X151492857Y-80191428D01*
X151420285Y-80227714D01*
X151347714Y-80227714D01*
X151275142Y-80191428D01*
X151238857Y-80155142D01*
X151202571Y-80082571D01*
X151166285Y-79937428D01*
X151166285Y-79756000D01*
X151202571Y-79610857D01*
X151238857Y-79538285D01*
X151275142Y-79502000D01*
X151347714Y-79465714D01*
X152037142Y-79792285D02*
X151964571Y-79756000D01*
X151928285Y-79719714D01*
X151892000Y-79647142D01*
X151892000Y-79610857D01*
X151928285Y-79538285D01*
X151964571Y-79502000D01*
X152037142Y-79465714D01*
X152182285Y-79465714D01*
X152254857Y-79502000D01*
X152291142Y-79538285D01*
X152327428Y-79610857D01*
X152327428Y-79647142D01*
X152291142Y-79719714D01*
X152254857Y-79756000D01*
X152182285Y-79792285D01*
X152037142Y-79792285D01*
X151964571Y-79828571D01*
X151928285Y-79864857D01*
X151892000Y-79937428D01*
X151892000Y-80082571D01*
X151928285Y-80155142D01*
X151964571Y-80191428D01*
X152037142Y-80227714D01*
X152182285Y-80227714D01*
X152254857Y-80191428D01*
X152291142Y-80155142D01*
X152327428Y-80082571D01*
X152327428Y-79937428D01*
X152291142Y-79864857D01*
X152254857Y-79828571D01*
X152182285Y-79792285D01*
X152654000Y-80227714D02*
X152654000Y-79719714D01*
X152654000Y-79792285D02*
X152690285Y-79756000D01*
X152762857Y-79719714D01*
X152871714Y-79719714D01*
X152944285Y-79756000D01*
X152980571Y-79828571D01*
X152980571Y-80227714D01*
X152980571Y-79828571D02*
X153016857Y-79756000D01*
X153089428Y-79719714D01*
X153198285Y-79719714D01*
X153270857Y-79756000D01*
X153307142Y-79828571D01*
X153307142Y-80227714D01*
X153670000Y-80227714D02*
X153670000Y-79719714D01*
X153670000Y-79465714D02*
X153633714Y-79502000D01*
X153670000Y-79538285D01*
X153706285Y-79502000D01*
X153670000Y-79465714D01*
X153670000Y-79538285D01*
X154141714Y-80227714D02*
X154069142Y-80191428D01*
X154032857Y-80118857D01*
X154032857Y-79465714D01*
D20*
X154592261Y-99165833D02*
X154289880Y-99377500D01*
X154592261Y-99528690D02*
X153957261Y-99528690D01*
X153957261Y-99286785D01*
X153987500Y-99226309D01*
X154017738Y-99196071D01*
X154078214Y-99165833D01*
X154168928Y-99165833D01*
X154229404Y-99196071D01*
X154259642Y-99226309D01*
X154289880Y-99286785D01*
X154289880Y-99528690D01*
X154592261Y-98863452D02*
X154592261Y-98742500D01*
X154562023Y-98682023D01*
X154531785Y-98651785D01*
X154441071Y-98591309D01*
X154320119Y-98561071D01*
X154078214Y-98561071D01*
X154017738Y-98591309D01*
X153987500Y-98621547D01*
X153957261Y-98682023D01*
X153957261Y-98802976D01*
X153987500Y-98863452D01*
X154017738Y-98893690D01*
X154078214Y-98923928D01*
X154229404Y-98923928D01*
X154289880Y-98893690D01*
X154320119Y-98863452D01*
X154350357Y-98802976D01*
X154350357Y-98682023D01*
X154320119Y-98621547D01*
X154289880Y-98591309D01*
X154229404Y-98561071D01*
D19*
X155411714Y-83420857D02*
X155048857Y-83674857D01*
X155411714Y-83856285D02*
X154649714Y-83856285D01*
X154649714Y-83566000D01*
X154686000Y-83493428D01*
X154722285Y-83457142D01*
X154794857Y-83420857D01*
X154903714Y-83420857D01*
X154976285Y-83457142D01*
X155012571Y-83493428D01*
X155048857Y-83566000D01*
X155048857Y-83856285D01*
X155411714Y-82695142D02*
X155411714Y-83130571D01*
X155411714Y-82912857D02*
X154649714Y-82912857D01*
X154758571Y-82985428D01*
X154831142Y-83058000D01*
X154867428Y-83130571D01*
X155411714Y-81969428D02*
X155411714Y-82404857D01*
X155411714Y-82187142D02*
X154649714Y-82187142D01*
X154758571Y-82259714D01*
X154831142Y-82332285D01*
X154867428Y-82404857D01*
X158332714Y-83420857D02*
X157969857Y-83674857D01*
X158332714Y-83856285D02*
X157570714Y-83856285D01*
X157570714Y-83566000D01*
X157607000Y-83493428D01*
X157643285Y-83457142D01*
X157715857Y-83420857D01*
X157824714Y-83420857D01*
X157897285Y-83457142D01*
X157933571Y-83493428D01*
X157969857Y-83566000D01*
X157969857Y-83856285D01*
X158332714Y-82695142D02*
X158332714Y-83130571D01*
X158332714Y-82912857D02*
X157570714Y-82912857D01*
X157679571Y-82985428D01*
X157752142Y-83058000D01*
X157788428Y-83130571D01*
X157824714Y-82042000D02*
X158332714Y-82042000D01*
X157534428Y-82223428D02*
X158078714Y-82404857D01*
X158078714Y-81933142D01*
D22*
X143070942Y-79085133D02*
X143109647Y-78969019D01*
X143148352Y-78930314D01*
X143225761Y-78891609D01*
X143341876Y-78891609D01*
X143419285Y-78930314D01*
X143457990Y-78969019D01*
X143496695Y-79046428D01*
X143496695Y-79356066D01*
X142683895Y-79356066D01*
X142683895Y-79085133D01*
X142722600Y-79007723D01*
X142761304Y-78969019D01*
X142838714Y-78930314D01*
X142916123Y-78930314D01*
X142993533Y-78969019D01*
X143032238Y-79007723D01*
X143070942Y-79085133D01*
X143070942Y-79356066D01*
X142683895Y-78388447D02*
X142683895Y-78233628D01*
X142722600Y-78156219D01*
X142800009Y-78078809D01*
X142954828Y-78040104D01*
X143225761Y-78040104D01*
X143380580Y-78078809D01*
X143457990Y-78156219D01*
X143496695Y-78233628D01*
X143496695Y-78388447D01*
X143457990Y-78465857D01*
X143380580Y-78543266D01*
X143225761Y-78581971D01*
X142954828Y-78581971D01*
X142800009Y-78543266D01*
X142722600Y-78465857D01*
X142683895Y-78388447D01*
X142683895Y-77536942D02*
X142683895Y-77382123D01*
X142722600Y-77304714D01*
X142800009Y-77227304D01*
X142954828Y-77188600D01*
X143225761Y-77188600D01*
X143380580Y-77227304D01*
X143457990Y-77304714D01*
X143496695Y-77382123D01*
X143496695Y-77536942D01*
X143457990Y-77614352D01*
X143380580Y-77691761D01*
X143225761Y-77730466D01*
X142954828Y-77730466D01*
X142800009Y-77691761D01*
X142722600Y-77614352D01*
X142683895Y-77536942D01*
X142683895Y-76956371D02*
X142683895Y-76491914D01*
X143496695Y-76724142D02*
X142683895Y-76724142D01*
X143496695Y-75795228D02*
X143496695Y-76259685D01*
X143496695Y-76027457D02*
X142683895Y-76027457D01*
X142800009Y-76104866D01*
X142877419Y-76182276D01*
X142916123Y-76259685D01*
X143496695Y-85332152D02*
X143109647Y-85603085D01*
X143496695Y-85796609D02*
X142683895Y-85796609D01*
X142683895Y-85486971D01*
X142722600Y-85409561D01*
X142761304Y-85370857D01*
X142838714Y-85332152D01*
X142954828Y-85332152D01*
X143032238Y-85370857D01*
X143070942Y-85409561D01*
X143109647Y-85486971D01*
X143109647Y-85796609D01*
X143457990Y-85022514D02*
X143496695Y-84906400D01*
X143496695Y-84712876D01*
X143457990Y-84635466D01*
X143419285Y-84596761D01*
X143341876Y-84558057D01*
X143264466Y-84558057D01*
X143187057Y-84596761D01*
X143148352Y-84635466D01*
X143109647Y-84712876D01*
X143070942Y-84867695D01*
X143032238Y-84945104D01*
X142993533Y-84983809D01*
X142916123Y-85022514D01*
X142838714Y-85022514D01*
X142761304Y-84983809D01*
X142722600Y-84945104D01*
X142683895Y-84867695D01*
X142683895Y-84674171D01*
X142722600Y-84558057D01*
X142683895Y-84325828D02*
X142683895Y-83861371D01*
X143496695Y-84093600D02*
X142683895Y-84093600D01*
X143496695Y-83164685D02*
X143496695Y-83629142D01*
X143496695Y-83396914D02*
X142683895Y-83396914D01*
X142800009Y-83474323D01*
X142877419Y-83551733D01*
X142916123Y-83629142D01*
D18*
X143153333Y-73975166D02*
X142730000Y-73975166D01*
X142730000Y-73086166D01*
X143449666Y-73509500D02*
X143746000Y-73509500D01*
X143873000Y-73975166D02*
X143449666Y-73975166D01*
X143449666Y-73086166D01*
X143873000Y-73086166D01*
X144254000Y-73975166D02*
X144254000Y-73086166D01*
X144465666Y-73086166D01*
X144592666Y-73128500D01*
X144677333Y-73213166D01*
X144719666Y-73297833D01*
X144762000Y-73467166D01*
X144762000Y-73594166D01*
X144719666Y-73763500D01*
X144677333Y-73848166D01*
X144592666Y-73932833D01*
X144465666Y-73975166D01*
X144254000Y-73975166D01*
X144931333Y-74059833D02*
X145608666Y-74059833D01*
X145820333Y-73509500D02*
X146116666Y-73509500D01*
X146243666Y-73975166D02*
X145820333Y-73975166D01*
X145820333Y-73086166D01*
X146243666Y-73086166D01*
X147090333Y-73975166D02*
X146582333Y-73975166D01*
X146836333Y-73975166D02*
X146836333Y-73086166D01*
X146751666Y-73213166D01*
X146667000Y-73297833D01*
X146582333Y-73340166D01*
D19*
X149696714Y-76073000D02*
X149333857Y-76327000D01*
X149696714Y-76508428D02*
X148934714Y-76508428D01*
X148934714Y-76218142D01*
X148971000Y-76145571D01*
X149007285Y-76109285D01*
X149079857Y-76073000D01*
X149188714Y-76073000D01*
X149261285Y-76109285D01*
X149297571Y-76145571D01*
X149333857Y-76218142D01*
X149333857Y-76508428D01*
X148934714Y-75419857D02*
X148934714Y-75565000D01*
X148971000Y-75637571D01*
X149007285Y-75673857D01*
X149116142Y-75746428D01*
X149261285Y-75782714D01*
X149551571Y-75782714D01*
X149624142Y-75746428D01*
X149660428Y-75710142D01*
X149696714Y-75637571D01*
X149696714Y-75492428D01*
X149660428Y-75419857D01*
X149624142Y-75383571D01*
X149551571Y-75347285D01*
X149370142Y-75347285D01*
X149297571Y-75383571D01*
X149261285Y-75419857D01*
X149225000Y-75492428D01*
X149225000Y-75637571D01*
X149261285Y-75710142D01*
X149297571Y-75746428D01*
X149370142Y-75782714D01*
X155157714Y-73279000D02*
X154794857Y-73533000D01*
X155157714Y-73714428D02*
X154395714Y-73714428D01*
X154395714Y-73424142D01*
X154432000Y-73351571D01*
X154468285Y-73315285D01*
X154540857Y-73279000D01*
X154649714Y-73279000D01*
X154722285Y-73315285D01*
X154758571Y-73351571D01*
X154794857Y-73424142D01*
X154794857Y-73714428D01*
X154395714Y-73025000D02*
X154395714Y-72517000D01*
X155157714Y-72843571D01*
M02*
