M48
; DRILL file {KiCad 5.1.12-84ad8e8a86~92~ubuntu18.04.1} date  5.05.2023 (пт) 14:43:35 EEST
; FORMAT={-:-/ absolute / inch / decimal}
; #@! TF.CreationDate,2023-05-05T14:43:35+03:00
; #@! TF.GenerationSoftware,Kicad,Pcbnew,5.1.12-84ad8e8a86~92~ubuntu18.04.1
; #@! TF.FileFunction,Plated,1,4,PTH
FMAT,2
INCH
T1C0.0157
T2C0.0236
T3C0.0315
T4C0.0394
T5C0.0472
%
G90
G05
T1
X5.61Y-2.845
X5.6494Y-3.8
X5.65Y-4.33
X5.664Y-3.716
X5.6756Y-3.6244
X5.685Y-3.28
X5.685Y-3.3725
X5.6875Y-3.01
X5.6875Y-3.1
X5.6994Y-3.8956
X5.6994Y-4.0999
X5.6994Y-4.2
X5.7025Y-3.7163
X5.7325Y-3.56
X5.7334Y-3.5222
X5.7694Y-3.5218
X5.7713Y-3.21
X5.782Y-3.4508
X5.7875Y-4.3022
X5.805Y-3.01
X5.805Y-3.315
X5.8051Y-3.255
X5.8156Y-3.9121
X5.82Y-2.925
X5.8275Y-4.3022
X5.83Y-3.035
X5.83Y-3.155
X5.83Y-3.59
X5.8338Y-3.2882
X5.8352Y-3.696
X5.8365Y-3.5535
X5.84Y-3.66
X5.84Y-3.6246
X5.86Y-4.025
X5.8623Y-3.9379
X5.8649Y-4.3022
X5.871Y-3.562
X5.8833Y-2.77
X5.8975Y-3.41
X5.9Y-3.935
X5.9Y-4.025
X5.9002Y-3.3707
X5.9064Y-3.563
X5.9196Y-3.1245
X5.92Y-2.935
X5.9371Y-2.7699
X5.94Y-4.0
X5.945Y-2.91
X5.955Y-3.1
X5.9556Y-3.9037
X5.9707Y-3.2007
X5.9708Y-3.0583
X5.9709Y-4.0541
X5.9725Y-3.9756
X5.982Y-4.3038
X5.985Y-2.91
X5.9857Y-3.8847
X6.0065Y-3.856
X6.01Y-2.935
X6.02Y-3.06
X6.02Y-3.2
X6.0212Y-3.64
X6.0236Y-4.2714
X6.039Y-3.8991
X6.055Y-4.405
X6.0577Y-3.869
X6.0625Y-4.3016
X6.0662Y-4.265
X6.0694Y-3.3223
X6.07Y-3.06
X6.0712Y-3.195
X6.0806Y-3.4511
X6.0806Y-3.5296
X6.1Y-4.2917
X6.1049Y-2.99
X6.105Y-2.96
X6.112Y-3.9655
X6.1383Y-3.0078
X6.14Y-3.31
X6.1404Y-3.8667
X6.1417Y-3.6708
X6.145Y-3.51
X6.15Y-3.969
X6.154Y-3.941
X6.1877Y-3.952
X6.219Y-3.6001
X6.2372Y-3.0459
X6.2483Y-3.6432
X6.2486Y-3.7433
T2
X5.755Y-2.575
X5.8778Y-3.6028
X5.8778Y-3.7
X5.945Y-4.11
X5.9722Y-3.6028
X5.9722Y-3.6972
X5.985Y-4.22
X5.985Y-2.71
X6.015Y-4.11
X6.015Y-4.18
X6.025Y-2.71
X6.045Y-4.22
X6.08Y-4.18
X6.0865Y-3.785
X6.095Y-2.575
X6.095Y-4.22
X6.1396Y-3.39
X6.16Y-3.785
X6.165Y-3.075
X6.165Y-3.2
T4
X5.5118Y-2.5933
X5.5118Y-2.6933
X5.5118Y-2.7933
X5.5118Y-2.8933
X5.5118Y-2.9933
X5.5118Y-3.0933
X5.5118Y-3.1933
X5.5118Y-3.2933
X5.5118Y-3.3933
X5.5118Y-3.4933
X5.5118Y-3.5933
X5.5118Y-3.6933
X5.5118Y-3.7933
X5.5118Y-3.8933
X5.5118Y-3.9933
X5.5118Y-4.0933
X5.5118Y-4.1933
X5.5118Y-4.2933
X5.5118Y-4.3933
X5.5118Y-4.4933
X5.5752Y-2.5933
X5.5752Y-2.6933
X5.5752Y-2.7933
X5.5752Y-2.8933
X5.5752Y-2.9933
X5.5752Y-3.0933
X5.5752Y-3.1933
X5.5752Y-3.2933
X5.5752Y-3.3933
X5.5752Y-3.4933
X5.5752Y-3.5933
X5.5752Y-3.6933
X5.5752Y-3.7933
X5.5752Y-3.8933
X5.5752Y-3.9933
X5.5752Y-4.0933
X5.5752Y-4.1933
X5.5752Y-4.2933
X5.5752Y-4.3933
X5.5752Y-4.4933
X5.8252Y-4.4843
X5.8252Y-4.5472
X5.9252Y-4.4843
X5.9252Y-4.5472
X6.0252Y-4.4843
X6.0252Y-4.5472
X6.2752Y-2.5933
X6.2752Y-2.6933
X6.2752Y-2.7933
X6.2752Y-2.8933
X6.2752Y-2.9933
X6.2752Y-3.0933
X6.2752Y-3.1933
X6.2752Y-3.2933
X6.2752Y-3.3933
X6.2752Y-3.4933
X6.2752Y-3.5933
X6.2752Y-3.6933
X6.2752Y-3.7933
X6.2752Y-3.8933
X6.2752Y-3.9933
X6.2752Y-4.0933
X6.2752Y-4.1933
X6.2752Y-4.2933
X6.2752Y-4.3933
X6.2752Y-4.4933
X6.3386Y-2.5933
X6.3386Y-2.6933
X6.3386Y-2.7933
X6.3386Y-2.8933
X6.3386Y-2.9933
X6.3386Y-3.0933
X6.3386Y-3.1933
X6.3386Y-3.2933
X6.3386Y-3.3933
X6.3386Y-3.4933
X6.3386Y-3.5933
X6.3386Y-3.6933
X6.3386Y-3.7933
X6.3386Y-3.8933
X6.3386Y-3.9933
X6.3386Y-4.0933
X6.3386Y-4.1933
X6.3386Y-4.2933
X6.3386Y-4.3933
X6.3386Y-4.4933
T5
X5.925Y-3.65
T3
G00X5.7551Y-2.6437
M15
G01X5.7551Y-2.6201
M16
G05
G00X5.7551Y-2.8142
M15
G01X5.7551Y-2.7787
M16
G05
G00X6.0953Y-2.6437
M15
G01X6.0953Y-2.6201
M16
G05
G00X6.0953Y-2.8142
M15
G01X6.0953Y-2.7787
M16
G05
T0
M30
