G04 #@! TF.GenerationSoftware,KiCad,Pcbnew,5.1.12-84ad8e8a86~92~ubuntu18.04.1*
G04 #@! TF.CreationDate,2023-05-05T14:43:28+03:00*
G04 #@! TF.ProjectId,RP2040-PICO30_Rev_A,52503230-3430-42d5-9049-434f33305f52,A*
G04 #@! TF.SameCoordinates,Original*
G04 #@! TF.FileFunction,Soldermask,Bot*
G04 #@! TF.FilePolarity,Negative*
%FSLAX46Y46*%
G04 Gerber Fmt 4.6, Leading zero omitted, Abs format (unit mm)*
G04 Created by KiCad (PCBNEW 5.1.12-84ad8e8a86~92~ubuntu18.04.1) date 2023-05-05 14:43:28*
%MOMM*%
%LPD*%
G01*
G04 APERTURE LIST*
%ADD10C,1.879600*%
%ADD11C,1.101600*%
%ADD12C,1.901600*%
%ADD13C,1.879600*%
%ADD14O,1.301600X2.301600*%
%ADD15C,0.701600*%
%ADD16O,1.401600X2.101600*%
%ADD17C,2.201600*%
%ADD18C,0.254000*%
%ADD19C,0.100000*%
G04 APERTURE END LIST*
D10*
X159392620Y-68409820D02*
X160987740Y-68409820D01*
X159392620Y-70949820D02*
X160987740Y-70949820D01*
X159392620Y-73489820D02*
X160987740Y-73489820D01*
X159392620Y-76029820D02*
X160987740Y-76029820D01*
X159392620Y-78569820D02*
X160987740Y-78569820D01*
X159392620Y-81109820D02*
X160987740Y-81109820D01*
X159392620Y-83649820D02*
X160987740Y-83649820D01*
X159392620Y-86189820D02*
X160987740Y-86189820D01*
X159392620Y-88729820D02*
X160987740Y-88729820D01*
X159392620Y-91269820D02*
X160987740Y-91269820D01*
X159392620Y-93809820D02*
X160987740Y-93809820D01*
X159392620Y-96349820D02*
X160987740Y-96349820D01*
X159392620Y-98889820D02*
X160987740Y-98889820D01*
X159392620Y-101429820D02*
X160987740Y-101429820D01*
X159392620Y-103969820D02*
X160987740Y-103969820D01*
X159392620Y-106509820D02*
X160987740Y-106509820D01*
X159392620Y-109049820D02*
X160987740Y-109049820D01*
X159392620Y-111589820D02*
X160987740Y-111589820D01*
X159392620Y-114129820D02*
X160987740Y-114129820D01*
X141605000Y-68409820D02*
X140004800Y-68409820D01*
X141605000Y-70949820D02*
X140004800Y-70949820D01*
X141605000Y-73489820D02*
X140004800Y-73489820D01*
X141605000Y-76029820D02*
X140004800Y-76029820D01*
X141605000Y-78569820D02*
X140004800Y-78569820D01*
X141605000Y-81109820D02*
X140004800Y-81109820D01*
X141605000Y-83649820D02*
X140004800Y-83649820D01*
X141605000Y-86189820D02*
X140004800Y-86189820D01*
X141605000Y-88729820D02*
X140004800Y-88729820D01*
X141605000Y-91269820D02*
X140004800Y-91269820D01*
X141605000Y-93809820D02*
X140004800Y-93809820D01*
X141605000Y-96349820D02*
X140004800Y-96349820D01*
X141605000Y-98889820D02*
X140004800Y-98889820D01*
X141605000Y-101429820D02*
X140004800Y-101429820D01*
X141605000Y-103969820D02*
X140004800Y-103969820D01*
X141605000Y-106509820D02*
X140004800Y-106509820D01*
X141605000Y-109049820D02*
X140004800Y-109049820D01*
X141605000Y-111589820D02*
X140004800Y-111589820D01*
X141605000Y-114122200D02*
X140004800Y-114122200D01*
X150495000Y-113919000D02*
X150495000Y-115443000D01*
X153035000Y-113919000D02*
X153035000Y-115443000D01*
D11*
X151695000Y-93910000D03*
X149295000Y-93980000D03*
D12*
X150495000Y-92710000D03*
D11*
X151695000Y-91510000D03*
X149295000Y-91510000D03*
D13*
X141610000Y-73490000D03*
X141610000Y-70950000D03*
X141610000Y-68410000D03*
G36*
G01*
X140721000Y-64930200D02*
X142499000Y-64930200D01*
G75*
G02*
X142549800Y-64981000I0J-50800D01*
G01*
X142549800Y-66759000D01*
G75*
G02*
X142499000Y-66809800I-50800J0D01*
G01*
X140721000Y-66809800D01*
G75*
G02*
X140670200Y-66759000I0J50800D01*
G01*
X140670200Y-64981000D01*
G75*
G02*
X140721000Y-64930200I50800J0D01*
G01*
G37*
X141610000Y-76030000D03*
X141610000Y-78570000D03*
X141610000Y-83650000D03*
X141610000Y-81110000D03*
X141610000Y-86190000D03*
X141610000Y-88730000D03*
X141610000Y-93810000D03*
X141610000Y-91270000D03*
X141610000Y-96350000D03*
X141610000Y-98890000D03*
X141610000Y-103970000D03*
X141610000Y-101430000D03*
X141610000Y-111590000D03*
X141610000Y-114130000D03*
X141610000Y-109050000D03*
X141610000Y-106510000D03*
X159390000Y-73490000D03*
X159390000Y-70950000D03*
X159390000Y-68410000D03*
G36*
G01*
X158501000Y-64930200D02*
X160279000Y-64930200D01*
G75*
G02*
X160329800Y-64981000I0J-50800D01*
G01*
X160329800Y-66759000D01*
G75*
G02*
X160279000Y-66809800I-50800J0D01*
G01*
X158501000Y-66809800D01*
G75*
G02*
X158450200Y-66759000I0J50800D01*
G01*
X158450200Y-64981000D01*
G75*
G02*
X158501000Y-64930200I50800J0D01*
G01*
G37*
X159390000Y-76030000D03*
X159390000Y-78570000D03*
X159390000Y-83650000D03*
X159390000Y-81110000D03*
X159390000Y-86190000D03*
X159390000Y-88730000D03*
X159390000Y-93810000D03*
X159390000Y-91270000D03*
X159390000Y-96350000D03*
X159390000Y-98890000D03*
X159390000Y-103970000D03*
X159390000Y-101430000D03*
X159390000Y-111590000D03*
X159390000Y-114130000D03*
X159390000Y-109050000D03*
X159390000Y-106510000D03*
G36*
G01*
X147020200Y-114789000D02*
X147020200Y-113011000D01*
G75*
G02*
X147071000Y-112960200I50800J0D01*
G01*
X148849000Y-112960200D01*
G75*
G02*
X148899800Y-113011000I0J-50800D01*
G01*
X148899800Y-114789000D01*
G75*
G02*
X148849000Y-114839800I-50800J0D01*
G01*
X147071000Y-114839800D01*
G75*
G02*
X147020200Y-114789000I0J50800D01*
G01*
G37*
X150500000Y-113900000D03*
X153040000Y-113900000D03*
X153040000Y-115500000D03*
X150500000Y-115500000D03*
G36*
G01*
X147020200Y-116389000D02*
X147020200Y-114611000D01*
G75*
G02*
X147071000Y-114560200I50800J0D01*
G01*
X148849000Y-114560200D01*
G75*
G02*
X148899800Y-114611000I0J-50800D01*
G01*
X148899800Y-116389000D01*
G75*
G02*
X148849000Y-116439800I-50800J0D01*
G01*
X147071000Y-116439800D01*
G75*
G02*
X147020200Y-116389000I0J50800D01*
G01*
G37*
X140000000Y-106510000D03*
X140000000Y-109050000D03*
X140000000Y-114130000D03*
X140000000Y-111590000D03*
X140000000Y-101430000D03*
X140000000Y-103970000D03*
X140000000Y-98890000D03*
X140000000Y-96350000D03*
X140000000Y-91270000D03*
X140000000Y-93810000D03*
X140000000Y-88730000D03*
X140000000Y-86190000D03*
X140000000Y-81110000D03*
X140000000Y-83650000D03*
X140000000Y-78570000D03*
X140000000Y-76030000D03*
G36*
G01*
X139111000Y-64930200D02*
X140889000Y-64930200D01*
G75*
G02*
X140939800Y-64981000I0J-50800D01*
G01*
X140939800Y-66759000D01*
G75*
G02*
X140889000Y-66809800I-50800J0D01*
G01*
X139111000Y-66809800D01*
G75*
G02*
X139060200Y-66759000I0J50800D01*
G01*
X139060200Y-64981000D01*
G75*
G02*
X139111000Y-64930200I50800J0D01*
G01*
G37*
X140000000Y-68410000D03*
X140000000Y-70950000D03*
X140000000Y-73490000D03*
X161000000Y-73490000D03*
X161000000Y-70950000D03*
X161000000Y-68410000D03*
G36*
G01*
X160111000Y-64930200D02*
X161889000Y-64930200D01*
G75*
G02*
X161939800Y-64981000I0J-50800D01*
G01*
X161939800Y-66759000D01*
G75*
G02*
X161889000Y-66809800I-50800J0D01*
G01*
X160111000Y-66809800D01*
G75*
G02*
X160060200Y-66759000I0J50800D01*
G01*
X160060200Y-64981000D01*
G75*
G02*
X160111000Y-64930200I50800J0D01*
G01*
G37*
X161000000Y-76030000D03*
X161000000Y-78570000D03*
X161000000Y-83650000D03*
X161000000Y-81110000D03*
X161000000Y-86190000D03*
X161000000Y-88730000D03*
X161000000Y-93810000D03*
X161000000Y-91270000D03*
X161000000Y-96350000D03*
X161000000Y-98890000D03*
X161000000Y-103970000D03*
X161000000Y-101430000D03*
X161000000Y-111590000D03*
X161000000Y-114130000D03*
X161000000Y-109050000D03*
X161000000Y-106510000D03*
D14*
X154820000Y-71030000D03*
D15*
X153390000Y-70530000D03*
D16*
X154820000Y-66850000D03*
X146180000Y-66850000D03*
D14*
X146180000Y-71030000D03*
D15*
X147610000Y-70530000D03*
D17*
X144800000Y-113500000D03*
X156200000Y-113500000D03*
D18*
X153162000Y-65659000D02*
X147828000Y-65659000D01*
X147828000Y-64770000D01*
X153162000Y-64770000D01*
X153162000Y-65659000D01*
D19*
G36*
X153162000Y-65659000D02*
G01*
X147828000Y-65659000D01*
X147828000Y-64770000D01*
X153162000Y-64770000D01*
X153162000Y-65659000D01*
G37*
M02*
