G04 #@! TF.GenerationSoftware,KiCad,Pcbnew,5.1.12-84ad8e8a86~92~ubuntu18.04.1*
G04 #@! TF.CreationDate,2023-05-05T14:43:28+03:00*
G04 #@! TF.ProjectId,RP2040-PICO30_Rev_A,52503230-3430-42d5-9049-434f33305f52,A*
G04 #@! TF.SameCoordinates,Original*
G04 #@! TF.FileFunction,Paste,Top*
G04 #@! TF.FilePolarity,Positive*
%FSLAX46Y46*%
G04 Gerber Fmt 4.6, Leading zero omitted, Abs format (unit mm)*
G04 Created by KiCad (PCBNEW 5.1.12-84ad8e8a86~92~ubuntu18.04.1) date 2023-05-05 14:43:28*
%MOMM*%
%LPD*%
G01*
G04 APERTURE LIST*
%ADD10R,0.800000X0.949200*%
%ADD11R,1.700000X0.800000*%
%ADD12R,0.600000X1.550000*%
%ADD13R,1.200000X3.100000*%
%ADD14R,0.280000X1.130000*%
%ADD15R,0.230000X1.130000*%
%ADD16R,0.800000X0.800000*%
%ADD17R,1.016000X1.016000*%
%ADD18R,3.000000X1.600000*%
%ADD19R,0.550000X0.500000*%
%ADD20R,0.550000X1.200000*%
%ADD21R,0.500000X0.550000*%
%ADD22R,1.700000X2.000000*%
%ADD23R,1.200000X1.400000*%
%ADD24R,0.600000X2.200000*%
G04 APERTURE END LIST*
G36*
G01*
X147789500Y-89710000D02*
X147789500Y-88835000D01*
G75*
G02*
X147795000Y-88829500I5500J0D01*
G01*
X147995000Y-88829500D01*
G75*
G02*
X148000500Y-88835000I0J-5500D01*
G01*
X148000500Y-89710000D01*
G75*
G02*
X147995000Y-89715500I-5500J0D01*
G01*
X147795000Y-89715500D01*
G75*
G02*
X147789500Y-89710000I0J5500D01*
G01*
G37*
G36*
G01*
X148189500Y-89710000D02*
X148189500Y-88835000D01*
G75*
G02*
X148195000Y-88829500I5500J0D01*
G01*
X148395000Y-88829500D01*
G75*
G02*
X148400500Y-88835000I0J-5500D01*
G01*
X148400500Y-89710000D01*
G75*
G02*
X148395000Y-89715500I-5500J0D01*
G01*
X148195000Y-89715500D01*
G75*
G02*
X148189500Y-89710000I0J5500D01*
G01*
G37*
G36*
G01*
X148589500Y-89710000D02*
X148589500Y-88835000D01*
G75*
G02*
X148595000Y-88829500I5500J0D01*
G01*
X148795000Y-88829500D01*
G75*
G02*
X148800500Y-88835000I0J-5500D01*
G01*
X148800500Y-89710000D01*
G75*
G02*
X148795000Y-89715500I-5500J0D01*
G01*
X148595000Y-89715500D01*
G75*
G02*
X148589500Y-89710000I0J5500D01*
G01*
G37*
G36*
G01*
X148989500Y-89710000D02*
X148989500Y-88835000D01*
G75*
G02*
X148995000Y-88829500I5500J0D01*
G01*
X149195000Y-88829500D01*
G75*
G02*
X149200500Y-88835000I0J-5500D01*
G01*
X149200500Y-89710000D01*
G75*
G02*
X149195000Y-89715500I-5500J0D01*
G01*
X148995000Y-89715500D01*
G75*
G02*
X148989500Y-89710000I0J5500D01*
G01*
G37*
G36*
G01*
X149389500Y-89710000D02*
X149389500Y-88835000D01*
G75*
G02*
X149395000Y-88829500I5500J0D01*
G01*
X149595000Y-88829500D01*
G75*
G02*
X149600500Y-88835000I0J-5500D01*
G01*
X149600500Y-89710000D01*
G75*
G02*
X149595000Y-89715500I-5500J0D01*
G01*
X149395000Y-89715500D01*
G75*
G02*
X149389500Y-89710000I0J5500D01*
G01*
G37*
G36*
G01*
X149789500Y-89710000D02*
X149789500Y-88835000D01*
G75*
G02*
X149795000Y-88829500I5500J0D01*
G01*
X149995000Y-88829500D01*
G75*
G02*
X150000500Y-88835000I0J-5500D01*
G01*
X150000500Y-89710000D01*
G75*
G02*
X149995000Y-89715500I-5500J0D01*
G01*
X149795000Y-89715500D01*
G75*
G02*
X149789500Y-89710000I0J5500D01*
G01*
G37*
G36*
G01*
X150189500Y-89710000D02*
X150189500Y-88835000D01*
G75*
G02*
X150195000Y-88829500I5500J0D01*
G01*
X150395000Y-88829500D01*
G75*
G02*
X150400500Y-88835000I0J-5500D01*
G01*
X150400500Y-89710000D01*
G75*
G02*
X150395000Y-89715500I-5500J0D01*
G01*
X150195000Y-89715500D01*
G75*
G02*
X150189500Y-89710000I0J5500D01*
G01*
G37*
G36*
G01*
X150589500Y-89710000D02*
X150589500Y-88835000D01*
G75*
G02*
X150595000Y-88829500I5500J0D01*
G01*
X150795000Y-88829500D01*
G75*
G02*
X150800500Y-88835000I0J-5500D01*
G01*
X150800500Y-89710000D01*
G75*
G02*
X150795000Y-89715500I-5500J0D01*
G01*
X150595000Y-89715500D01*
G75*
G02*
X150589500Y-89710000I0J5500D01*
G01*
G37*
G36*
G01*
X150989500Y-89710000D02*
X150989500Y-88835000D01*
G75*
G02*
X150995000Y-88829500I5500J0D01*
G01*
X151195000Y-88829500D01*
G75*
G02*
X151200500Y-88835000I0J-5500D01*
G01*
X151200500Y-89710000D01*
G75*
G02*
X151195000Y-89715500I-5500J0D01*
G01*
X150995000Y-89715500D01*
G75*
G02*
X150989500Y-89710000I0J5500D01*
G01*
G37*
G36*
G01*
X151389500Y-89710000D02*
X151389500Y-88835000D01*
G75*
G02*
X151395000Y-88829500I5500J0D01*
G01*
X151595000Y-88829500D01*
G75*
G02*
X151600500Y-88835000I0J-5500D01*
G01*
X151600500Y-89710000D01*
G75*
G02*
X151595000Y-89715500I-5500J0D01*
G01*
X151395000Y-89715500D01*
G75*
G02*
X151389500Y-89710000I0J5500D01*
G01*
G37*
G36*
G01*
X151789500Y-89710000D02*
X151789500Y-88835000D01*
G75*
G02*
X151795000Y-88829500I5500J0D01*
G01*
X151995000Y-88829500D01*
G75*
G02*
X152000500Y-88835000I0J-5500D01*
G01*
X152000500Y-89710000D01*
G75*
G02*
X151995000Y-89715500I-5500J0D01*
G01*
X151795000Y-89715500D01*
G75*
G02*
X151789500Y-89710000I0J5500D01*
G01*
G37*
G36*
G01*
X152189500Y-89710000D02*
X152189500Y-88835000D01*
G75*
G02*
X152195000Y-88829500I5500J0D01*
G01*
X152395000Y-88829500D01*
G75*
G02*
X152400500Y-88835000I0J-5500D01*
G01*
X152400500Y-89710000D01*
G75*
G02*
X152395000Y-89715500I-5500J0D01*
G01*
X152195000Y-89715500D01*
G75*
G02*
X152189500Y-89710000I0J5500D01*
G01*
G37*
G36*
G01*
X152589500Y-89710000D02*
X152589500Y-88835000D01*
G75*
G02*
X152595000Y-88829500I5500J0D01*
G01*
X152795000Y-88829500D01*
G75*
G02*
X152800500Y-88835000I0J-5500D01*
G01*
X152800500Y-89710000D01*
G75*
G02*
X152795000Y-89715500I-5500J0D01*
G01*
X152595000Y-89715500D01*
G75*
G02*
X152589500Y-89710000I0J5500D01*
G01*
G37*
G36*
G01*
X152989500Y-89710000D02*
X152989500Y-88835000D01*
G75*
G02*
X152995000Y-88829500I5500J0D01*
G01*
X153195000Y-88829500D01*
G75*
G02*
X153200500Y-88835000I0J-5500D01*
G01*
X153200500Y-89710000D01*
G75*
G02*
X153195000Y-89715500I-5500J0D01*
G01*
X152995000Y-89715500D01*
G75*
G02*
X152989500Y-89710000I0J5500D01*
G01*
G37*
G36*
G01*
X153489500Y-90210000D02*
X153489500Y-90010000D01*
G75*
G02*
X153495000Y-90004500I5500J0D01*
G01*
X154370000Y-90004500D01*
G75*
G02*
X154375500Y-90010000I0J-5500D01*
G01*
X154375500Y-90210000D01*
G75*
G02*
X154370000Y-90215500I-5500J0D01*
G01*
X153495000Y-90215500D01*
G75*
G02*
X153489500Y-90210000I0J5500D01*
G01*
G37*
G36*
G01*
X153489500Y-90610000D02*
X153489500Y-90410000D01*
G75*
G02*
X153495000Y-90404500I5500J0D01*
G01*
X154370000Y-90404500D01*
G75*
G02*
X154375500Y-90410000I0J-5500D01*
G01*
X154375500Y-90610000D01*
G75*
G02*
X154370000Y-90615500I-5500J0D01*
G01*
X153495000Y-90615500D01*
G75*
G02*
X153489500Y-90610000I0J5500D01*
G01*
G37*
G36*
G01*
X153489500Y-91010000D02*
X153489500Y-90810000D01*
G75*
G02*
X153495000Y-90804500I5500J0D01*
G01*
X154370000Y-90804500D01*
G75*
G02*
X154375500Y-90810000I0J-5500D01*
G01*
X154375500Y-91010000D01*
G75*
G02*
X154370000Y-91015500I-5500J0D01*
G01*
X153495000Y-91015500D01*
G75*
G02*
X153489500Y-91010000I0J5500D01*
G01*
G37*
G36*
G01*
X153489500Y-91410000D02*
X153489500Y-91210000D01*
G75*
G02*
X153495000Y-91204500I5500J0D01*
G01*
X154370000Y-91204500D01*
G75*
G02*
X154375500Y-91210000I0J-5500D01*
G01*
X154375500Y-91410000D01*
G75*
G02*
X154370000Y-91415500I-5500J0D01*
G01*
X153495000Y-91415500D01*
G75*
G02*
X153489500Y-91410000I0J5500D01*
G01*
G37*
G36*
G01*
X153489500Y-91810000D02*
X153489500Y-91610000D01*
G75*
G02*
X153495000Y-91604500I5500J0D01*
G01*
X154370000Y-91604500D01*
G75*
G02*
X154375500Y-91610000I0J-5500D01*
G01*
X154375500Y-91810000D01*
G75*
G02*
X154370000Y-91815500I-5500J0D01*
G01*
X153495000Y-91815500D01*
G75*
G02*
X153489500Y-91810000I0J5500D01*
G01*
G37*
G36*
G01*
X153489500Y-92210000D02*
X153489500Y-92010000D01*
G75*
G02*
X153495000Y-92004500I5500J0D01*
G01*
X154370000Y-92004500D01*
G75*
G02*
X154375500Y-92010000I0J-5500D01*
G01*
X154375500Y-92210000D01*
G75*
G02*
X154370000Y-92215500I-5500J0D01*
G01*
X153495000Y-92215500D01*
G75*
G02*
X153489500Y-92210000I0J5500D01*
G01*
G37*
G36*
G01*
X153489500Y-92610000D02*
X153489500Y-92410000D01*
G75*
G02*
X153495000Y-92404500I5500J0D01*
G01*
X154370000Y-92404500D01*
G75*
G02*
X154375500Y-92410000I0J-5500D01*
G01*
X154375500Y-92610000D01*
G75*
G02*
X154370000Y-92615500I-5500J0D01*
G01*
X153495000Y-92615500D01*
G75*
G02*
X153489500Y-92610000I0J5500D01*
G01*
G37*
G36*
G01*
X153489500Y-93010000D02*
X153489500Y-92810000D01*
G75*
G02*
X153495000Y-92804500I5500J0D01*
G01*
X154370000Y-92804500D01*
G75*
G02*
X154375500Y-92810000I0J-5500D01*
G01*
X154375500Y-93010000D01*
G75*
G02*
X154370000Y-93015500I-5500J0D01*
G01*
X153495000Y-93015500D01*
G75*
G02*
X153489500Y-93010000I0J5500D01*
G01*
G37*
G36*
G01*
X153489500Y-93410000D02*
X153489500Y-93210000D01*
G75*
G02*
X153495000Y-93204500I5500J0D01*
G01*
X154370000Y-93204500D01*
G75*
G02*
X154375500Y-93210000I0J-5500D01*
G01*
X154375500Y-93410000D01*
G75*
G02*
X154370000Y-93415500I-5500J0D01*
G01*
X153495000Y-93415500D01*
G75*
G02*
X153489500Y-93410000I0J5500D01*
G01*
G37*
G36*
G01*
X153489500Y-93810000D02*
X153489500Y-93610000D01*
G75*
G02*
X153495000Y-93604500I5500J0D01*
G01*
X154370000Y-93604500D01*
G75*
G02*
X154375500Y-93610000I0J-5500D01*
G01*
X154375500Y-93810000D01*
G75*
G02*
X154370000Y-93815500I-5500J0D01*
G01*
X153495000Y-93815500D01*
G75*
G02*
X153489500Y-93810000I0J5500D01*
G01*
G37*
G36*
G01*
X153489500Y-94210000D02*
X153489500Y-94010000D01*
G75*
G02*
X153495000Y-94004500I5500J0D01*
G01*
X154370000Y-94004500D01*
G75*
G02*
X154375500Y-94010000I0J-5500D01*
G01*
X154375500Y-94210000D01*
G75*
G02*
X154370000Y-94215500I-5500J0D01*
G01*
X153495000Y-94215500D01*
G75*
G02*
X153489500Y-94210000I0J5500D01*
G01*
G37*
G36*
G01*
X153489500Y-94610000D02*
X153489500Y-94410000D01*
G75*
G02*
X153495000Y-94404500I5500J0D01*
G01*
X154370000Y-94404500D01*
G75*
G02*
X154375500Y-94410000I0J-5500D01*
G01*
X154375500Y-94610000D01*
G75*
G02*
X154370000Y-94615500I-5500J0D01*
G01*
X153495000Y-94615500D01*
G75*
G02*
X153489500Y-94610000I0J5500D01*
G01*
G37*
G36*
G01*
X153489500Y-95010000D02*
X153489500Y-94810000D01*
G75*
G02*
X153495000Y-94804500I5500J0D01*
G01*
X154370000Y-94804500D01*
G75*
G02*
X154375500Y-94810000I0J-5500D01*
G01*
X154375500Y-95010000D01*
G75*
G02*
X154370000Y-95015500I-5500J0D01*
G01*
X153495000Y-95015500D01*
G75*
G02*
X153489500Y-95010000I0J5500D01*
G01*
G37*
G36*
G01*
X153489500Y-95410000D02*
X153489500Y-95210000D01*
G75*
G02*
X153495000Y-95204500I5500J0D01*
G01*
X154370000Y-95204500D01*
G75*
G02*
X154375500Y-95210000I0J-5500D01*
G01*
X154375500Y-95410000D01*
G75*
G02*
X154370000Y-95415500I-5500J0D01*
G01*
X153495000Y-95415500D01*
G75*
G02*
X153489500Y-95410000I0J5500D01*
G01*
G37*
G36*
G01*
X152989500Y-96585000D02*
X152989500Y-95710000D01*
G75*
G02*
X152995000Y-95704500I5500J0D01*
G01*
X153195000Y-95704500D01*
G75*
G02*
X153200500Y-95710000I0J-5500D01*
G01*
X153200500Y-96585000D01*
G75*
G02*
X153195000Y-96590500I-5500J0D01*
G01*
X152995000Y-96590500D01*
G75*
G02*
X152989500Y-96585000I0J5500D01*
G01*
G37*
G36*
G01*
X152589500Y-96585000D02*
X152589500Y-95710000D01*
G75*
G02*
X152595000Y-95704500I5500J0D01*
G01*
X152795000Y-95704500D01*
G75*
G02*
X152800500Y-95710000I0J-5500D01*
G01*
X152800500Y-96585000D01*
G75*
G02*
X152795000Y-96590500I-5500J0D01*
G01*
X152595000Y-96590500D01*
G75*
G02*
X152589500Y-96585000I0J5500D01*
G01*
G37*
G36*
G01*
X152189500Y-96585000D02*
X152189500Y-95710000D01*
G75*
G02*
X152195000Y-95704500I5500J0D01*
G01*
X152395000Y-95704500D01*
G75*
G02*
X152400500Y-95710000I0J-5500D01*
G01*
X152400500Y-96585000D01*
G75*
G02*
X152395000Y-96590500I-5500J0D01*
G01*
X152195000Y-96590500D01*
G75*
G02*
X152189500Y-96585000I0J5500D01*
G01*
G37*
G36*
G01*
X151789500Y-96585000D02*
X151789500Y-95710000D01*
G75*
G02*
X151795000Y-95704500I5500J0D01*
G01*
X151995000Y-95704500D01*
G75*
G02*
X152000500Y-95710000I0J-5500D01*
G01*
X152000500Y-96585000D01*
G75*
G02*
X151995000Y-96590500I-5500J0D01*
G01*
X151795000Y-96590500D01*
G75*
G02*
X151789500Y-96585000I0J5500D01*
G01*
G37*
G36*
G01*
X151389500Y-96585000D02*
X151389500Y-95710000D01*
G75*
G02*
X151395000Y-95704500I5500J0D01*
G01*
X151595000Y-95704500D01*
G75*
G02*
X151600500Y-95710000I0J-5500D01*
G01*
X151600500Y-96585000D01*
G75*
G02*
X151595000Y-96590500I-5500J0D01*
G01*
X151395000Y-96590500D01*
G75*
G02*
X151389500Y-96585000I0J5500D01*
G01*
G37*
G36*
G01*
X150989500Y-96585000D02*
X150989500Y-95710000D01*
G75*
G02*
X150995000Y-95704500I5500J0D01*
G01*
X151195000Y-95704500D01*
G75*
G02*
X151200500Y-95710000I0J-5500D01*
G01*
X151200500Y-96585000D01*
G75*
G02*
X151195000Y-96590500I-5500J0D01*
G01*
X150995000Y-96590500D01*
G75*
G02*
X150989500Y-96585000I0J5500D01*
G01*
G37*
G36*
G01*
X150589500Y-96585000D02*
X150589500Y-95710000D01*
G75*
G02*
X150595000Y-95704500I5500J0D01*
G01*
X150795000Y-95704500D01*
G75*
G02*
X150800500Y-95710000I0J-5500D01*
G01*
X150800500Y-96585000D01*
G75*
G02*
X150795000Y-96590500I-5500J0D01*
G01*
X150595000Y-96590500D01*
G75*
G02*
X150589500Y-96585000I0J5500D01*
G01*
G37*
G36*
G01*
X150189500Y-96585000D02*
X150189500Y-95710000D01*
G75*
G02*
X150195000Y-95704500I5500J0D01*
G01*
X150395000Y-95704500D01*
G75*
G02*
X150400500Y-95710000I0J-5500D01*
G01*
X150400500Y-96585000D01*
G75*
G02*
X150395000Y-96590500I-5500J0D01*
G01*
X150195000Y-96590500D01*
G75*
G02*
X150189500Y-96585000I0J5500D01*
G01*
G37*
G36*
G01*
X149789500Y-96585000D02*
X149789500Y-95710000D01*
G75*
G02*
X149795000Y-95704500I5500J0D01*
G01*
X149995000Y-95704500D01*
G75*
G02*
X150000500Y-95710000I0J-5500D01*
G01*
X150000500Y-96585000D01*
G75*
G02*
X149995000Y-96590500I-5500J0D01*
G01*
X149795000Y-96590500D01*
G75*
G02*
X149789500Y-96585000I0J5500D01*
G01*
G37*
G36*
G01*
X149389500Y-96585000D02*
X149389500Y-95710000D01*
G75*
G02*
X149395000Y-95704500I5500J0D01*
G01*
X149595000Y-95704500D01*
G75*
G02*
X149600500Y-95710000I0J-5500D01*
G01*
X149600500Y-96585000D01*
G75*
G02*
X149595000Y-96590500I-5500J0D01*
G01*
X149395000Y-96590500D01*
G75*
G02*
X149389500Y-96585000I0J5500D01*
G01*
G37*
G36*
G01*
X148989500Y-96585000D02*
X148989500Y-95710000D01*
G75*
G02*
X148995000Y-95704500I5500J0D01*
G01*
X149195000Y-95704500D01*
G75*
G02*
X149200500Y-95710000I0J-5500D01*
G01*
X149200500Y-96585000D01*
G75*
G02*
X149195000Y-96590500I-5500J0D01*
G01*
X148995000Y-96590500D01*
G75*
G02*
X148989500Y-96585000I0J5500D01*
G01*
G37*
G36*
G01*
X148589500Y-96585000D02*
X148589500Y-95710000D01*
G75*
G02*
X148595000Y-95704500I5500J0D01*
G01*
X148795000Y-95704500D01*
G75*
G02*
X148800500Y-95710000I0J-5500D01*
G01*
X148800500Y-96585000D01*
G75*
G02*
X148795000Y-96590500I-5500J0D01*
G01*
X148595000Y-96590500D01*
G75*
G02*
X148589500Y-96585000I0J5500D01*
G01*
G37*
G36*
G01*
X148189500Y-96585000D02*
X148189500Y-95710000D01*
G75*
G02*
X148195000Y-95704500I5500J0D01*
G01*
X148395000Y-95704500D01*
G75*
G02*
X148400500Y-95710000I0J-5500D01*
G01*
X148400500Y-96585000D01*
G75*
G02*
X148395000Y-96590500I-5500J0D01*
G01*
X148195000Y-96590500D01*
G75*
G02*
X148189500Y-96585000I0J5500D01*
G01*
G37*
G36*
G01*
X147789500Y-96585000D02*
X147789500Y-95710000D01*
G75*
G02*
X147795000Y-95704500I5500J0D01*
G01*
X147995000Y-95704500D01*
G75*
G02*
X148000500Y-95710000I0J-5500D01*
G01*
X148000500Y-96585000D01*
G75*
G02*
X147995000Y-96590500I-5500J0D01*
G01*
X147795000Y-96590500D01*
G75*
G02*
X147789500Y-96585000I0J5500D01*
G01*
G37*
G36*
G01*
X146614500Y-95410000D02*
X146614500Y-95210000D01*
G75*
G02*
X146620000Y-95204500I5500J0D01*
G01*
X147495000Y-95204500D01*
G75*
G02*
X147500500Y-95210000I0J-5500D01*
G01*
X147500500Y-95410000D01*
G75*
G02*
X147495000Y-95415500I-5500J0D01*
G01*
X146620000Y-95415500D01*
G75*
G02*
X146614500Y-95410000I0J5500D01*
G01*
G37*
G36*
G01*
X146614500Y-95010000D02*
X146614500Y-94810000D01*
G75*
G02*
X146620000Y-94804500I5500J0D01*
G01*
X147495000Y-94804500D01*
G75*
G02*
X147500500Y-94810000I0J-5500D01*
G01*
X147500500Y-95010000D01*
G75*
G02*
X147495000Y-95015500I-5500J0D01*
G01*
X146620000Y-95015500D01*
G75*
G02*
X146614500Y-95010000I0J5500D01*
G01*
G37*
G36*
G01*
X146614500Y-94610000D02*
X146614500Y-94410000D01*
G75*
G02*
X146620000Y-94404500I5500J0D01*
G01*
X147495000Y-94404500D01*
G75*
G02*
X147500500Y-94410000I0J-5500D01*
G01*
X147500500Y-94610000D01*
G75*
G02*
X147495000Y-94615500I-5500J0D01*
G01*
X146620000Y-94615500D01*
G75*
G02*
X146614500Y-94610000I0J5500D01*
G01*
G37*
G36*
G01*
X146614500Y-94210000D02*
X146614500Y-94010000D01*
G75*
G02*
X146620000Y-94004500I5500J0D01*
G01*
X147495000Y-94004500D01*
G75*
G02*
X147500500Y-94010000I0J-5500D01*
G01*
X147500500Y-94210000D01*
G75*
G02*
X147495000Y-94215500I-5500J0D01*
G01*
X146620000Y-94215500D01*
G75*
G02*
X146614500Y-94210000I0J5500D01*
G01*
G37*
G36*
G01*
X146614500Y-93810000D02*
X146614500Y-93610000D01*
G75*
G02*
X146620000Y-93604500I5500J0D01*
G01*
X147495000Y-93604500D01*
G75*
G02*
X147500500Y-93610000I0J-5500D01*
G01*
X147500500Y-93810000D01*
G75*
G02*
X147495000Y-93815500I-5500J0D01*
G01*
X146620000Y-93815500D01*
G75*
G02*
X146614500Y-93810000I0J5500D01*
G01*
G37*
G36*
G01*
X146614500Y-93410000D02*
X146614500Y-93210000D01*
G75*
G02*
X146620000Y-93204500I5500J0D01*
G01*
X147495000Y-93204500D01*
G75*
G02*
X147500500Y-93210000I0J-5500D01*
G01*
X147500500Y-93410000D01*
G75*
G02*
X147495000Y-93415500I-5500J0D01*
G01*
X146620000Y-93415500D01*
G75*
G02*
X146614500Y-93410000I0J5500D01*
G01*
G37*
G36*
G01*
X146614500Y-93010000D02*
X146614500Y-92810000D01*
G75*
G02*
X146620000Y-92804500I5500J0D01*
G01*
X147495000Y-92804500D01*
G75*
G02*
X147500500Y-92810000I0J-5500D01*
G01*
X147500500Y-93010000D01*
G75*
G02*
X147495000Y-93015500I-5500J0D01*
G01*
X146620000Y-93015500D01*
G75*
G02*
X146614500Y-93010000I0J5500D01*
G01*
G37*
G36*
G01*
X146614500Y-92610000D02*
X146614500Y-92410000D01*
G75*
G02*
X146620000Y-92404500I5500J0D01*
G01*
X147495000Y-92404500D01*
G75*
G02*
X147500500Y-92410000I0J-5500D01*
G01*
X147500500Y-92610000D01*
G75*
G02*
X147495000Y-92615500I-5500J0D01*
G01*
X146620000Y-92615500D01*
G75*
G02*
X146614500Y-92610000I0J5500D01*
G01*
G37*
G36*
G01*
X146614500Y-92210000D02*
X146614500Y-92010000D01*
G75*
G02*
X146620000Y-92004500I5500J0D01*
G01*
X147495000Y-92004500D01*
G75*
G02*
X147500500Y-92010000I0J-5500D01*
G01*
X147500500Y-92210000D01*
G75*
G02*
X147495000Y-92215500I-5500J0D01*
G01*
X146620000Y-92215500D01*
G75*
G02*
X146614500Y-92210000I0J5500D01*
G01*
G37*
G36*
G01*
X146614500Y-91810000D02*
X146614500Y-91610000D01*
G75*
G02*
X146620000Y-91604500I5500J0D01*
G01*
X147495000Y-91604500D01*
G75*
G02*
X147500500Y-91610000I0J-5500D01*
G01*
X147500500Y-91810000D01*
G75*
G02*
X147495000Y-91815500I-5500J0D01*
G01*
X146620000Y-91815500D01*
G75*
G02*
X146614500Y-91810000I0J5500D01*
G01*
G37*
G36*
G01*
X146614500Y-91410000D02*
X146614500Y-91210000D01*
G75*
G02*
X146620000Y-91204500I5500J0D01*
G01*
X147495000Y-91204500D01*
G75*
G02*
X147500500Y-91210000I0J-5500D01*
G01*
X147500500Y-91410000D01*
G75*
G02*
X147495000Y-91415500I-5500J0D01*
G01*
X146620000Y-91415500D01*
G75*
G02*
X146614500Y-91410000I0J5500D01*
G01*
G37*
G36*
G01*
X146614500Y-91010000D02*
X146614500Y-90810000D01*
G75*
G02*
X146620000Y-90804500I5500J0D01*
G01*
X147495000Y-90804500D01*
G75*
G02*
X147500500Y-90810000I0J-5500D01*
G01*
X147500500Y-91010000D01*
G75*
G02*
X147495000Y-91015500I-5500J0D01*
G01*
X146620000Y-91015500D01*
G75*
G02*
X146614500Y-91010000I0J5500D01*
G01*
G37*
G36*
G01*
X146614500Y-90610000D02*
X146614500Y-90410000D01*
G75*
G02*
X146620000Y-90404500I5500J0D01*
G01*
X147495000Y-90404500D01*
G75*
G02*
X147500500Y-90410000I0J-5500D01*
G01*
X147500500Y-90610000D01*
G75*
G02*
X147495000Y-90615500I-5500J0D01*
G01*
X146620000Y-90615500D01*
G75*
G02*
X146614500Y-90610000I0J5500D01*
G01*
G37*
G36*
G01*
X146614500Y-90210000D02*
X146614500Y-90010000D01*
G75*
G02*
X146620000Y-90004500I5500J0D01*
G01*
X147495000Y-90004500D01*
G75*
G02*
X147500500Y-90010000I0J-5500D01*
G01*
X147500500Y-90210000D01*
G75*
G02*
X147495000Y-90215500I-5500J0D01*
G01*
X146620000Y-90215500D01*
G75*
G02*
X146614500Y-90210000I0J5500D01*
G01*
G37*
D10*
X151688800Y-92710000D03*
X149301200Y-92710000D03*
D11*
X150495000Y-93903800D03*
X150495000Y-91516200D03*
D12*
X146000000Y-110425000D03*
X147000000Y-110425000D03*
X148000000Y-110425000D03*
X149000000Y-110425000D03*
X150000000Y-110425000D03*
X151000000Y-110425000D03*
X152000000Y-110425000D03*
X153000000Y-110425000D03*
X154000000Y-110425000D03*
X155000000Y-110425000D03*
D13*
X144700000Y-108650000D03*
X156300000Y-108650000D03*
D14*
X147175000Y-71932000D03*
X153825000Y-71932000D03*
X147425000Y-71932000D03*
X153575000Y-71932000D03*
X147975000Y-71932000D03*
X153025000Y-71932000D03*
X148225000Y-71932000D03*
X152775000Y-71932000D03*
D15*
X150750000Y-71932000D03*
X149750000Y-71932000D03*
X149250000Y-71932000D03*
X150250000Y-71932000D03*
X148750000Y-71932000D03*
X151250000Y-71932000D03*
X151750000Y-71932000D03*
X152250000Y-71932000D03*
D16*
X144000000Y-68262000D03*
X144000000Y-66738000D03*
D17*
X154686000Y-97155000D03*
X156464000Y-97155000D03*
X153543000Y-104370000D03*
X153543000Y-106148000D03*
X152019000Y-104370000D03*
X152019000Y-106148000D03*
D18*
X156210000Y-105848000D03*
X156210000Y-103448000D03*
D19*
X152273000Y-102973000D03*
X152273000Y-101957000D03*
X153543000Y-99925000D03*
X153543000Y-100941000D03*
X149098000Y-106426000D03*
X149098000Y-105410000D03*
X150368000Y-106426000D03*
X150368000Y-105410000D03*
D20*
X155133000Y-101630000D03*
X156083000Y-101630000D03*
X157033000Y-101630000D03*
X155133000Y-99030000D03*
X157033000Y-99030000D03*
D21*
X151003000Y-74549000D03*
X152019000Y-74549000D03*
D19*
X150876000Y-100965000D03*
X150876000Y-99949000D03*
X145542000Y-87884000D03*
X145542000Y-88900000D03*
D21*
X144018000Y-93903800D03*
X145034000Y-93903800D03*
D19*
X148844000Y-101600000D03*
X148844000Y-100584000D03*
D21*
X157480000Y-93218000D03*
X156464000Y-93218000D03*
X156083000Y-89789000D03*
X155067000Y-89789000D03*
D19*
X150368000Y-85598000D03*
X150368000Y-86614000D03*
X149225000Y-85598000D03*
X149225000Y-86614000D03*
D21*
X156083000Y-88519000D03*
X155067000Y-88519000D03*
D17*
X155956000Y-86995000D03*
X154178000Y-86995000D03*
X155956000Y-85217000D03*
X154178000Y-85217000D03*
D19*
X149860000Y-101600000D03*
X149860000Y-100584000D03*
X148336000Y-85598000D03*
X148336000Y-86614000D03*
D21*
X145288000Y-104140000D03*
X146304000Y-104140000D03*
X145288000Y-98933000D03*
X146304000Y-98933000D03*
D22*
X156591000Y-79716000D03*
X156591000Y-74716000D03*
D23*
X144996000Y-102573000D03*
X146596000Y-100373000D03*
X144996000Y-100373000D03*
X146596000Y-102573000D03*
D19*
X148082000Y-81661000D03*
X148082000Y-82677000D03*
X152273000Y-99949000D03*
X152273000Y-100965000D03*
X147828000Y-100584000D03*
X147828000Y-101600000D03*
X148082000Y-78486000D03*
X148082000Y-79502000D03*
X152654000Y-86614000D03*
X152654000Y-85598000D03*
X151511000Y-86614000D03*
X151511000Y-85598000D03*
D21*
X144272000Y-70025000D03*
X143256000Y-70025000D03*
D24*
X150368000Y-76267000D03*
X151638000Y-76267000D03*
X152908000Y-76267000D03*
X154178000Y-76267000D03*
X154178000Y-82737000D03*
X152908000Y-82737000D03*
X151638000Y-82737000D03*
X150368000Y-82737000D03*
D19*
X153543000Y-101981000D03*
X153543000Y-102997000D03*
X155956000Y-83439000D03*
X155956000Y-82423000D03*
X156972000Y-83439000D03*
X156972000Y-82423000D03*
G36*
G01*
X144100000Y-79018000D02*
X144750000Y-79018000D01*
G75*
G02*
X144877000Y-79145000I0J-127000D01*
G01*
X144877000Y-80195000D01*
G75*
G02*
X144750000Y-80322000I-127000J0D01*
G01*
X144100000Y-80322000D01*
G75*
G02*
X143973000Y-80195000I0J127000D01*
G01*
X143973000Y-79145000D01*
G75*
G02*
X144100000Y-79018000I127000J0D01*
G01*
G37*
G36*
G01*
X144100000Y-74868000D02*
X144750000Y-74868000D01*
G75*
G02*
X144877000Y-74995000I0J-127000D01*
G01*
X144877000Y-76045000D01*
G75*
G02*
X144750000Y-76172000I-127000J0D01*
G01*
X144100000Y-76172000D01*
G75*
G02*
X143973000Y-76045000I0J127000D01*
G01*
X143973000Y-74995000D01*
G75*
G02*
X144100000Y-74868000I127000J0D01*
G01*
G37*
G36*
G01*
X146250000Y-79018000D02*
X146900000Y-79018000D01*
G75*
G02*
X147027000Y-79145000I0J-127000D01*
G01*
X147027000Y-80195000D01*
G75*
G02*
X146900000Y-80322000I-127000J0D01*
G01*
X146250000Y-80322000D01*
G75*
G02*
X146123000Y-80195000I0J127000D01*
G01*
X146123000Y-79145000D01*
G75*
G02*
X146250000Y-79018000I127000J0D01*
G01*
G37*
G36*
G01*
X146250000Y-74868000D02*
X146900000Y-74868000D01*
G75*
G02*
X147027000Y-74995000I0J-127000D01*
G01*
X147027000Y-76045000D01*
G75*
G02*
X146900000Y-76172000I-127000J0D01*
G01*
X146250000Y-76172000D01*
G75*
G02*
X146123000Y-76045000I0J127000D01*
G01*
X146123000Y-74995000D01*
G75*
G02*
X146250000Y-74868000I127000J0D01*
G01*
G37*
G36*
G01*
X144100000Y-85923000D02*
X144750000Y-85923000D01*
G75*
G02*
X144877000Y-86050000I0J-127000D01*
G01*
X144877000Y-87100000D01*
G75*
G02*
X144750000Y-87227000I-127000J0D01*
G01*
X144100000Y-87227000D01*
G75*
G02*
X143973000Y-87100000I0J127000D01*
G01*
X143973000Y-86050000D01*
G75*
G02*
X144100000Y-85923000I127000J0D01*
G01*
G37*
G36*
G01*
X144100000Y-81773000D02*
X144750000Y-81773000D01*
G75*
G02*
X144877000Y-81900000I0J-127000D01*
G01*
X144877000Y-82950000D01*
G75*
G02*
X144750000Y-83077000I-127000J0D01*
G01*
X144100000Y-83077000D01*
G75*
G02*
X143973000Y-82950000I0J127000D01*
G01*
X143973000Y-81900000D01*
G75*
G02*
X144100000Y-81773000I127000J0D01*
G01*
G37*
G36*
G01*
X146250000Y-85923000D02*
X146900000Y-85923000D01*
G75*
G02*
X147027000Y-86050000I0J-127000D01*
G01*
X147027000Y-87100000D01*
G75*
G02*
X146900000Y-87227000I-127000J0D01*
G01*
X146250000Y-87227000D01*
G75*
G02*
X146123000Y-87100000I0J127000D01*
G01*
X146123000Y-86050000D01*
G75*
G02*
X146250000Y-85923000I127000J0D01*
G01*
G37*
G36*
G01*
X146250000Y-81773000D02*
X146900000Y-81773000D01*
G75*
G02*
X147027000Y-81900000I0J-127000D01*
G01*
X147027000Y-82950000D01*
G75*
G02*
X146900000Y-83077000I-127000J0D01*
G01*
X146250000Y-83077000D01*
G75*
G02*
X146123000Y-82950000I0J127000D01*
G01*
X146123000Y-81900000D01*
G75*
G02*
X146250000Y-81773000I127000J0D01*
G01*
G37*
X148082000Y-76454000D03*
X148082000Y-75438000D03*
D21*
X153797000Y-74549000D03*
X154813000Y-74549000D03*
M02*
